{"glyphs":{"0":{"ha":451,"x_min":14,"x_max":435,"o":"m 149 -1 q 156 -6 150 -3 q 165 -8 163 -8 l 204 -8 q 228 0 214 -1 q 251 1 242 1 q 263 8 258 6 q 275 17 268 11 l 399 140 q 401 155 396 151 q 413 167 407 158 q 418 188 417 174 q 419 208 419 201 q 429 226 424 213 q 435 247 435 240 l 435 322 l 426 332 l 426 364 q 422 370 425 365 q 418 378 418 375 l 418 536 l 408 546 l 408 571 q 399 584 401 578 q 390 597 397 590 q 365 628 375 615 q 344 649 356 640 q 317 660 332 657 q 276 664 301 664 l 247 664 q 231 649 240 657 q 211 636 221 642 l 44 469 q 39 460 43 468 q 32 450 35 453 q 22 429 29 443 q 14 408 14 415 l 14 89 q 18 83 15 88 q 21 75 21 78 q 22 66 21 74 q 24 57 22 58 q 30 49 24 56 q 39 40 36 43 q 69 16 50 29 q 104 1 89 3 q 126 -1 110 0 q 149 -1 143 -1 m 228 115 q 205 116 222 115 q 182 117 188 117 q 158 129 169 118 q 139 150 146 140 q 133 160 136 153 q 131 168 131 167 l 131 485 q 134 492 132 488 q 138 499 136 497 q 158 526 144 515 q 183 549 171 536 l 231 549 q 247 541 238 549 q 267 523 257 533 q 283 501 276 513 q 290 485 289 490 q 292 465 293 474 q 301 447 292 456 l 301 301 q 303 296 301 301 q 307 288 306 290 q 308 285 307 286 q 310 282 310 283 q 310 257 310 271 q 319 233 310 244 l 319 171 q 313 156 319 164 q 301 143 306 147 l 301 117 q 279 108 289 114 l 242 108 l 228 115 z "},"1":{"ha":321,"x_min":14,"x_max":304,"o":"m 14 -24 l 14 -33 l 31 -50 l 35 -50 l 128 43 q 130 63 128 47 q 132 82 132 78 q 135 91 133 85 q 138 99 138 97 q 138 119 138 101 q 139 139 139 136 q 143 156 140 147 q 146 174 146 164 q 158 281 151 228 q 197 381 165 333 q 221 444 208 413 q 246 508 233 476 q 266 546 257 533 q 279 585 275 558 q 280 591 279 588 q 282 594 281 594 l 303 618 q 303 620 303 618 q 304 625 304 622 l 304 628 l 304 629 l 286 647 l 268 632 l 251 646 l 246 646 q 239 638 244 643 q 231 632 233 633 q 225 629 228 629 l 139 546 q 128 540 132 543 q 117 533 124 536 l 18 436 l 18 432 l 35 415 l 38 415 q 59 425 46 415 q 82 439 72 435 l 163 518 l 163 514 q 152 474 163 490 q 132 439 142 458 q 108 375 119 407 q 83 311 96 343 q 72 288 79 299 q 58 267 64 278 q 44 207 46 236 q 35 146 42 178 q 33 141 35 144 q 32 136 32 138 q 26 79 29 108 q 21 22 24 50 q 17 -1 19 10 q 14 -24 14 -11 z "},"2":{"ha":540,"x_min":3,"x_max":576,"o":"m 324 -200 q 332 -206 325 -203 q 347 -210 339 -208 q 360 -215 354 -212 q 369 -217 367 -217 l 404 -217 l 438 -217 q 453 -208 444 -210 q 468 -199 461 -207 l 561 -106 q 570 -94 564 -101 q 576 -86 576 -87 l 576 -82 l 561 -65 l 558 -65 q 547 -71 554 -65 q 533 -83 540 -76 q 520 -94 526 -89 q 510 -100 514 -100 l 447 -100 q 427 -95 438 -100 q 410 -83 417 -90 l 376 -83 q 373 -79 376 -82 q 368 -75 369 -76 q 361 -72 367 -74 q 354 -71 356 -71 q 344 -62 351 -69 q 335 -54 338 -56 l 331 -51 q 321 -44 325 -49 l 247 28 q 224 34 236 29 q 206 46 213 39 q 192 47 203 46 q 179 49 182 47 q 172 51 178 49 q 165 56 167 54 q 160 56 164 56 q 156 57 157 57 l 156 60 q 164 77 156 63 q 175 94 172 92 q 187 108 178 97 q 199 121 196 118 q 210 138 199 129 q 228 150 221 147 l 386 308 q 392 316 389 311 q 397 325 396 321 l 447 378 q 451 387 447 379 q 460 403 456 394 q 470 418 465 411 q 476 428 475 425 l 476 481 q 470 495 476 488 q 456 511 464 503 q 442 527 449 519 q 435 543 436 535 l 396 583 q 383 588 389 586 q 372 594 378 590 l 319 594 q 303 590 314 594 q 286 583 292 585 l 169 467 q 164 460 167 464 q 161 453 161 457 l 161 450 l 178 435 l 189 435 q 196 441 190 436 q 208 451 201 446 q 219 462 214 457 q 226 469 224 467 q 233 475 229 472 q 242 478 238 478 l 286 478 q 306 471 296 471 l 325 453 l 325 442 q 340 428 328 439 q 354 413 351 417 q 358 408 356 411 q 361 404 361 404 l 361 360 q 356 351 360 357 q 347 338 351 344 q 339 324 343 331 q 335 315 335 317 l 283 263 q 266 237 283 247 q 238 222 249 226 l 144 129 l 140 122 l 89 69 q 79 51 86 61 q 65 33 72 42 q 52 15 57 24 q 47 0 47 6 l 14 -35 q 8 -44 13 -42 q 3 -54 3 -47 l 3 -57 l 19 -72 l 21 -72 q 35 -67 28 -72 q 49 -61 42 -61 l 86 -61 q 103 -67 97 -67 q 121 -71 110 -68 q 138 -78 129 -74 q 156 -86 147 -83 l 231 -156 q 235 -158 232 -157 q 240 -161 239 -160 q 253 -172 243 -162 q 265 -185 263 -182 q 293 -197 279 -194 q 324 -200 307 -200 z "},"3":{"ha":413,"x_min":26,"x_max":382,"o":"m 26 -281 l 43 -297 l 47 -297 q 55 -293 47 -297 q 65 -286 63 -289 q 72 -281 68 -285 q 78 -276 75 -278 q 86 -268 79 -275 q 101 -254 93 -261 q 117 -240 110 -247 q 126 -232 125 -233 q 133 -228 131 -228 l 226 -135 q 231 -127 228 -132 q 236 -121 235 -122 q 244 -111 238 -118 q 258 -97 250 -104 q 272 -83 265 -89 q 281 -74 278 -76 q 292 -49 285 -60 q 308 -28 300 -39 q 310 -22 308 -26 q 313 -15 313 -17 q 319 -6 314 -12 q 328 3 325 0 l 328 29 q 340 44 336 36 q 350 61 343 53 q 357 69 351 63 q 364 78 363 75 q 365 87 364 79 q 367 96 365 94 q 369 103 367 99 q 374 108 372 107 q 374 132 374 119 q 382 154 375 144 l 382 285 q 374 303 375 293 q 368 324 372 314 q 345 359 361 346 q 310 385 329 372 q 300 390 301 392 q 292 394 299 388 l 247 394 l 317 468 q 325 483 319 476 q 336 496 331 490 l 336 557 q 332 566 336 563 q 326 575 328 569 q 318 597 322 590 q 308 608 314 604 q 295 616 303 613 q 278 626 288 619 l 231 626 l 222 619 q 200 619 217 619 q 178 617 183 618 q 170 615 175 617 q 164 613 165 614 l 64 513 q 57 496 57 506 q 64 482 57 489 q 73 473 67 479 q 81 467 79 467 l 85 467 l 122 501 q 140 501 129 500 q 158 510 151 503 l 192 510 q 195 508 193 510 q 199 506 197 506 q 203 505 200 506 q 208 503 207 504 q 213 490 214 499 q 219 475 213 482 l 219 436 q 183 410 199 421 q 140 394 167 399 l 38 292 q 37 289 38 292 q 36 285 36 286 l 36 282 l 36 279 l 51 264 l 54 264 l 57 264 l 65 268 q 76 269 68 268 q 85 271 83 269 q 92 275 92 272 q 99 278 92 278 l 210 278 q 239 260 224 269 q 257 233 254 251 q 258 218 258 225 q 267 206 258 211 l 267 82 q 260 61 260 71 q 257 40 260 51 q 255 36 257 39 q 253 33 253 33 q 250 22 251 31 q 247 10 249 13 q 229 -20 243 -3 q 213 -49 215 -37 q 212 -60 213 -50 q 210 -71 211 -69 q 205 -78 210 -74 q 199 -86 200 -83 q 196 -91 197 -86 q 194 -97 194 -96 q 183 -110 188 -107 q 175 -125 178 -114 l 147 -156 q 137 -171 147 -165 q 119 -183 126 -176 l 26 -276 l 26 -281 z "},"4":{"ha":567,"x_min":14,"x_max":553,"o":"m 263 71 q 266 67 264 71 q 269 63 268 64 q 270 56 269 61 q 272 49 271 50 q 281 38 275 44 q 288 32 286 32 l 293 32 l 386 125 l 386 133 q 385 144 386 139 q 379 153 385 150 q 376 182 378 168 q 369 211 375 196 l 369 257 l 378 278 l 378 333 l 457 333 l 553 429 l 535 447 l 446 447 q 432 440 439 447 l 397 440 q 406 463 406 450 q 407 488 406 476 q 415 503 414 494 q 422 519 415 513 l 422 553 l 407 568 l 401 568 l 308 475 q 308 461 308 472 q 307 447 307 450 q 302 433 306 443 q 294 422 299 424 q 283 420 288 419 q 272 418 278 421 q 268 415 271 417 q 265 413 265 413 q 247 410 254 410 q 232 404 242 410 l 151 404 l 181 439 q 182 442 181 440 q 183 446 183 444 q 192 456 185 447 q 201 467 200 464 q 212 485 208 475 q 221 504 215 494 q 226 511 224 510 q 231 519 229 513 q 260 552 243 532 q 283 592 278 572 q 284 598 283 593 q 286 603 285 603 q 292 612 286 606 q 300 619 299 618 q 302 623 300 621 q 304 626 304 625 q 308 643 307 633 q 314 660 310 653 q 322 669 315 661 q 329 681 328 678 q 331 683 331 681 q 332 688 332 686 q 335 693 333 689 q 339 699 338 697 q 340 713 339 701 q 342 729 340 725 q 344 740 342 731 q 349 751 347 750 l 349 754 l 349 757 l 332 774 l 328 774 l 235 681 q 230 669 233 679 q 225 654 226 660 q 224 640 225 651 q 224 624 222 628 q 219 620 222 624 q 217 615 217 617 q 206 600 213 608 q 197 588 200 592 q 194 569 194 579 q 188 553 194 560 q 180 543 186 550 q 172 533 174 536 q 169 524 169 531 q 167 515 168 517 q 159 501 164 510 q 151 488 154 492 l 114 447 q 109 435 113 440 q 103 422 106 429 q 83 390 94 404 q 58 361 71 376 q 49 353 56 358 q 37 340 43 347 q 24 326 31 332 q 17 318 18 319 q 15 314 15 317 q 14 311 14 311 l 14 308 l 14 306 q 22 297 17 303 q 31 290 28 292 q 33 288 31 289 q 35 288 35 288 l 158 288 q 176 296 165 294 q 197 297 188 297 l 207 306 l 256 306 q 271 313 263 313 q 261 263 271 286 l 261 201 l 253 181 l 253 135 q 260 103 258 119 q 263 71 261 88 z "},"5":{"ha":590,"x_min":6,"x_max":565,"o":"m 6 -247 l 22 -264 l 26 -264 q 72 -222 49 -242 q 119 -182 96 -203 q 126 -178 122 -181 q 133 -174 131 -175 l 289 -19 q 304 -4 294 -15 q 317 15 314 7 q 335 35 321 19 q 354 54 350 50 q 365 72 361 61 q 372 89 368 82 q 376 94 374 90 q 379 99 379 97 q 381 108 381 100 q 382 117 382 115 q 386 125 382 118 q 394 139 390 132 q 403 152 399 146 q 408 160 407 158 l 408 188 l 417 196 l 417 264 q 406 281 410 271 q 399 301 401 292 q 397 309 399 301 q 393 319 396 317 q 373 338 385 331 q 350 354 361 346 l 338 363 l 303 363 l 294 371 l 240 371 q 226 364 233 371 q 209 363 222 364 q 192 361 196 361 l 188 361 l 188 469 l 231 469 q 251 478 238 478 q 264 478 256 478 q 282 478 272 478 q 300 480 292 479 q 313 481 308 481 l 322 488 l 379 488 q 405 499 385 493 q 433 506 425 504 q 453 506 438 506 q 472 508 468 507 l 565 601 l 565 606 l 550 622 l 533 622 q 493 619 518 622 q 454 604 468 615 l 396 604 l 385 596 q 357 595 378 596 q 329 594 336 594 q 315 592 322 593 q 303 586 307 590 l 247 586 l 238 578 q 223 576 235 578 q 208 575 211 575 q 194 572 197 574 q 182 565 190 569 l 89 474 l 89 471 q 92 465 89 468 q 94 460 94 463 l 94 458 l 74 436 l 69 422 l 69 282 q 67 276 69 282 q 61 268 64 271 q 53 259 60 265 q 44 250 47 253 l 44 246 l 61 229 l 88 229 q 101 239 93 235 q 117 246 110 243 q 140 246 128 246 q 164 254 154 246 l 208 254 q 232 246 218 246 q 257 246 246 246 q 263 239 258 243 q 271 233 268 235 l 279 229 q 289 204 288 218 q 301 182 290 190 l 301 126 q 297 122 300 126 q 294 115 294 117 q 292 102 293 113 q 292 89 292 92 q 277 65 286 82 q 265 40 268 47 q 265 33 265 39 q 264 26 264 28 q 257 17 263 25 q 250 8 251 10 q 247 1 249 6 q 244 -6 246 -4 l 215 -39 l 213 -43 q 206 -50 213 -43 q 190 -67 199 -57 q 170 -86 181 -76 q 154 -101 160 -96 q 142 -111 150 -106 q 129 -119 135 -117 l 6 -243 l 6 -247 z "},"6":{"ha":497,"x_min":14,"x_max":481,"o":"m 14 239 q 22 222 21 233 q 24 207 22 210 q 50 158 31 183 q 90 121 69 132 q 98 116 93 119 q 104 111 103 113 q 113 104 106 110 q 121 97 119 99 q 140 92 131 92 q 160 88 150 92 q 168 85 163 86 q 174 83 174 83 l 276 83 q 292 89 285 90 q 310 93 299 88 q 332 111 321 99 q 356 128 343 124 l 467 239 q 474 258 474 246 q 476 279 474 271 q 479 287 478 282 q 481 293 481 292 l 481 339 q 449 379 464 358 q 414 418 433 400 q 389 429 400 419 q 367 439 378 439 l 286 439 q 257 428 271 439 q 231 414 243 418 q 202 407 217 408 q 176 394 188 406 l 131 353 l 131 446 q 139 460 131 454 l 139 507 q 159 555 153 526 q 176 606 165 583 q 183 615 179 611 q 187 643 183 632 q 197 664 190 654 q 210 683 203 674 q 224 706 218 693 l 269 756 l 251 774 q 247 774 250 774 q 243 775 244 775 q 232 774 235 775 q 224 767 229 774 l 131 674 q 128 669 129 672 q 125 664 126 665 q 122 660 125 664 q 118 656 119 656 q 110 639 117 653 q 103 622 104 625 q 83 595 93 608 q 69 564 72 582 q 69 554 69 563 q 67 543 68 546 q 60 529 65 536 q 53 515 56 522 q 39 472 44 494 q 22 429 33 449 l 22 388 q 17 378 19 385 q 14 369 14 372 l 14 239 m 238 207 q 224 206 235 206 q 211 208 214 207 q 201 217 208 210 q 190 225 193 224 q 181 229 186 229 l 151 263 q 143 276 147 267 q 139 292 139 285 l 139 294 q 168 302 154 294 q 196 315 182 310 q 201 320 199 318 q 210 322 204 322 l 290 322 q 298 319 294 322 q 305 312 301 315 q 313 306 308 308 q 324 304 317 303 q 346 277 338 289 q 365 250 354 265 l 365 215 q 360 205 365 210 q 349 200 354 200 l 251 200 q 238 207 244 200 z "},"7":{"ha":539,"x_min":7,"x_max":515,"o":"m 7 -465 l 7 -467 l 24 -483 l 28 -483 l 125 -386 q 138 -354 138 -374 q 142 -321 138 -336 q 144 -314 142 -319 q 146 -307 146 -308 q 148 -287 147 -303 q 149 -267 149 -272 q 186 -110 165 -185 q 194 -76 190 -93 q 204 -44 197 -60 q 213 -28 206 -42 q 221 -11 219 -14 q 228 12 226 0 q 235 35 229 24 q 258 84 246 60 q 281 135 269 108 q 289 147 283 142 q 297 160 294 153 q 306 185 303 171 q 314 211 308 200 q 319 220 315 213 q 326 237 322 228 q 334 253 331 246 q 339 263 338 260 q 342 269 340 264 q 344 276 343 274 q 345 285 344 278 q 346 293 346 292 q 359 312 350 304 q 374 329 368 319 q 381 343 375 333 q 392 365 386 353 q 402 386 397 376 q 408 400 407 396 q 460 478 440 436 q 514 556 481 521 q 515 565 515 558 l 515 567 l 500 583 l 497 583 q 488 578 493 583 l 339 578 q 330 574 336 578 q 321 568 324 571 l 224 568 q 217 565 222 568 q 206 558 211 563 q 194 551 200 554 q 188 546 189 547 l 90 449 q 90 446 90 447 q 89 443 89 444 q 83 438 88 443 q 79 432 79 433 q 77 423 78 431 q 76 414 76 415 q 76 410 76 413 q 75 407 75 407 q 67 399 72 404 q 60 390 63 393 l 60 386 l 79 367 l 165 451 l 249 451 q 263 460 254 460 l 379 460 q 364 439 368 451 q 353 415 360 426 q 340 395 346 404 q 328 374 333 386 q 310 349 321 360 q 293 325 300 339 q 285 311 290 321 q 275 290 281 301 q 265 269 269 279 q 258 256 260 260 q 237 230 243 240 q 228 200 231 219 q 225 193 228 196 q 220 183 224 190 q 213 167 217 176 q 205 151 208 158 q 200 142 201 143 q 192 117 194 131 q 183 90 189 103 q 175 78 181 83 q 167 65 169 72 q 156 38 160 51 q 144 10 151 24 q 131 -12 138 -1 q 121 -35 125 -24 q 114 -58 115 -46 q 107 -82 113 -71 q 99 -98 106 -85 q 90 -114 92 -111 q 72 -172 79 -142 q 58 -232 65 -203 q 44 -287 51 -261 q 32 -344 38 -314 q 32 -351 32 -346 q 31 -363 32 -357 q 31 -375 31 -369 q 31 -383 31 -382 q 28 -390 31 -385 q 25 -397 26 -396 q 22 -417 22 -408 q 21 -437 22 -426 q 13 -451 19 -444 q 7 -465 7 -458 z "},"8":{"ha":525,"x_min":14,"x_max":508,"o":"m 53 290 q 42 274 50 281 q 32 258 35 268 q 31 252 32 257 q 31 246 31 247 q 19 231 24 235 q 14 214 14 228 l 14 104 l 31 88 q 44 74 38 81 q 58 60 50 67 q 69 53 63 56 q 82 49 76 51 q 92 40 83 47 q 103 31 100 32 q 106 28 103 29 q 110 28 108 28 l 288 28 q 299 31 290 29 q 311 35 308 33 q 317 35 313 35 q 322 38 322 36 q 333 45 325 39 q 342 53 340 51 q 344 55 342 54 q 346 56 346 56 l 458 167 q 460 171 458 168 q 463 174 461 174 q 476 190 465 178 q 490 204 488 201 q 497 230 492 218 q 508 253 503 242 l 508 342 q 501 358 508 349 q 490 372 494 367 q 482 383 488 375 q 474 393 476 390 l 458 408 q 433 419 446 418 q 407 428 419 421 q 403 428 406 428 q 400 429 400 429 q 390 431 399 431 q 376 435 381 432 l 414 474 q 427 497 419 486 q 442 518 435 507 q 450 535 443 521 q 460 556 457 549 q 463 563 463 558 l 463 650 q 460 654 463 651 q 456 660 457 657 q 446 670 453 663 q 436 681 439 678 l 436 692 q 428 702 436 694 q 414 714 419 710 q 396 718 407 718 q 379 721 386 718 q 372 725 372 722 q 365 728 372 728 l 325 728 q 294 705 310 717 q 263 683 278 693 q 258 681 261 682 q 256 678 256 679 l 158 581 q 151 568 156 572 q 144 553 147 564 l 142 549 q 129 532 138 542 q 118 515 121 522 q 116 504 118 514 q 114 493 114 494 q 106 474 111 483 q 97 456 100 465 q 97 451 97 454 q 96 446 96 447 q 91 440 93 442 q 89 432 89 438 l 89 379 q 99 364 92 374 q 107 347 107 354 l 107 346 l 53 290 m 153 167 l 131 190 l 131 290 q 131 295 131 292 q 132 300 132 299 q 141 309 135 303 q 149 315 147 315 l 207 315 l 221 322 l 283 322 q 294 319 286 321 q 304 315 301 317 q 313 315 306 315 q 322 314 321 314 q 330 310 325 313 q 338 307 335 307 q 354 304 347 304 q 369 294 363 304 q 380 282 372 290 q 388 272 388 274 q 391 267 389 269 q 393 263 393 264 l 393 179 q 383 158 388 171 q 365 144 378 144 l 186 144 q 172 158 181 150 q 153 167 163 165 m 204 467 l 204 504 q 212 517 213 510 q 214 532 211 524 q 222 546 215 539 q 231 560 228 553 q 235 581 233 572 q 244 600 236 589 q 251 607 247 603 q 256 611 254 611 l 281 611 l 290 603 l 321 603 q 334 581 322 592 q 346 564 346 571 l 346 486 l 328 449 q 304 442 321 449 q 281 432 288 436 l 231 432 q 215 446 218 432 q 204 467 211 460 z "},"9":{"ha":517,"x_min":7,"x_max":496,"o":"m 7 -236 l 26 -254 l 31 -254 l 331 46 q 333 51 333 49 q 342 63 335 53 q 350 76 349 74 q 355 88 351 79 q 358 100 358 97 q 369 112 361 103 q 378 124 376 121 q 400 160 390 140 q 417 200 410 181 q 421 208 418 203 q 424 214 424 213 q 438 231 431 224 q 450 249 444 239 q 452 255 450 250 q 454 260 454 260 q 462 269 457 263 q 469 279 467 276 l 469 307 q 479 320 476 311 q 484 340 482 329 q 488 359 486 350 q 496 375 490 368 l 496 504 q 492 518 496 510 q 485 531 488 526 l 460 556 q 450 558 456 558 l 447 558 l 417 531 q 390 552 401 546 q 354 558 378 558 l 338 558 q 319 547 331 554 q 301 540 308 540 l 271 513 l 264 513 l 161 410 q 154 397 158 399 q 143 383 150 394 q 129 358 138 375 q 121 339 121 342 l 121 297 q 113 286 114 293 q 113 272 113 279 q 117 250 113 261 q 131 228 122 239 q 149 211 139 218 q 168 203 158 204 q 176 201 169 201 q 185 200 183 200 q 197 195 194 197 q 213 193 200 193 q 231 197 217 193 q 250 203 246 200 q 261 210 251 203 q 272 218 271 217 q 282 219 275 219 q 292 221 290 219 q 299 228 293 222 q 308 235 306 233 q 310 236 308 235 q 313 238 311 238 l 381 303 q 369 267 371 288 q 353 235 368 246 l 353 204 q 341 190 349 201 q 325 167 333 179 q 310 142 317 154 q 301 125 303 131 q 299 121 300 125 q 299 117 299 117 q 282 84 293 104 q 264 53 271 64 q 253 42 261 51 q 244 29 246 32 q 238 12 239 19 q 229 -6 236 4 q 220 -15 226 -8 q 206 -28 214 -21 q 192 -42 199 -36 q 185 -51 186 -49 q 178 -60 182 -54 q 171 -71 174 -65 l 7 -236 m 271 318 l 244 318 q 234 333 240 318 q 228 351 228 347 q 236 369 228 361 l 236 417 q 239 419 238 417 q 240 421 240 421 q 247 430 244 428 q 251 433 249 432 q 256 436 253 435 q 264 442 258 438 l 279 442 q 290 442 282 442 q 303 440 299 443 q 314 430 310 435 q 326 425 318 425 l 329 425 l 358 454 q 364 449 358 454 q 372 442 369 444 q 381 428 381 436 l 381 353 q 374 346 381 351 q 364 338 367 340 q 357 335 363 336 q 350 335 351 335 q 319 320 335 332 q 289 308 304 308 q 278 310 283 308 q 271 318 274 311 z "},"Ý":{"ha":694,"x_min":0,"x_max":0,"o":""}," ":{"ha":456,"x_min":0,"x_max":0,"o":""},"!":{"ha":632,"x_min":14,"x_max":543,"o":"m 61 -28 q 72 -50 67 -36 l 72 -62 q 78 -69 74 -65 q 85 -75 82 -72 l 88 -76 q 90 -78 89 -76 q 92 -79 90 -79 q 103 -94 96 -85 q 118 -113 110 -104 q 135 -129 126 -122 q 150 -136 143 -136 l 151 -136 l 221 -68 l 221 -43 l 229 -43 l 296 24 q 293 38 296 31 q 286 47 290 44 l 286 82 l 272 94 l 239 64 l 222 64 q 210 74 215 64 q 193 85 204 85 l 192 85 l 143 36 q 142 42 143 38 q 140 50 142 47 q 135 58 139 53 q 128 63 131 63 l 126 63 l 61 -3 l 61 -28 m 79 265 l 93 251 l 163 319 l 163 364 l 213 418 l 213 478 l 221 483 l 221 508 l 228 518 l 228 569 q 234 587 233 576 q 235 604 235 597 q 244 621 238 608 q 253 636 250 633 l 253 654 q 263 668 261 661 q 268 682 264 675 q 281 703 271 690 q 292 725 292 715 l 292 729 l 281 740 l 279 740 l 278 740 q 272 736 272 740 q 265 735 271 736 q 257 735 258 735 q 248 729 253 733 q 238 724 243 725 q 230 723 236 724 q 222 722 224 722 q 210 713 214 721 q 206 711 208 713 q 203 710 204 710 q 188 703 194 706 q 175 696 182 701 l 172 694 q 160 684 168 692 q 149 674 151 676 q 143 669 147 674 l 142 671 q 144 675 142 674 q 146 679 146 676 l 146 681 l 144 686 q 146 691 144 689 q 147 693 147 693 l 147 724 q 153 733 147 728 q 161 742 158 739 q 165 758 164 750 q 174 772 167 767 l 174 794 q 187 814 183 803 q 196 835 190 825 q 204 844 199 838 q 213 853 210 851 q 213 856 213 854 q 214 858 214 858 q 217 863 215 858 q 219 868 219 867 q 222 874 221 868 q 224 882 224 881 q 231 897 226 890 q 240 910 236 903 q 253 929 247 921 q 267 949 260 938 q 271 960 269 953 q 275 971 272 968 q 287 986 282 979 q 299 1000 292 993 q 299 1002 299 1001 q 300 1006 300 1003 l 319 1024 l 326 1026 q 338 1038 329 1029 q 350 1049 347 1046 q 356 1053 353 1051 q 365 1056 358 1056 l 431 1124 l 431 1126 l 419 1138 q 417 1138 419 1138 q 413 1139 414 1139 q 402 1138 408 1139 q 393 1132 396 1136 l 339 1132 q 325 1127 333 1132 q 313 1119 317 1122 q 300 1119 310 1119 q 288 1117 290 1118 q 264 1110 281 1117 q 244 1100 247 1103 l 185 1100 q 182 1098 185 1099 q 179 1097 179 1097 l 178 1097 l 175 1097 q 187 1108 179 1101 q 201 1114 194 1114 q 215 1125 206 1117 q 226 1136 224 1133 q 240 1147 231 1140 q 253 1154 249 1154 q 259 1155 253 1154 q 267 1157 265 1156 q 272 1161 267 1157 q 278 1165 276 1165 q 289 1172 283 1168 q 300 1179 294 1176 q 313 1183 307 1183 q 325 1188 318 1183 q 341 1196 333 1192 q 357 1201 349 1200 l 392 1232 q 405 1239 400 1232 q 417 1247 410 1246 q 424 1248 418 1247 q 431 1249 429 1249 q 436 1253 432 1249 q 440 1257 440 1257 q 443 1259 440 1258 q 447 1260 446 1260 q 451 1260 447 1260 q 456 1261 456 1260 q 465 1271 461 1265 q 475 1275 468 1276 l 543 1342 l 535 1356 q 537 1362 535 1360 q 539 1367 539 1364 l 539 1369 q 533 1374 538 1371 q 528 1379 529 1378 q 521 1382 525 1382 q 515 1382 518 1382 q 508 1382 513 1382 q 503 1376 506 1382 l 440 1376 q 435 1380 439 1378 q 429 1382 431 1382 l 392 1382 q 387 1380 390 1382 q 382 1376 383 1378 l 381 1376 q 374 1382 375 1376 l 350 1382 q 326 1364 336 1372 q 317 1364 325 1364 q 308 1363 310 1364 q 299 1358 306 1361 q 292 1353 293 1354 q 273 1341 282 1346 q 256 1329 264 1336 q 247 1321 253 1326 q 235 1309 242 1315 q 222 1297 228 1303 q 213 1288 215 1290 q 210 1288 210 1288 q 207 1289 210 1289 l 206 1289 l 139 1224 q 131 1212 136 1217 q 122 1200 125 1207 q 120 1187 121 1194 q 114 1174 119 1179 l 90 1147 q 78 1126 88 1136 q 63 1108 68 1117 q 54 1095 58 1104 q 49 1081 50 1086 q 45 1072 46 1076 q 42 1061 44 1068 q 40 1058 42 1061 q 36 1056 38 1056 q 22 1030 29 1044 q 14 1003 14 1015 l 14 997 l 25 986 l 26 986 q 40 990 33 986 q 50 996 46 994 q 58 996 53 996 q 65 997 64 996 q 76 1003 68 999 q 88 1011 85 1008 l 122 1011 q 136 1017 126 1017 q 138 1016 136 1017 q 140 1015 139 1015 q 139 1010 139 1014 q 138 990 139 1004 q 138 972 138 976 q 131 960 135 969 q 126 943 126 950 q 124 928 125 940 q 124 914 124 917 q 115 899 118 907 q 107 883 111 890 q 106 869 107 876 q 99 856 106 861 l 99 825 q 89 806 90 817 q 85 783 88 794 l 79 778 l 79 760 q 72 751 78 756 q 67 743 67 747 q 65 735 65 742 q 65 726 65 729 l 63 722 q 61 717 61 722 q 60 706 61 714 q 58 697 60 699 q 56 693 58 696 q 53 689 53 690 q 51 679 51 686 q 50 669 50 672 l 46 663 l 46 636 q 41 629 42 633 q 40 621 40 625 q 39 606 39 618 q 39 590 39 593 q 31 575 36 588 q 26 560 26 563 l 26 558 l 39 547 q 63 553 56 547 q 82 567 69 560 q 94 573 89 572 q 107 575 100 574 q 119 582 114 578 q 131 586 124 586 l 135 586 q 131 572 132 579 q 126 558 129 565 q 122 553 125 557 q 117 547 118 549 q 110 533 111 540 q 106 519 108 526 q 100 509 103 514 q 94 499 97 504 q 88 476 89 488 q 82 453 86 464 q 80 450 81 451 q 79 449 79 449 l 79 432 q 76 428 79 431 q 72 424 74 425 l 72 318 q 76 311 72 315 q 79 306 79 307 l 79 265 m 229 1238 q 226 1232 229 1235 q 222 1228 224 1229 q 224 1233 219 1228 q 229 1238 229 1239 z "},"\"":{"ha":329,"x_min":-12,"x_max":229,"o":"m 114 921 q 114 919 114 921 q 115 919 114 919 l 128 903 l 132 903 l 207 992 q 209 999 207 992 q 213 1011 211 1007 q 221 1046 217 1028 q 229 1081 225 1064 l 229 1139 l 222 1158 l 222 1307 l 207 1324 l 131 1235 l 131 1086 l 136 1064 l 136 1008 q 128 979 132 993 q 121 950 124 965 q 117 935 119 943 q 114 921 114 926 m -6 950 l 10 932 l 86 1022 l 86 1250 q 79 1274 86 1265 q 72 1283 76 1278 q 67 1289 67 1289 l 63 1289 l -12 1201 l -12 1200 q -9 1189 -12 1193 q -6 1178 -6 1185 l -6 950 z "},"&":{"ha":1065,"x_min":14,"x_max":1001,"o":"m 261 -124 q 265 -127 263 -125 q 269 -129 268 -129 l 308 -129 q 316 -123 313 -121 q 326 -121 319 -125 q 333 -115 328 -121 q 340 -110 339 -110 q 345 -108 340 -108 q 351 -107 350 -107 q 367 -94 358 -103 q 383 -79 376 -85 q 387 -78 383 -79 q 392 -78 390 -78 l 404 -65 q 418 -56 411 -60 q 433 -49 425 -51 q 440 -44 438 -47 q 447 -37 443 -40 q 464 -28 456 -32 q 479 -18 472 -25 l 638 163 q 644 173 638 164 q 654 186 651 182 q 656 189 656 186 q 658 192 657 192 q 664 199 660 193 q 668 206 668 204 q 670 215 668 207 q 672 224 672 222 q 681 233 675 226 q 689 243 688 240 q 697 261 689 250 q 708 279 706 272 q 712 292 711 286 q 715 304 713 297 l 717 307 q 718 313 717 308 q 719 318 719 317 q 722 322 719 318 q 725 328 724 325 l 725 399 l 760 399 q 773 406 764 406 q 788 407 782 407 q 801 413 794 413 q 815 418 808 413 l 821 418 q 838 423 828 421 q 857 428 849 425 q 872 438 865 431 q 888 447 879 446 l 908 468 l 918 471 l 982 544 q 993 563 985 556 q 1001 582 1001 569 l 1001 613 q 996 633 1001 615 q 988 653 990 650 q 974 668 982 660 q 965 676 967 676 l 963 676 l 899 604 l 899 599 q 915 572 908 588 q 922 542 922 557 q 922 535 922 539 q 921 531 922 531 q 908 522 919 528 q 883 512 897 517 q 856 502 868 507 q 839 497 843 497 q 828 497 836 497 q 819 496 821 496 l 813 490 q 796 490 813 490 q 758 490 781 490 q 713 488 736 489 q 672 488 689 488 q 660 491 669 488 q 647 496 651 494 q 633 497 644 496 q 619 497 622 497 q 605 504 614 500 q 590 508 596 508 l 589 508 l 554 471 l 549 468 q 503 453 521 465 q 501 452 501 453 q 499 451 500 451 q 496 451 499 451 q 492 450 493 450 q 477 436 483 444 q 460 425 471 428 l 394 353 q 392 346 393 347 q 390 339 390 344 q 391 324 390 331 q 397 310 392 317 q 403 301 400 307 q 408 296 407 296 l 411 296 l 478 369 l 478 376 l 499 376 q 512 384 504 383 q 526 386 519 385 l 533 390 l 572 390 l 572 388 q 572 368 572 382 q 572 338 572 354 q 571 308 571 322 q 571 289 571 294 q 564 274 564 282 q 560 258 564 265 q 543 222 553 240 q 528 185 533 203 l 528 182 l 528 181 l 539 168 l 543 168 l 608 242 q 617 261 610 246 q 626 282 624 276 q 634 299 629 286 q 642 315 639 313 l 642 269 q 637 256 639 263 q 631 246 635 250 q 619 202 632 222 q 592 167 606 182 q 578 139 590 147 q 554 119 567 131 q 551 118 553 119 q 547 117 549 117 q 543 115 547 115 q 538 114 539 114 q 530 108 533 113 q 522 101 526 104 q 515 101 519 101 q 508 99 511 100 q 501 93 506 97 q 494 88 497 89 q 489 87 493 88 q 483 86 485 86 q 481 85 482 86 q 479 85 479 85 q 476 82 478 83 q 474 81 474 81 q 456 74 465 76 q 440 65 447 72 l 340 65 q 331 71 336 69 q 324 76 326 72 q 316 84 321 79 q 308 90 311 89 l 307 90 q 303 88 306 90 q 300 86 301 86 q 282 93 289 83 q 260 97 271 92 q 242 109 250 101 q 226 126 233 117 q 211 144 218 136 q 197 161 208 147 q 183 181 186 175 q 183 181 183 181 q 182 182 183 182 q 180 186 182 183 q 176 190 178 189 q 173 206 175 196 q 167 224 171 217 l 167 264 q 171 280 167 271 q 178 294 175 289 l 178 325 l 185 338 l 185 364 q 192 375 192 369 q 197 386 192 381 l 197 407 q 203 416 201 410 q 211 425 204 422 q 217 429 211 426 q 224 432 222 432 l 228 432 q 244 433 235 432 q 261 440 254 433 l 282 440 l 347 518 l 335 532 l 308 532 q 299 540 304 539 q 289 546 293 540 q 254 564 267 544 q 248 572 251 567 q 244 576 244 576 l 244 650 q 251 661 244 657 l 251 699 q 253 706 251 699 q 258 717 256 713 q 265 727 261 722 q 269 736 268 732 l 269 753 q 277 769 272 761 q 283 788 282 776 q 291 796 286 790 q 297 803 296 801 q 301 805 299 803 q 306 807 304 807 q 317 809 311 810 q 325 815 322 808 l 364 815 q 376 807 367 808 q 390 807 385 806 q 403 799 394 800 q 413 788 404 797 q 424 776 422 779 q 428 769 428 774 l 428 704 l 442 689 l 508 764 l 508 835 q 506 840 508 838 q 504 845 506 842 q 503 849 503 849 q 495 858 500 851 q 489 867 490 864 l 489 872 q 484 878 489 874 q 478 886 479 883 q 465 896 471 892 q 453 907 458 900 l 419 907 l 397 932 l 386 936 l 317 936 q 310 931 314 935 q 306 924 307 926 l 301 922 q 293 922 300 922 q 283 921 286 921 q 262 908 272 917 q 244 893 251 900 q 231 878 240 889 q 212 857 222 868 q 192 835 201 846 q 179 821 183 825 q 165 803 174 814 q 153 782 156 792 q 151 776 153 782 q 149 767 149 769 q 141 753 146 758 q 132 739 136 747 q 123 715 126 728 q 115 689 119 703 q 110 670 111 679 q 110 650 110 661 l 104 643 l 104 588 q 99 574 99 579 l 99 515 q 101 512 99 514 q 103 508 103 510 q 104 505 103 507 q 106 503 106 503 q 122 485 113 493 q 138 471 131 476 q 140 469 139 471 q 143 468 142 468 l 114 432 l 106 429 l 40 357 q 40 354 40 357 q 39 351 40 353 q 36 347 39 351 q 33 342 33 343 q 31 318 31 328 q 21 299 31 310 l 21 253 q 14 242 14 249 l 14 128 q 24 110 18 124 q 32 90 31 96 q 33 83 32 89 q 33 76 33 78 q 42 58 36 65 q 47 39 47 51 q 54 30 49 36 q 61 21 60 24 q 63 19 61 19 q 64 19 64 19 q 68 15 65 18 q 71 10 71 13 l 72 3 q 78 -5 74 0 q 83 -12 82 -10 q 92 -25 89 -18 q 103 -33 96 -32 l 147 -81 q 153 -83 147 -83 q 166 -89 158 -86 q 179 -94 174 -92 q 186 -100 181 -94 q 192 -106 192 -106 q 201 -107 194 -106 q 208 -110 207 -108 q 222 -116 215 -112 q 235 -121 228 -119 q 248 -123 238 -122 q 261 -124 258 -124 m 372 -28 l 374 -28 l 372 -29 l 371 -31 l 371 -29 q 371 -28 371 -29 q 372 -28 371 -28 m 251 -12 l 253 -12 l 254 -12 l 253 -12 l 251 -12 m 250 -7 q 251 -10 251 -7 q 250 -12 251 -12 q 247 -10 247 -12 q 250 -7 247 -7 m 242 -6 l 243 -6 l 244 -7 l 243 -7 l 242 -6 m 225 0 l 224 0 q 224 1 224 1 q 225 0 225 1 m 188 679 q 186 676 188 676 q 186 678 185 676 q 188 679 188 681 m 232 829 l 243 829 l 218 801 q 226 814 222 806 q 232 829 231 822 z "},"'":{"ha":321,"x_min":88,"x_max":203,"o":"m 88 913 q 88 911 88 913 q 89 911 88 911 l 101 894 l 106 894 l 181 983 q 183 991 181 983 q 186 1003 185 999 q 194 1038 190 1019 q 203 1072 199 1056 l 203 1131 l 196 1150 l 196 1299 l 181 1315 l 104 1226 l 104 1078 l 110 1056 l 110 1000 q 101 971 106 985 q 94 942 97 957 q 90 926 93 935 q 88 913 88 918 z "},"(":{"ha":503,"x_min":-85,"x_max":633,"o":"m 300 -326 q 134 -167 207 -258 q 26 38 61 -76 q -62 313 -40 165 q -65 606 -85 460 q 17 885 -46 751 q 182 1118 79 1018 q 318 1190 246 1164 q 465 1231 390 1215 q 460 1209 458 1219 q 465 1188 461 1199 q 472 1167 468 1178 q 476 1146 476 1157 q 482 1140 485 1149 q 488 1132 489 1138 q 493 1124 486 1126 q 493 1116 494 1121 q 497 1114 492 1111 q 519 1086 507 1097 q 525 1081 517 1078 q 531 1071 532 1076 q 538 1067 536 1072 q 546 1065 540 1063 q 546 1057 544 1063 q 540 1054 547 1051 q 535 1049 538 1051 q 535 1043 533 1047 q 508 1054 519 1039 q 503 1060 500 1051 q 495 1065 500 1065 q 493 1071 490 1064 q 476 1081 482 1072 q 465 1097 471 1090 q 460 1103 457 1094 q 455 1114 453 1107 q 450 1124 457 1121 q 440 1130 444 1131 q 431 1126 435 1129 q 422 1118 426 1122 q 413 1114 417 1114 q 401 1099 413 1103 q 385 1086 389 1096 q 366 1075 376 1079 q 353 1060 356 1071 q 338 1046 342 1056 q 321 1033 333 1036 q 291 994 310 1011 q 268 953 272 978 q 251 937 257 946 q 240 917 244 928 q 229 897 235 907 q 214 878 224 886 q 200 841 207 858 q 182 808 193 824 q 181 792 185 800 q 173 778 178 785 q 165 765 168 772 q 165 749 163 757 q 103 565 125 661 q 76 369 81 468 q 88 174 72 271 q 140 -11 104 78 q 235 -176 176 -100 q 375 -311 293 -253 q 407 -321 392 -312 q 439 -332 422 -329 q 463 -337 450 -342 q 488 -343 476 -333 q 562 -342 525 -346 q 632 -326 599 -337 q 632 -335 631 -329 q 626 -337 633 -340 q 568 -366 600 -360 q 503 -371 536 -372 q 435 -366 469 -369 q 369 -364 400 -362 q 322 -333 347 -346 q 274 -306 297 -321 l 300 -326 z "},")":{"ha":493,"x_min":-83,"x_max":444,"o":"m 171 1328 q 149 1324 158 1329 q 131 1313 139 1319 q 113 1301 122 1307 q 92 1296 104 1296 q 79 1277 81 1290 q 64 1263 78 1264 q 65 1247 61 1254 q 81 1242 69 1239 q 94 1242 86 1239 q 101 1236 103 1244 q 111 1236 107 1236 q 118 1231 115 1236 q 141 1222 129 1228 q 156 1204 153 1217 q 167 1189 163 1197 q 182 1178 171 1181 q 190 1162 188 1171 q 203 1151 192 1153 q 264 803 253 982 q 250 448 275 625 q 167 101 225 271 q 21 -219 108 -68 q 7 -232 17 -229 q -6 -246 -3 -235 q -40 -276 -21 -264 q -69 -311 -60 -289 q -75 -319 -76 -314 q -81 -326 -74 -324 q -78 -349 -83 -337 q -58 -358 -72 -361 q -21 -358 -37 -365 q 10 -336 -4 -350 q 40 -307 25 -322 q 69 -283 54 -292 q 172 -142 131 -219 q 244 19 213 -64 q 302 188 275 103 q 364 353 329 274 q 424 599 403 469 q 438 856 444 728 q 394 1103 432 983 q 278 1322 356 1224 q 260 1334 268 1326 q 240 1338 253 1342 q 227 1340 233 1336 q 214 1346 221 1343 q 200 1349 207 1349 q 188 1343 194 1349 q 164 1335 176 1335 q 144 1322 151 1335 l 171 1328 z "},"*":{"ha":519,"x_min":96,"x_max":389,"o":"m 256 1249 l 236 1240 l 242 1240 q 253 1245 247 1246 q 264 1249 258 1244 q 272 1254 265 1254 q 276 1263 278 1254 q 286 1267 282 1263 q 290 1275 290 1271 q 304 1276 296 1274 q 313 1271 313 1278 q 317 1262 319 1268 q 308 1257 314 1256 q 296 1254 299 1261 q 286 1249 293 1247 l 286 1244 q 282 1240 279 1246 q 292 1215 294 1229 q 283 1182 289 1200 q 270 1144 276 1164 q 268 1104 264 1124 q 273 1102 274 1106 q 272 1096 272 1099 q 326 1131 304 1108 q 333 1135 331 1131 q 335 1143 335 1140 q 342 1147 339 1143 q 347 1153 344 1150 q 357 1156 353 1157 q 365 1153 361 1156 q 372 1147 368 1150 q 379 1143 375 1143 q 381 1133 376 1136 q 383 1122 386 1129 l 379 1122 q 372 1117 376 1117 q 365 1113 368 1118 q 364 1108 368 1107 q 357 1108 360 1108 q 353 1104 358 1101 q 339 1099 349 1099 q 328 1095 336 1094 q 321 1086 319 1096 q 310 1060 306 1074 q 326 1035 314 1047 q 355 1016 339 1024 q 379 1007 371 1008 q 388 1003 389 1010 q 388 990 386 996 q 383 988 382 992 q 383 981 385 983 q 365 972 372 983 q 347 964 357 961 q 340 956 344 961 q 332 950 336 950 q 329 954 329 950 q 292 992 308 968 q 256 1031 275 1015 q 255 1019 254 1025 q 250 1011 256 1014 q 240 987 247 1000 q 221 963 232 974 q 197 946 210 951 q 171 946 183 940 q 163 950 169 953 q 157 954 156 947 q 138 958 147 956 q 122 968 129 961 q 111 970 114 967 q 110 979 108 974 q 115 988 111 985 q 126 990 119 992 q 167 1010 150 993 q 197 1047 183 1028 q 193 1055 200 1054 q 183 1061 186 1056 q 162 1072 175 1067 q 135 1084 149 1078 q 110 1099 121 1090 q 96 1118 100 1107 q 102 1119 99 1117 q 104 1125 106 1122 l 110 1125 q 116 1138 110 1132 q 126 1149 122 1143 q 131 1149 132 1146 q 131 1156 131 1153 l 136 1156 q 141 1155 142 1158 q 140 1149 140 1151 q 176 1126 156 1138 q 219 1113 196 1114 q 224 1115 225 1111 q 224 1122 222 1119 q 229 1140 231 1129 q 229 1161 228 1150 q 226 1167 231 1165 q 224 1175 222 1169 q 219 1176 218 1172 q 219 1183 221 1181 q 193 1196 206 1182 q 191 1203 196 1200 q 189 1210 186 1206 q 197 1213 194 1208 q 206 1214 199 1217 q 217 1221 213 1221 q 229 1226 224 1221 q 244 1233 239 1225 q 256 1249 250 1242 z "},"+":{"ha":728,"x_min":14,"x_max":639,"o":"m 268 194 l 268 192 l 282 176 l 286 176 q 300 183 293 176 l 388 183 l 450 254 l 450 256 q 436 278 450 267 q 419 299 422 289 q 418 310 418 306 q 413 319 418 315 l 413 457 l 472 457 l 481 465 l 517 465 q 522 470 518 467 q 526 474 525 474 l 569 474 l 635 543 q 638 556 638 547 q 639 569 639 565 q 638 576 639 572 q 638 579 638 579 l 624 593 l 592 561 q 581 560 588 561 q 568 556 575 558 q 551 554 565 556 q 533 553 538 553 q 518 547 524 553 l 413 547 l 413 688 l 481 763 l 481 767 l 467 778 l 465 778 q 461 775 465 778 q 456 772 457 772 q 447 772 453 772 q 438 771 440 771 q 431 768 433 769 q 426 767 429 767 q 418 771 419 767 l 369 771 q 351 763 363 764 q 329 757 340 761 q 314 749 322 754 q 297 743 306 744 l 235 674 l 235 669 l 247 657 l 268 657 q 277 667 271 661 q 290 674 283 672 l 290 667 q 288 658 290 661 q 285 649 285 654 l 285 539 q 277 538 282 539 q 271 535 272 536 l 268 533 q 249 532 263 532 q 231 532 235 532 q 219 529 225 532 l 215 525 q 199 524 208 524 q 186 517 190 524 l 117 517 l 51 446 l 51 440 l 21 404 q 16 394 18 399 q 14 383 14 390 l 14 381 l 26 368 l 86 431 l 135 431 q 151 438 142 438 q 168 438 161 438 q 175 443 171 439 l 218 443 q 228 450 221 450 l 285 450 l 285 421 l 290 413 l 290 269 q 285 260 288 267 q 281 246 283 254 q 278 230 279 238 q 276 219 278 222 q 272 207 275 213 q 268 194 268 201 z "},",":{"ha":308,"x_min":11,"x_max":225,"o":"m 11 -217 l 26 -231 l 28 -231 q 32 -228 31 -231 q 47 -217 38 -225 q 57 -210 57 -210 l 151 -115 q 159 -102 154 -108 q 169 -89 164 -96 q 193 -51 181 -72 q 211 -10 206 -29 q 216 12 214 1 q 225 33 218 22 l 225 151 l 214 165 l 210 165 q 181 156 194 165 q 153 144 168 146 l 82 74 l 82 69 l 96 57 l 100 57 q 119 63 111 57 q 138 68 128 68 l 138 -18 q 132 -29 132 -24 q 126 -43 132 -36 q 121 -70 126 -56 q 108 -100 115 -85 q 93 -128 101 -115 q 76 -149 85 -140 l 11 -217 z "},"-":{"ha":844,"x_min":107,"x_max":749,"o":"m 278 353 q 289 343 285 346 q 303 340 293 340 q 310 342 307 340 q 318 346 313 344 q 331 347 321 346 q 343 347 340 347 q 358 353 350 353 q 374 357 367 354 l 379 358 q 392 360 382 360 q 404 360 401 360 q 426 369 413 367 q 449 375 439 372 q 453 376 450 375 q 456 379 456 378 q 488 382 467 381 q 518 393 510 383 l 565 393 q 572 396 568 393 q 578 399 575 399 l 674 399 l 749 468 l 735 482 l 638 482 q 632 480 635 482 q 626 476 629 478 l 578 476 q 576 476 578 476 q 572 474 574 475 q 545 465 560 467 q 515 461 531 464 q 509 459 513 461 q 504 457 506 457 q 496 456 501 457 q 489 456 490 456 q 475 449 482 453 q 461 443 468 444 q 450 443 460 443 q 440 442 442 443 q 417 435 429 440 q 393 429 406 429 l 386 429 l 435 475 q 438 482 438 481 l 438 483 l 425 496 l 421 496 q 404 490 411 496 q 383 490 396 490 q 364 483 372 490 q 346 482 353 483 q 333 478 339 481 q 321 474 328 476 q 304 467 314 471 l 326 489 l 313 501 q 311 503 313 503 q 310 503 310 503 q 290 492 301 503 q 272 478 279 481 q 250 467 261 474 q 242 461 247 465 q 235 457 236 457 q 226 453 233 456 q 217 450 218 450 q 208 443 215 449 q 199 436 200 438 q 194 435 197 436 q 190 433 192 433 q 188 432 190 433 q 186 429 186 431 l 110 360 q 107 356 107 360 l 107 353 l 119 342 l 121 342 l 124 342 q 128 344 125 342 q 132 346 132 346 q 140 346 135 346 q 147 347 146 346 q 158 352 154 349 q 169 358 163 356 q 203 374 185 365 q 240 381 221 383 q 265 393 249 388 q 293 399 282 399 l 303 399 q 287 381 296 388 q 278 360 278 375 l 278 353 z "},".":{"ha":358,"x_min":11,"x_max":206,"o":"m 69 13 l 69 -12 q 74 -17 69 -12 q 82 -24 79 -21 q 83 -24 82 -24 q 86 -25 85 -25 l 88 -25 q 95 -20 93 -25 q 103 -18 97 -15 l 126 7 l 140 -6 l 206 63 l 206 67 q 203 75 206 72 q 199 83 201 78 q 186 121 190 97 l 185 125 q 179 133 183 128 q 174 139 175 138 q 163 159 168 146 q 146 172 157 172 q 141 170 143 172 q 136 167 139 168 l 129 165 q 124 160 128 165 q 118 156 119 156 l 115 154 l 96 135 l 76 135 l 11 67 l 25 53 l 43 53 l 56 39 q 59 24 54 31 q 69 13 64 17 z "},"/":{"ha":1011,"x_min":14,"x_max":938,"o":"m 58 -394 l 69 -410 l 82 -410 l 111 -394 q 132 -383 121 -386 q 151 -371 143 -379 q 159 -364 154 -368 q 165 -358 164 -360 q 192 -341 178 -349 q 218 -326 206 -333 q 244 -295 233 -307 q 272 -268 254 -283 q 290 -256 281 -261 q 306 -243 299 -251 q 317 -231 314 -236 q 328 -222 321 -226 l 458 -51 q 461 -44 460 -49 q 464 -36 463 -39 q 487 -5 475 -24 q 503 33 499 14 l 524 64 q 526 69 524 65 q 528 74 528 72 q 535 86 529 76 q 543 97 542 96 l 543 104 q 560 126 554 117 q 575 149 567 135 q 585 172 582 161 q 600 196 589 183 l 600 197 q 595 210 600 206 q 586 221 590 215 l 583 221 q 565 215 572 221 q 550 206 558 208 q 540 205 547 206 q 531 204 533 204 q 519 199 529 204 q 504 192 510 194 l 503 190 q 492 188 500 189 q 483 188 485 188 q 472 181 476 185 q 461 172 467 176 q 445 165 454 165 q 428 161 436 164 q 420 156 425 160 q 411 153 415 153 l 408 154 q 416 162 410 156 q 429 176 422 168 q 442 189 436 183 q 450 194 449 194 l 476 224 q 488 235 483 229 q 500 249 493 242 q 525 272 513 261 q 550 299 538 283 l 553 300 q 559 306 556 303 q 563 311 563 310 l 654 429 q 678 453 669 435 q 700 478 686 471 l 781 583 q 785 598 782 594 q 793 610 789 601 q 794 614 793 611 q 794 618 794 617 q 809 644 799 626 q 819 669 819 663 l 818 671 l 807 686 l 794 686 q 789 678 793 683 q 782 671 785 674 q 776 670 782 671 q 769 669 771 669 q 764 662 768 667 q 758 654 760 657 l 736 654 q 722 647 729 647 q 707 638 714 646 l 683 638 l 679 629 l 658 629 q 647 622 654 622 q 635 614 640 622 q 624 615 632 615 q 613 613 615 614 q 601 605 610 611 q 590 597 593 599 q 579 597 589 597 q 569 596 571 597 q 558 589 567 596 q 547 582 550 582 q 540 581 547 582 q 529 579 533 579 l 528 579 l 688 796 q 703 826 694 813 q 721 854 713 839 q 722 861 722 860 q 722 869 721 863 q 732 895 726 883 q 744 918 738 907 q 765 965 756 942 q 788 1011 775 988 q 791 1014 789 1011 q 793 1018 793 1017 q 799 1033 799 1025 q 803 1049 800 1042 q 816 1073 810 1061 q 829 1099 822 1085 q 843 1127 838 1114 q 860 1156 849 1140 q 866 1172 861 1167 q 874 1188 871 1176 l 875 1197 q 881 1206 876 1199 q 885 1214 885 1213 q 888 1225 888 1219 l 908 1253 q 910 1258 908 1253 q 911 1265 911 1263 q 918 1281 914 1274 q 924 1297 922 1289 q 924 1304 924 1299 q 925 1313 924 1311 q 933 1325 928 1318 q 938 1339 938 1332 l 936 1340 l 925 1354 l 918 1354 l 900 1332 q 866 1309 882 1324 q 832 1283 850 1294 l 813 1257 l 793 1257 q 788 1252 789 1250 q 782 1249 788 1254 q 757 1226 768 1238 q 735 1204 746 1215 q 732 1203 735 1204 q 728 1201 729 1201 q 725 1201 728 1201 q 722 1199 722 1200 q 712 1193 719 1197 q 703 1186 704 1189 q 694 1185 701 1186 q 686 1183 688 1185 q 676 1176 681 1181 q 664 1168 671 1171 l 643 1168 q 628 1160 642 1167 q 611 1153 614 1154 q 603 1150 608 1150 l 543 1069 q 542 1068 542 1069 q 542 1068 542 1068 q 544 1060 542 1063 q 547 1054 546 1057 q 544 1047 544 1051 q 553 1018 544 1028 l 553 915 q 547 897 549 911 q 542 865 544 882 q 537 831 540 847 q 528 808 533 814 l 528 753 l 517 735 q 514 704 517 721 q 504 676 511 688 l 504 647 q 496 628 499 640 q 490 607 493 615 q 480 587 485 599 q 472 563 475 575 l 450 532 q 447 531 449 532 q 446 531 446 531 q 432 514 439 522 q 417 500 425 506 l 354 418 l 354 414 q 358 408 354 413 q 365 400 363 403 l 369 399 l 400 399 q 415 404 406 399 q 426 413 424 410 l 465 413 q 481 422 472 421 q 497 422 490 424 l 503 429 q 517 430 503 429 q 538 431 531 431 l 539 431 l 514 393 l 513 390 q 497 365 506 376 q 482 339 489 353 l 439 278 l 436 274 l 404 231 l 400 229 l 369 190 q 368 189 369 190 q 365 188 367 188 q 361 184 364 186 q 358 182 358 182 l 326 142 q 322 138 324 139 q 318 133 319 136 l 257 51 l 257 47 q 260 42 257 47 q 267 33 264 36 q 274 31 269 31 q 281 31 278 31 l 288 31 q 303 38 296 39 q 319 39 311 38 q 324 41 321 39 q 328 43 328 43 q 339 46 331 44 q 350 47 347 47 q 368 54 361 50 q 386 58 375 58 l 386 57 q 383 49 386 57 q 378 38 381 40 q 362 14 371 25 q 346 -11 353 3 l 346 -21 q 342 -28 343 -28 q 340 -39 340 -28 l 321 -65 q 319 -72 321 -69 q 315 -79 318 -75 q 288 -129 301 -106 q 257 -175 275 -153 q 240 -186 251 -176 q 224 -201 229 -196 q 214 -214 222 -204 q 203 -226 206 -224 q 195 -227 201 -226 q 188 -228 189 -228 q 180 -237 185 -229 q 169 -244 175 -244 l 149 -268 l 132 -268 q 122 -276 131 -271 q 105 -287 114 -282 q 88 -297 96 -292 q 76 -301 79 -301 l 14 -383 l 14 -387 l 24 -401 q 25 -402 24 -401 q 28 -403 26 -403 q 43 -394 38 -403 q 58 -386 49 -386 l 60 -387 q 58 -394 58 -389 m 413 -62 q 408 -71 411 -65 q 403 -78 404 -76 q 403 -76 401 -78 q 408 -70 406 -74 q 411 -65 410 -67 q 413 -62 413 -62 m 375 -51 q 376 -53 376 -51 q 375 -54 376 -54 q 372 -53 372 -54 q 375 -51 372 -51 m 418 35 l 418 33 q 417 33 417 32 q 418 35 417 36 m 424 51 l 424 49 l 424 51 z "},":":{"ha":276,"x_min":14,"x_max":214,"o":"m 22 22 q 38 6 29 15 q 50 -12 47 -4 q 52 -18 51 -14 q 53 -22 53 -22 q 59 -28 54 -24 q 67 -35 64 -32 q 76 -42 71 -37 q 88 -46 81 -46 l 89 -46 l 115 -22 l 117 -22 q 120 -28 119 -22 q 121 -33 121 -33 q 128 -41 124 -36 q 135 -46 133 -46 l 138 -46 l 213 25 q 213 26 213 25 q 214 28 214 26 q 203 53 214 39 q 185 76 192 67 q 183 81 185 78 q 181 85 181 85 q 158 106 174 96 q 131 122 142 115 l 129 122 q 118 119 122 122 q 110 113 114 115 q 106 116 108 114 q 100 118 103 118 l 99 118 l 22 47 l 22 22 m 60 310 l 60 285 q 65 278 60 283 q 75 271 71 274 l 79 269 l 81 269 l 83 269 l 118 300 l 119 300 q 120 297 119 299 q 121 296 121 296 q 129 289 124 293 q 135 285 135 285 l 138 285 l 213 353 q 213 356 213 354 q 214 357 214 357 q 210 369 214 364 q 204 382 207 375 q 203 385 204 383 q 201 386 201 386 l 167 421 q 157 424 164 421 q 149 428 150 426 q 139 433 142 431 q 129 436 136 436 l 110 421 l 107 421 q 98 423 101 421 q 90 425 94 425 l 89 424 l 14 353 l 14 350 q 28 334 24 340 q 44 318 33 328 l 46 318 q 50 321 50 318 q 56 315 53 318 q 60 310 58 313 z "},";":{"ha":294,"x_min":14,"x_max":208,"o":"m 14 -275 l 26 -289 l 28 -289 q 41 -285 29 -289 q 53 -281 53 -281 l 142 -183 q 144 -180 142 -183 q 147 -174 146 -176 q 149 -172 149 -174 q 149 -171 149 -171 l 175 -140 q 180 -124 175 -131 q 188 -110 185 -118 q 194 -89 192 -99 q 203 -71 196 -79 l 203 28 q 197 43 203 32 q 190 60 192 54 q 188 69 188 65 q 185 82 188 75 q 180 88 183 83 q 176 93 176 92 q 175 99 175 94 q 175 104 175 103 q 172 110 175 107 q 163 128 169 117 q 147 139 156 139 l 146 139 l 117 111 l 114 110 q 104 106 110 106 l 36 32 l 36 28 l 47 15 l 50 15 q 72 23 61 15 q 89 39 82 31 q 92 26 88 31 q 101 15 96 22 q 105 2 104 8 q 108 -11 106 -4 l 110 -17 q 111 -29 111 -24 q 117 -39 111 -35 l 117 -124 q 113 -133 113 -128 q 110 -144 113 -139 q 104 -157 107 -149 q 98 -174 101 -165 q 90 -190 94 -183 q 82 -199 86 -197 l 14 -272 l 14 -275 m 57 265 q 66 253 61 260 q 74 239 71 246 q 76 233 75 238 q 78 228 76 229 q 83 220 79 225 q 89 215 88 215 l 93 215 l 124 247 q 124 241 122 244 q 125 235 125 238 q 132 227 128 232 q 136 222 136 222 l 140 222 l 208 297 l 208 328 q 202 344 208 335 q 192 358 196 354 q 185 366 189 361 q 179 372 181 371 q 174 374 179 374 q 168 375 168 374 q 158 383 160 379 q 147 386 156 386 l 144 386 l 57 292 l 57 265 z "},"=":{"ha":739,"x_min":26,"x_max":658,"o":"m 33 418 l 44 403 l 46 403 l 49 403 q 57 405 50 403 q 67 407 64 407 q 94 417 79 414 q 125 426 110 421 q 144 429 139 429 q 163 439 151 429 l 279 439 q 301 449 286 446 q 326 454 317 453 l 360 454 q 367 459 361 454 q 376 464 374 464 q 390 466 383 465 q 403 474 397 467 l 449 474 q 469 478 460 478 q 490 485 479 479 q 524 492 507 488 q 560 500 542 496 q 563 501 560 500 q 568 503 565 503 q 571 506 569 503 q 572 510 572 510 l 589 510 l 658 599 l 658 603 l 646 619 l 638 619 q 626 616 629 619 q 615 613 622 613 q 581 603 597 607 q 546 593 564 599 q 525 590 535 590 q 504 585 515 589 l 456 585 q 444 577 450 578 q 432 575 439 576 q 424 570 431 575 q 415 565 417 565 q 399 565 413 565 q 383 564 386 565 q 358 560 372 563 q 335 549 343 557 l 219 549 q 201 540 208 540 q 181 538 194 540 q 158 530 169 535 q 135 522 146 525 q 117 521 128 522 q 101 513 107 519 l 33 424 l 33 418 m 26 608 l 39 590 l 40 590 q 53 598 47 590 q 67 613 60 606 q 75 623 68 613 q 83 633 82 633 q 100 647 92 643 q 115 660 108 650 l 310 660 q 342 668 325 668 q 374 674 358 668 q 379 674 376 674 q 383 675 382 675 q 391 676 385 675 q 405 677 397 676 q 419 678 413 678 q 426 679 425 679 q 453 685 440 681 q 476 696 465 690 l 497 696 q 502 699 499 696 q 507 703 506 703 q 519 703 510 703 q 531 704 528 704 l 599 794 l 599 797 l 588 814 l 578 814 q 567 815 571 814 q 558 813 563 815 q 556 810 558 813 q 551 808 553 808 q 543 808 550 808 q 535 804 536 807 q 526 801 532 804 q 519 797 521 797 q 479 790 499 792 q 438 786 460 789 q 433 786 438 786 q 428 785 429 786 q 423 783 428 785 q 417 781 418 781 q 392 778 403 778 q 365 769 381 778 l 167 769 q 153 756 160 761 q 140 746 147 751 q 117 725 129 739 q 94 708 106 711 l 26 619 l 26 608 z "},"?":{"ha":851,"x_min":63,"x_max":744,"o":"m 247 -93 l 278 -122 l 321 -83 l 322 -83 q 332 -85 328 -83 q 340 -86 336 -86 l 346 -86 l 411 -25 l 411 -22 q 407 -17 411 -21 q 400 -11 403 -14 q 386 -8 393 -8 q 374 -4 381 -8 q 363 5 371 -1 q 351 14 354 11 l 347 14 l 328 31 q 319 35 325 32 q 310 38 313 38 l 307 38 l 303 36 l 276 14 q 268 19 272 19 l 204 -43 q 210 -56 204 -47 q 222 -72 215 -64 q 237 -85 229 -79 q 247 -93 244 -92 m 254 163 l 254 149 l 268 136 l 335 200 l 335 232 l 360 257 q 360 258 360 257 q 361 261 360 260 q 362 265 361 261 q 363 269 363 268 q 365 277 363 272 q 367 283 367 282 q 370 289 368 285 q 374 296 372 293 q 375 298 374 297 q 376 299 376 299 q 380 308 379 303 q 383 315 381 313 l 411 344 q 421 365 414 356 q 432 385 428 374 l 463 417 l 463 422 q 472 433 465 425 q 482 443 479 442 q 489 451 488 447 q 494 460 490 456 q 510 468 500 464 q 522 475 519 472 l 590 539 l 590 542 l 581 553 l 576 553 q 567 549 571 553 q 546 549 557 549 q 529 542 536 549 l 506 542 q 496 547 503 547 q 488 545 490 547 q 481 542 485 543 q 474 541 479 542 q 465 540 468 540 l 457 533 q 440 525 450 529 q 419 521 429 521 l 383 503 l 375 497 l 426 547 q 432 557 426 554 l 500 624 l 508 626 l 544 661 l 550 663 l 615 725 l 615 728 l 601 742 l 597 742 q 589 738 592 742 l 554 738 q 533 728 549 735 q 514 719 518 721 q 506 715 510 717 q 499 714 503 714 l 494 714 q 508 724 494 715 q 525 733 521 732 q 538 738 529 736 q 550 744 546 740 q 558 748 551 744 q 564 753 564 751 q 581 757 569 756 q 596 761 593 758 q 603 767 599 763 q 610 771 607 771 q 618 776 611 772 q 633 785 625 781 q 647 792 640 789 q 654 796 654 796 l 718 857 q 726 875 717 868 q 739 892 735 882 q 739 901 740 897 q 744 910 738 906 l 744 964 q 743 969 744 967 q 739 974 742 971 q 733 992 736 982 q 729 1013 729 1003 q 722 1023 724 1018 q 715 1035 719 1028 q 679 1075 700 1056 q 672 1080 676 1078 q 665 1085 668 1082 q 651 1094 658 1088 q 636 1106 643 1101 q 632 1106 636 1106 q 629 1107 629 1106 q 625 1109 628 1107 q 621 1113 622 1111 q 608 1118 614 1117 q 599 1122 603 1119 q 592 1130 596 1125 q 586 1135 588 1135 q 583 1137 586 1135 q 578 1139 579 1139 l 574 1143 l 550 1143 q 542 1149 546 1147 q 532 1154 538 1151 l 492 1154 q 478 1148 486 1147 q 465 1143 471 1149 l 418 1143 q 415 1141 418 1143 q 408 1139 411 1139 q 407 1138 408 1139 q 406 1136 406 1138 q 394 1135 403 1136 q 383 1135 386 1135 q 373 1131 376 1135 q 364 1125 369 1128 q 356 1124 363 1124 q 347 1122 349 1124 q 340 1120 342 1122 q 333 1114 338 1118 l 331 1113 q 321 1111 328 1111 q 313 1111 315 1111 q 304 1105 311 1108 q 294 1100 297 1101 q 287 1099 293 1100 q 279 1097 281 1099 q 273 1093 278 1097 q 268 1088 268 1089 q 247 1076 257 1082 q 228 1063 236 1071 l 124 965 q 122 964 124 964 q 122 963 122 964 q 117 955 122 961 q 111 947 111 949 q 94 922 101 935 q 76 899 86 910 q 75 896 76 897 q 74 893 74 894 q 68 883 71 889 q 63 874 65 878 l 63 833 q 67 828 63 832 q 74 822 71 825 q 84 817 74 822 q 107 807 94 813 q 130 797 119 801 q 140 792 140 792 l 178 792 q 181 793 179 792 q 183 794 183 794 q 188 795 185 794 q 190 796 190 796 q 198 802 192 797 q 206 807 204 807 q 214 808 208 808 q 224 808 221 808 q 236 816 226 811 q 249 821 246 821 l 315 885 l 303 897 l 282 897 q 278 901 282 897 q 276 904 278 903 q 275 907 275 906 q 269 913 274 908 q 264 918 265 918 q 263 930 261 925 q 257 940 264 935 l 257 957 q 260 961 260 957 l 260 963 l 249 974 l 246 974 l 178 908 l 178 888 q 181 883 179 886 q 183 879 182 881 q 183 877 183 879 q 182 874 182 875 l 181 874 l 178 875 q 172 880 176 876 q 167 885 168 883 q 158 886 165 885 q 150 888 151 888 q 146 890 149 889 q 143 893 143 892 l 143 921 q 148 932 146 926 q 154 943 150 938 q 160 951 157 947 q 167 960 164 954 q 185 989 175 975 q 214 1010 194 1003 q 219 1012 217 1013 q 224 1013 221 1011 q 231 1018 225 1014 q 236 1022 236 1022 q 251 1027 239 1025 q 265 1029 263 1029 q 283 1037 274 1032 q 303 1047 293 1042 q 322 1047 311 1047 q 343 1053 335 1047 l 390 1053 l 397 1047 l 433 1047 q 448 1038 436 1044 q 465 1029 460 1032 q 471 1029 465 1029 q 478 1028 476 1029 q 481 1026 479 1028 q 485 1024 482 1025 q 498 1010 488 1021 q 511 999 508 1000 q 523 983 518 996 q 529 967 528 971 q 533 949 531 960 q 542 932 535 938 l 542 903 q 547 893 542 900 q 556 882 551 886 l 556 847 q 549 839 549 844 q 547 828 550 833 q 526 797 544 813 q 493 781 508 782 l 465 758 q 458 753 464 757 q 451 749 453 750 q 443 744 449 747 q 435 739 438 740 q 424 733 432 736 l 390 701 q 365 686 375 696 q 342 672 356 676 l 271 603 l 271 600 q 275 596 271 600 q 282 589 279 592 q 289 588 283 588 q 297 588 294 588 l 301 588 l 307 592 q 325 597 315 596 q 343 600 335 599 q 364 606 353 603 q 386 611 375 608 q 388 613 386 613 q 390 613 390 613 q 404 621 397 617 q 419 625 411 625 l 388 589 q 386 588 386 589 q 386 588 386 588 q 385 583 386 586 q 383 578 383 579 q 372 567 378 572 q 364 556 367 563 q 363 553 364 554 q 361 551 361 551 q 340 526 350 540 q 321 500 329 513 q 313 479 317 490 q 303 460 308 468 q 292 447 299 454 q 286 431 285 439 l 274 418 l 274 406 l 286 393 l 313 417 q 341 430 328 422 q 368 443 354 438 q 385 448 378 444 q 400 451 392 451 q 387 438 397 449 q 374 424 376 428 l 371 419 q 361 410 368 418 q 351 401 354 403 q 350 397 351 400 q 347 393 349 393 q 340 385 346 390 q 333 376 335 379 q 326 363 329 371 q 318 351 322 356 q 314 344 318 349 q 308 340 310 340 q 300 314 301 328 q 285 290 299 300 l 285 271 q 274 251 278 264 q 268 231 269 239 q 266 224 267 229 q 265 217 265 218 l 261 211 q 256 187 257 200 q 254 163 254 174 m 474 639 l 461 628 q 467 634 463 632 q 474 639 471 636 m 475 706 q 471 701 474 701 l 469 701 q 475 706 469 706 m 485 710 q 479 706 485 706 l 478 706 q 485 710 481 710 m 610 832 q 602 824 607 831 q 594 818 597 818 q 595 820 593 818 q 601 826 597 822 q 607 831 604 829 q 610 832 610 833 z "},"@":{"ha":1386,"x_min":54,"x_max":1317,"o":"m 693 -154 q 709 -160 703 -154 q 724 -168 715 -165 q 751 -174 738 -172 q 779 -178 764 -175 q 803 -183 790 -179 q 829 -187 817 -186 q 843 -190 832 -189 q 857 -190 854 -190 q 879 -194 869 -193 q 901 -196 889 -196 l 922 -196 q 940 -190 932 -193 q 957 -183 947 -186 q 976 -173 961 -181 q 993 -162 990 -165 q 999 -160 999 -162 q 1003 -156 1000 -158 q 1007 -154 1007 -154 l 1106 -67 l 1106 -64 l 1092 -50 l 1088 -50 q 1045 -81 1064 -69 q 996 -103 1026 -93 q 990 -106 994 -104 q 985 -108 986 -107 l 964 -108 q 943 -106 953 -108 q 922 -103 933 -104 q 909 -102 919 -103 q 896 -101 899 -101 q 870 -96 883 -100 q 843 -90 857 -92 q 829 -89 840 -89 q 815 -87 818 -89 q 791 -80 800 -85 q 768 -69 782 -75 q 754 -65 761 -65 q 739 -60 747 -64 q 735 -58 739 -60 q 732 -54 732 -56 q 723 -53 729 -54 q 715 -53 717 -53 q 710 -51 714 -51 q 704 -49 707 -50 q 697 -44 701 -46 q 689 -42 692 -42 q 674 -37 675 -37 q 664 -31 674 -36 q 650 -24 657 -26 q 635 -18 643 -21 q 629 -15 633 -17 q 624 -12 625 -14 l 607 4 q 581 13 596 10 q 556 22 567 15 q 533 38 544 29 q 508 50 521 46 q 471 81 489 67 q 433 111 453 94 q 430 119 431 115 q 428 129 429 124 q 419 138 425 131 q 410 146 413 144 q 395 166 404 153 q 383 186 386 179 q 383 193 383 188 q 381 200 382 199 q 376 204 381 200 q 372 210 372 208 q 369 212 371 210 q 367 214 368 214 q 351 244 360 229 q 332 272 343 260 q 330 276 331 274 q 329 278 329 278 q 327 288 326 283 q 325 299 328 293 l 299 347 q 298 349 299 347 q 296 353 297 351 q 294 357 296 353 q 290 363 292 361 q 285 383 288 371 q 281 407 283 394 q 276 430 279 419 q 267 447 272 440 l 267 513 q 261 524 267 518 q 260 526 261 525 q 260 528 260 526 l 260 586 l 267 594 l 267 636 l 274 646 l 274 686 q 280 701 274 694 q 289 717 286 708 q 290 726 289 718 q 293 735 292 733 q 298 741 294 736 q 303 747 301 746 q 309 765 308 754 q 314 783 310 776 q 316 787 314 785 q 319 790 318 789 q 326 804 322 797 q 331 819 329 811 q 340 828 333 821 q 350 838 347 835 q 352 842 350 839 q 354 846 354 844 l 381 871 q 406 880 396 871 q 429 892 415 889 q 436 892 431 892 q 446 893 443 892 q 466 903 457 896 q 486 914 475 911 q 493 915 486 914 q 500 917 500 915 q 506 918 501 917 q 513 922 510 919 q 517 924 514 922 q 521 926 519 926 q 528 928 521 926 q 538 931 536 929 q 552 937 546 933 q 567 940 558 940 l 761 940 q 784 938 772 940 q 807 931 796 935 q 813 928 807 928 q 828 927 815 928 q 844 926 842 926 q 856 919 849 924 q 867 914 864 915 q 875 913 868 913 q 885 911 883 913 q 889 909 886 911 q 893 906 892 907 q 896 905 893 906 q 900 904 899 904 l 931 876 q 970 863 946 874 q 1004 840 994 851 q 1018 826 1007 838 q 1033 811 1029 814 q 1035 806 1033 811 q 1041 796 1038 801 q 1047 785 1044 790 q 1050 778 1050 779 q 1058 769 1053 775 q 1065 760 1064 763 q 1067 753 1065 758 q 1068 747 1068 749 q 1071 743 1068 746 q 1074 739 1074 740 q 1076 728 1075 736 q 1076 717 1076 719 q 1083 711 1079 717 q 1090 703 1088 706 l 1092 700 q 1095 696 1093 699 q 1097 693 1097 693 q 1099 685 1099 692 q 1100 676 1100 678 q 1101 674 1100 676 q 1103 671 1101 672 q 1107 667 1104 671 q 1111 664 1110 664 q 1114 651 1114 657 q 1118 639 1114 646 q 1119 635 1118 638 q 1121 633 1121 633 l 1121 593 l 1128 586 l 1128 479 q 1127 478 1128 479 q 1125 475 1126 476 q 1122 469 1124 474 q 1121 465 1121 465 l 1121 371 q 1116 364 1118 368 q 1114 357 1114 360 l 1114 315 q 1108 308 1113 313 q 1101 303 1103 304 q 1098 289 1097 296 q 1093 275 1099 282 q 1084 261 1092 274 q 1076 249 1076 249 l 978 249 q 972 254 978 250 q 964 258 965 258 q 955 260 961 260 q 947 261 949 261 q 935 270 936 264 q 929 283 935 276 q 924 288 929 283 q 917 294 918 293 q 916 303 917 296 q 915 310 915 310 q 913 314 914 311 q 910 318 911 317 l 910 414 q 913 419 910 417 q 917 421 915 421 l 917 457 q 919 463 917 458 q 922 468 922 467 q 924 485 924 476 q 931 501 924 494 q 931 517 931 506 q 933 532 932 529 q 939 547 933 535 q 947 560 944 558 q 948 574 947 563 q 949 589 949 586 q 949 592 949 590 q 950 594 950 593 q 951 598 950 596 q 953 600 953 600 q 955 613 956 608 q 961 625 954 618 l 961 744 q 941 766 947 753 q 922 790 935 779 q 899 801 911 797 q 879 811 888 804 l 828 811 q 823 810 828 811 q 815 808 818 808 q 814 806 815 807 q 813 806 813 806 q 803 803 810 804 q 794 801 796 803 q 788 797 793 800 q 782 793 783 793 q 771 791 779 792 q 761 790 763 790 q 745 784 753 789 q 729 778 738 779 q 717 776 724 775 q 704 775 711 778 q 702 774 704 775 q 699 771 700 772 l 678 771 q 676 769 678 771 q 672 768 674 768 q 665 763 671 767 q 657 756 660 758 l 635 756 q 613 747 629 749 q 586 740 596 746 q 578 734 585 739 q 569 728 571 729 q 567 726 568 726 q 565 725 565 725 l 486 657 q 479 638 486 643 l 479 613 l 493 599 l 524 599 q 526 594 524 599 q 529 588 529 590 q 535 568 533 581 q 542 550 538 556 q 549 542 544 547 q 556 538 554 538 l 558 538 l 635 608 l 635 626 q 630 638 629 633 q 628 651 631 643 l 624 657 q 622 665 622 660 q 622 674 622 671 q 620 676 622 674 q 618 679 618 678 q 622 683 618 683 l 642 683 l 650 690 l 672 690 q 697 702 682 699 q 724 706 711 706 l 728 706 l 729 706 l 742 697 q 753 697 744 697 q 765 696 763 696 q 774 694 768 696 q 779 690 779 692 l 779 561 q 777 560 779 561 q 772 557 775 558 q 746 542 760 550 q 718 529 732 535 q 698 522 708 525 q 678 514 688 519 l 675 513 q 667 512 674 513 q 660 511 661 511 q 646 501 651 507 q 629 492 640 494 l 553 421 l 551 419 q 543 410 550 417 q 536 401 536 403 q 528 381 529 392 q 522 363 526 371 q 519 356 521 360 q 518 351 518 351 l 518 294 q 535 264 531 279 q 575 226 554 244 q 624 201 596 208 q 644 193 636 199 q 668 188 651 188 q 674 188 669 188 q 678 189 678 189 q 691 193 685 194 q 707 196 697 192 q 713 200 707 196 q 719 204 718 204 q 722 206 721 206 q 724 207 724 207 q 727 209 725 208 q 729 210 729 210 q 737 217 731 213 q 744 224 743 222 q 759 231 753 228 q 774 240 765 233 q 787 226 781 236 q 800 210 793 217 q 817 201 808 203 q 835 194 826 199 q 847 185 844 188 q 858 179 850 182 q 901 148 882 157 q 953 138 921 139 q 978 132 963 132 q 985 132 982 132 q 992 139 989 132 l 1036 139 q 1051 147 1043 146 q 1065 153 1058 147 l 1096 178 q 1108 185 1104 179 q 1119 194 1113 192 l 1197 264 q 1201 269 1200 267 q 1206 274 1203 272 q 1213 281 1207 275 q 1226 292 1219 286 q 1238 304 1232 299 q 1246 313 1243 310 q 1257 333 1249 325 q 1269 354 1265 342 q 1276 378 1274 365 q 1286 403 1279 392 q 1292 438 1285 422 q 1307 471 1300 454 q 1308 476 1307 472 q 1310 481 1310 479 q 1310 506 1310 488 q 1311 529 1311 524 l 1317 538 l 1317 646 q 1310 665 1310 654 q 1310 686 1310 676 q 1299 703 1301 693 q 1292 721 1297 714 q 1280 742 1286 732 q 1269 765 1274 753 l 1243 793 q 1232 806 1238 801 q 1219 819 1226 811 q 1199 847 1207 833 q 1174 868 1192 860 l 1168 874 l 1129 906 q 1117 913 1122 908 q 1106 922 1113 918 q 1073 939 1088 929 q 1039 957 1058 949 q 1037 958 1038 957 q 1036 958 1036 958 q 1031 960 1035 958 q 1028 964 1028 963 q 1002 974 1015 969 q 976 985 989 978 q 964 992 971 988 q 951 997 957 996 q 942 999 950 999 q 933 1001 935 1000 q 922 1009 926 1004 q 910 1014 917 1014 q 893 1015 906 1015 q 876 1015 881 1015 q 867 1019 874 1017 q 853 1024 861 1022 q 837 1026 844 1025 q 826 1028 829 1028 l 629 1028 q 617 1024 629 1028 q 599 1019 606 1021 l 594 1018 q 586 1015 592 1015 q 570 1015 583 1015 q 553 1014 557 1014 l 499 990 q 474 982 483 988 q 453 974 465 976 q 445 972 451 972 q 438 971 439 971 q 434 969 436 971 q 432 968 432 968 q 428 967 431 967 l 403 946 q 384 940 392 947 q 367 931 376 933 l 260 833 q 250 824 257 831 q 240 814 243 818 l 169 749 l 169 742 l 149 721 q 127 688 142 701 q 108 654 113 675 q 108 646 108 653 q 107 639 108 639 q 101 632 107 638 q 94 625 96 626 l 94 619 q 92 610 93 617 q 92 603 92 603 q 89 599 92 601 q 86 594 86 596 q 85 588 85 593 q 83 579 85 582 q 81 577 83 579 q 79 574 79 575 q 78 572 79 574 q 78 568 78 569 q 77 557 78 565 q 75 546 76 549 q 72 538 72 543 q 69 529 71 533 q 69 512 69 526 q 68 492 68 497 q 61 471 61 481 q 57 450 61 461 q 55 447 56 449 q 54 446 54 446 l 54 338 q 61 322 61 331 q 65 308 61 315 q 67 305 65 307 q 68 303 68 303 q 74 280 71 289 q 78 258 76 271 q 86 244 86 250 l 107 222 q 112 209 106 213 q 122 200 118 206 q 123 193 122 199 q 124 186 124 188 l 136 174 q 146 160 142 167 q 154 147 150 154 q 165 136 160 142 q 176 124 171 131 q 180 117 179 119 q 183 111 181 115 q 194 102 190 106 q 203 93 199 99 q 212 85 206 92 q 221 76 218 79 q 226 62 224 69 q 232 49 228 54 q 250 33 239 40 q 269 21 261 26 q 285 10 276 21 q 299 -4 294 0 q 346 -37 321 -22 q 393 -71 371 -51 q 414 -79 404 -72 q 432 -90 424 -86 q 443 -96 438 -94 q 456 -100 449 -97 q 488 -115 472 -107 q 524 -128 504 -124 q 540 -134 533 -129 q 556 -139 546 -139 q 597 -147 578 -143 q 632 -168 617 -151 q 647 -172 639 -169 q 661 -174 654 -174 l 664 -174 l 686 -154 l 693 -154 m 656 306 l 628 332 q 622 347 626 336 q 615 360 618 357 l 615 408 q 620 420 615 413 q 628 431 625 428 q 644 438 636 435 q 661 443 653 440 q 670 448 667 446 q 678 453 674 450 q 707 467 693 460 q 736 479 721 474 q 754 485 744 483 q 772 492 764 488 l 772 450 q 765 431 765 439 q 765 411 765 422 l 757 397 l 757 283 q 744 278 749 281 q 731 275 740 275 q 713 280 718 275 q 699 288 708 285 q 690 289 697 288 q 681 292 682 290 q 668 298 674 293 q 656 306 663 303 m 1172 300 q 1174 299 1174 300 q 1172 299 1174 299 q 1171 299 1171 299 q 1172 300 1171 300 m 1219 524 l 1221 529 l 1221 481 l 1219 479 l 1219 524 z "},"A":{"ha":1176,"x_min":15,"x_max":1804,"o":"m 1239 -619 q 1265 -627 1251 -626 q 1293 -633 1278 -628 q 1297 -635 1294 -635 q 1299 -636 1299 -636 l 1468 -636 q 1493 -628 1479 -628 q 1514 -618 1507 -629 l 1544 -618 q 1553 -610 1551 -610 q 1564 -607 1554 -610 q 1576 -598 1571 -604 q 1589 -589 1581 -592 q 1599 -587 1590 -587 q 1610 -587 1607 -587 l 1714 -486 l 1714 -476 l 1778 -412 q 1784 -402 1779 -410 q 1793 -386 1789 -394 q 1801 -370 1797 -378 q 1804 -360 1804 -362 l 1804 -351 l 1786 -333 l 1681 -333 q 1663 -339 1669 -337 q 1646 -340 1657 -340 q 1628 -337 1636 -340 q 1608 -333 1619 -333 l 1606 -333 l 1503 -433 l 1503 -439 q 1510 -447 1503 -442 q 1522 -456 1517 -453 q 1541 -465 1533 -462 q 1560 -467 1549 -467 q 1578 -465 1571 -467 q 1596 -458 1585 -464 l 1660 -458 q 1649 -470 1657 -461 q 1639 -482 1642 -479 q 1617 -490 1628 -489 q 1593 -494 1607 -492 q 1572 -502 1588 -496 q 1550 -511 1556 -508 l 1386 -511 q 1371 -505 1379 -506 q 1355 -503 1363 -504 q 1340 -501 1347 -503 q 1326 -493 1332 -500 l 1283 -493 q 1258 -482 1274 -483 q 1232 -482 1243 -481 q 1213 -474 1222 -479 q 1196 -462 1203 -469 l 1168 -462 l 1143 -440 l 1132 -440 q 1124 -433 1131 -439 q 1108 -416 1118 -426 q 1093 -400 1099 -406 q 1083 -388 1089 -396 q 1070 -372 1076 -381 q 1059 -354 1064 -362 q 1053 -340 1054 -346 q 1052 -335 1053 -339 q 1051 -329 1051 -331 q 1042 -314 1049 -321 q 1032 -300 1036 -307 q 1019 -277 1025 -287 q 1004 -256 1013 -267 q 994 -233 997 -246 q 982 -214 992 -221 l 982 -181 q 970 -160 972 -174 q 967 -139 968 -147 l 963 -132 q 962 -107 963 -119 q 951 -85 961 -94 l 951 69 q 955 78 951 74 q 961 85 958 82 l 961 113 q 975 112 964 111 q 989 114 986 113 q 994 117 990 114 q 1000 121 999 121 q 1007 124 1003 124 l 1108 225 q 1117 238 1113 231 q 1122 253 1122 244 q 1120 258 1122 254 q 1118 261 1118 261 l 1118 263 l 1118 264 q 1135 281 1126 271 q 1143 304 1143 290 l 1143 307 q 1142 311 1143 310 q 1142 313 1142 313 l 1106 346 l 1101 346 l 1000 247 l 1000 239 q 981 238 990 239 q 963 231 971 236 l 963 283 q 966 292 963 288 q 972 299 969 296 l 972 343 l 981 356 l 981 497 q 973 517 981 506 q 963 536 965 529 q 956 564 958 549 q 947 590 954 579 q 938 599 944 592 q 931 607 932 606 q 929 618 929 608 q 928 629 929 628 q 919 639 928 631 q 910 649 911 647 q 897 670 903 660 q 883 692 890 681 q 851 733 868 711 q 813 768 833 754 q 801 774 807 772 q 788 779 794 775 q 778 788 786 781 q 768 796 771 794 q 756 799 765 799 q 744 800 747 800 l 715 829 l 701 829 q 691 840 699 832 q 681 850 683 847 l 675 851 q 672 855 674 853 q 668 857 669 857 q 648 858 663 857 q 631 860 633 860 q 619 864 628 861 q 608 868 610 867 q 572 869 586 871 q 540 878 558 867 l 442 878 l 428 889 l 315 889 q 319 906 315 896 q 326 922 324 915 q 335 934 329 928 q 342 947 342 940 l 342 950 l 324 967 l 319 967 l 211 863 q 195 833 204 847 q 186 800 186 818 l 186 793 q 190 789 186 793 q 197 782 194 785 q 206 769 200 776 q 213 761 213 761 l 340 761 q 344 760 340 761 q 350 757 349 758 q 355 754 353 756 q 358 753 357 753 l 454 753 q 478 744 465 746 q 503 741 490 742 q 527 739 515 740 q 551 732 539 738 l 389 572 q 381 565 385 568 q 381 554 378 561 l 238 411 l 274 375 l 275 375 q 287 379 281 375 q 299 381 293 383 l 324 401 q 340 407 332 399 q 358 415 349 415 q 360 414 358 415 q 364 413 363 413 l 365 413 q 378 418 371 413 q 393 424 386 424 q 394 424 393 424 q 396 422 396 424 q 399 418 397 421 q 401 415 401 415 q 399 413 401 415 q 396 408 397 410 q 388 399 393 406 q 381 390 382 393 q 378 373 382 381 q 370 358 375 365 q 362 342 365 350 q 361 326 358 335 l 342 301 l 342 297 l 321 272 q 320 264 324 265 q 317 257 317 263 l 317 256 l 319 253 q 318 251 319 251 q 317 250 317 250 q 297 236 306 244 q 278 225 289 228 l 240 190 l 224 207 l 250 233 l 250 247 q 243 254 250 247 q 231 264 236 261 q 217 274 224 271 q 203 278 211 278 q 200 277 201 278 q 199 276 199 276 l 94 176 q 89 167 93 172 q 82 160 85 163 l 82 124 q 88 114 82 121 q 103 101 94 107 q 120 90 111 94 q 135 85 129 85 l 136 85 l 171 114 q 167 106 169 113 q 164 97 165 100 l 164 94 l 164 92 l 186 72 l 239 121 q 241 122 239 121 q 244 124 243 124 q 248 127 244 125 q 251 129 251 129 q 274 133 263 135 q 292 142 285 132 l 350 142 q 343 131 349 138 q 331 118 338 125 q 321 104 325 111 q 319 92 317 97 l 299 69 q 299 62 300 65 q 294 56 297 58 q 290 51 292 54 q 290 43 288 47 q 266 15 275 29 q 244 -12 257 0 q 242 -26 247 -21 q 233 -33 236 -31 q 234 -37 233 -33 q 233 -42 235 -40 q 215 -67 226 -53 q 197 -90 204 -82 l 197 -100 q 187 -111 190 -107 q 182 -119 183 -115 q 179 -128 181 -124 q 174 -139 178 -133 q 163 -151 171 -142 q 151 -164 154 -161 l 151 -167 l 199 -210 l 221 -189 l 222 -189 l 224 -189 q 224 -192 224 -189 q 225 -197 225 -194 l 225 -199 q 219 -205 224 -200 q 211 -215 215 -210 q 203 -224 207 -219 q 199 -231 200 -229 q 190 -250 196 -235 q 186 -271 185 -265 q 167 -290 175 -282 q 157 -311 160 -297 q 145 -333 154 -319 q 138 -354 136 -346 l 126 -369 l 126 -375 q 106 -407 114 -390 q 86 -442 97 -424 q 72 -465 83 -447 q 47 -503 60 -483 q 25 -538 35 -522 q 15 -556 15 -554 l 15 -557 l 50 -590 l 228 -415 q 244 -389 231 -408 q 273 -348 258 -369 q 299 -308 288 -326 q 308 -283 310 -289 q 315 -274 311 -281 q 321 -265 319 -268 q 331 -253 325 -260 q 335 -242 338 -247 l 347 -224 q 349 -216 346 -221 q 355 -206 351 -211 q 362 -197 358 -201 q 367 -192 365 -193 l 367 -183 q 371 -174 367 -178 q 385 -159 376 -167 q 396 -142 393 -151 q 398 -131 399 -136 q 399 -122 397 -126 q 402 -116 400 -115 q 401 -112 404 -117 q 420 -90 413 -101 q 439 -67 428 -78 l 439 -58 q 459 -33 450 -46 q 481 -4 468 -21 l 481 -1 l 447 29 l 446 29 l 444 29 l 442 28 l 436 29 l 435 29 l 433 29 q 431 28 432 29 q 428 28 429 28 q 426 28 428 28 q 422 29 424 29 l 421 29 q 407 26 414 29 q 393 21 400 24 q 400 27 396 22 q 407 33 404 32 q 416 45 410 39 q 419 56 422 51 l 447 92 l 447 93 l 447 94 q 444 100 447 100 l 457 114 q 461 129 454 119 q 472 142 468 139 l 483 142 q 510 134 499 142 q 535 124 522 126 q 558 122 542 122 q 582 121 575 121 l 596 113 l 783 113 l 796 103 l 832 103 l 832 7 q 829 1 829 4 q 825 -6 826 -1 q 824 -12 824 -11 l 824 -176 l 833 -186 l 833 -224 q 842 -246 843 -233 q 853 -265 842 -258 l 853 -307 q 865 -319 858 -310 q 872 -336 871 -329 q 874 -347 874 -339 q 875 -356 875 -354 q 892 -370 882 -367 q 904 -386 901 -374 q 905 -392 904 -387 q 907 -397 906 -397 q 918 -417 910 -403 q 929 -439 926 -432 q 947 -465 936 -451 q 964 -492 957 -478 q 967 -496 965 -493 q 971 -499 969 -499 l 1025 -551 q 1055 -572 1040 -558 q 1083 -587 1069 -585 q 1094 -587 1086 -587 q 1106 -589 1104 -587 q 1126 -598 1117 -592 q 1146 -607 1135 -604 q 1162 -608 1149 -607 q 1178 -608 1175 -608 q 1183 -611 1179 -608 q 1189 -614 1188 -614 q 1214 -619 1200 -619 q 1239 -619 1228 -619 m 672 249 l 619 249 q 604 256 613 253 q 589 267 596 260 l 558 267 l 571 283 l 571 292 q 590 311 575 296 q 608 331 604 326 q 612 337 610 333 q 614 342 614 340 q 615 344 615 342 q 614 349 614 347 q 617 352 615 350 q 619 356 619 354 q 627 365 621 358 q 635 374 633 371 l 635 375 l 603 410 l 601 410 l 600 410 q 597 409 599 410 q 596 408 596 408 q 592 409 594 408 q 589 410 590 410 l 588 410 q 572 406 581 410 q 558 397 564 401 q 556 398 557 397 q 554 399 554 399 l 553 399 q 541 397 546 399 q 532 394 536 394 l 532 401 l 551 426 l 551 432 l 571 460 q 576 483 568 472 q 592 503 585 493 l 593 504 l 592 506 l 589 508 l 592 514 q 592 522 596 518 l 611 547 l 611 549 l 611 550 l 610 554 q 611 560 610 556 q 614 564 613 564 l 656 606 l 619 640 l 618 640 q 615 639 617 640 q 611 638 613 638 l 608 640 l 607 640 l 606 640 l 600 638 q 597 639 599 638 q 596 640 596 640 l 594 640 l 592 640 q 590 639 592 640 q 586 638 588 638 l 582 640 l 581 640 l 579 640 q 576 639 578 640 q 574 638 574 638 q 571 639 572 638 q 568 640 569 640 l 567 640 l 565 640 q 564 639 565 640 q 561 638 563 638 q 560 636 561 636 q 558 636 558 636 l 558 640 l 571 656 l 571 663 l 614 704 l 646 676 q 663 672 651 672 q 683 664 675 671 q 694 653 690 657 q 710 651 699 650 q 747 612 729 633 q 776 567 765 590 q 780 558 778 564 q 783 553 782 553 q 792 542 785 550 q 800 532 800 535 q 802 524 801 531 q 803 514 803 517 q 812 504 804 511 q 821 494 819 497 q 824 488 822 493 q 825 482 825 483 q 829 478 826 481 q 833 475 832 476 l 833 447 q 844 431 843 440 q 850 415 844 422 l 850 276 l 843 265 l 843 239 l 683 239 l 672 249 z "},"B":{"ha":926,"x_min":4,"x_max":899,"o":"m 350 -314 l 354 -318 q 359 -322 357 -319 q 361 -324 361 -324 l 525 -324 q 534 -321 528 -324 q 544 -314 540 -318 l 594 -314 q 598 -312 594 -314 q 601 -310 601 -311 q 610 -301 603 -308 q 619 -294 618 -294 q 632 -292 622 -293 q 644 -292 642 -292 q 648 -290 646 -292 q 651 -289 650 -289 q 685 -262 668 -278 q 721 -244 701 -247 l 822 -129 q 827 -117 824 -122 q 833 -104 831 -111 l 869 -58 q 872 -36 869 -46 q 876 -18 874 -26 q 881 -1 879 -10 q 882 21 883 8 l 888 31 q 890 54 889 42 q 899 78 890 67 l 899 363 q 897 370 899 364 q 894 379 896 376 q 893 383 894 381 q 892 385 892 385 q 890 401 890 388 q 888 418 889 415 q 885 426 888 421 q 881 432 883 431 l 881 489 q 878 496 881 490 q 875 506 876 501 q 874 509 875 507 q 872 511 872 511 q 862 562 869 539 q 850 611 854 585 l 850 619 q 833 657 843 635 q 811 694 822 679 q 789 719 800 708 q 768 743 778 729 l 804 786 q 822 840 804 817 l 822 904 q 819 913 822 915 q 815 922 817 911 q 810 957 813 936 q 797 990 807 978 q 780 1017 789 1003 q 760 1047 771 1032 q 738 1072 750 1061 q 713 1088 726 1083 q 707 1089 711 1089 q 685 1106 696 1099 q 664 1122 675 1114 q 635 1135 650 1129 q 608 1151 619 1140 q 595 1152 606 1151 q 582 1154 585 1153 q 575 1158 579 1154 q 571 1163 571 1163 l 357 1163 q 348 1159 353 1163 q 340 1153 343 1156 l 283 1153 q 264 1144 272 1153 q 244 1132 256 1135 q 229 1131 240 1132 q 215 1129 218 1129 l 183 1096 l 176 1096 l 151 1068 l 143 1068 l 7 911 q 4 899 4 908 q 4 888 4 889 q 9 867 4 879 q 21 845 14 856 q 37 827 28 835 q 54 819 46 819 q 63 819 54 819 q 74 818 71 818 q 83 819 76 818 q 89 819 89 819 l 186 933 l 165 956 l 118 899 q 113 902 117 897 q 106 914 110 907 q 99 928 101 921 q 96 936 96 935 q 103 950 96 938 q 116 973 110 963 q 124 985 122 983 q 128 992 125 988 q 133 996 132 996 l 169 996 q 186 1006 172 999 q 203 1014 200 1014 l 272 1014 l 283 1025 l 361 1025 l 267 915 l 263 899 l 263 285 q 259 280 261 283 q 257 275 257 276 q 253 269 256 272 q 251 267 251 267 l 251 53 l 215 8 l 215 -4 q 222 -13 215 -6 q 231 -24 228 -21 q 238 -26 233 -26 q 246 -26 243 -26 q 256 -22 253 -26 q 265 -18 260 -18 l 311 -18 q 332 -26 319 -26 l 336 -26 l 435 85 l 422 104 l 422 106 q 426 118 422 110 q 429 139 429 126 q 428 147 429 140 q 428 156 428 153 q 422 172 422 164 l 422 872 q 430 888 431 879 q 433 907 429 897 q 437 917 435 910 q 439 925 439 925 l 439 1025 l 481 1025 q 501 1015 488 1014 q 525 1013 515 1015 q 555 998 538 1010 q 585 979 572 986 q 597 976 590 976 q 607 972 603 975 q 613 965 608 971 q 619 957 618 958 q 626 954 621 956 q 633 953 632 953 q 637 951 635 951 q 639 950 639 950 q 657 924 650 938 q 675 896 664 911 q 679 889 675 894 q 683 882 683 883 q 685 865 688 871 q 693 853 682 858 l 693 819 l 703 808 l 703 781 q 694 780 700 781 q 685 778 688 779 l 676 771 q 666 769 675 769 q 656 768 657 768 q 652 765 656 767 q 647 761 649 763 q 644 760 646 761 q 642 758 643 758 q 623 757 639 758 q 601 756 607 756 l 592 747 l 564 747 l 465 632 l 479 613 l 463 589 l 503 460 l 535 471 q 522 544 522 519 q 527 580 521 568 q 544 596 533 592 q 564 608 554 600 l 675 608 q 694 589 686 596 q 711 564 703 582 q 724 538 717 556 q 732 519 732 521 l 732 489 q 741 475 738 485 q 747 454 744 465 q 750 432 749 443 q 751 415 751 421 q 757 408 753 414 q 761 399 761 401 l 761 335 l 771 324 l 771 288 q 779 272 779 282 l 779 -7 q 772 -36 772 -21 q 761 -64 771 -51 l 761 -99 q 756 -104 758 -100 q 751 -110 753 -108 q 751 -122 751 -112 q 749 -132 750 -131 q 743 -137 749 -133 q 735 -142 738 -140 q 730 -147 735 -143 q 724 -153 725 -151 q 694 -157 710 -151 q 668 -175 678 -162 l 618 -175 q 611 -182 615 -178 q 603 -186 607 -186 l 450 -186 q 440 -178 446 -179 q 428 -176 433 -178 q 413 -176 424 -176 q 389 -176 401 -176 q 365 -175 376 -175 q 350 -175 354 -175 q 309 -160 335 -164 q 267 -153 283 -156 q 249 -144 258 -151 q 229 -133 240 -136 q 216 -133 222 -133 q 204 -126 210 -132 l 161 -79 q 160 -73 161 -78 q 158 -67 158 -68 q 145 -44 156 -62 q 124 8 135 -25 l 118 139 l 139 188 l 222 219 l 204 238 l 203 239 q 194 235 201 239 q 180 226 188 231 q 165 215 172 221 q 158 208 158 210 l 118 208 l 24 97 q 22 94 24 96 q 21 92 21 92 q 13 81 19 89 q 4 69 7 72 l 4 -85 q 13 -108 14 -96 q 18 -132 11 -121 q 35 -155 25 -140 q 47 -186 44 -169 l 92 -235 q 113 -252 106 -239 q 131 -269 119 -265 q 158 -276 146 -274 q 183 -292 171 -279 q 201 -292 189 -292 q 218 -294 213 -293 q 225 -296 224 -294 q 228 -299 226 -296 q 231 -301 231 -301 q 250 -304 242 -304 q 265 -314 258 -304 l 350 -314 z "},"C":{"ha":872,"x_min":32,"x_max":1397,"o":"m 576 -567 q 586 -572 579 -568 q 597 -576 593 -576 l 788 -576 l 806 -567 l 899 -567 l 914 -554 l 967 -554 q 990 -542 976 -543 q 1017 -535 1004 -542 q 1020 -534 1017 -535 q 1025 -532 1024 -533 q 1037 -531 1028 -532 q 1049 -529 1046 -531 q 1092 -510 1071 -524 q 1133 -486 1114 -496 q 1163 -470 1151 -476 q 1192 -450 1175 -464 l 1290 -369 q 1317 -340 1297 -364 q 1355 -291 1336 -317 q 1385 -246 1374 -265 q 1389 -231 1397 -226 q 1355 -253 1368 -240 q 1328 -281 1342 -267 q 1297 -312 1314 -296 q 1250 -347 1279 -329 q 1228 -357 1243 -351 q 1195 -367 1213 -362 q 1162 -377 1178 -372 q 1139 -383 1146 -382 q 1121 -387 1133 -385 q 1096 -393 1108 -390 q 1072 -400 1083 -396 q 1057 -408 1061 -404 l 1004 -408 l 993 -419 l 901 -419 l 882 -431 l 694 -431 l 676 -419 l 608 -419 q 574 -403 599 -408 q 536 -394 549 -397 q 509 -385 524 -393 q 481 -367 494 -376 q 454 -353 467 -358 q 433 -349 442 -347 q 418 -332 425 -339 q 401 -318 411 -325 q 395 -316 400 -318 q 389 -312 390 -314 q 365 -284 374 -301 q 333 -262 356 -267 l 293 -219 q 285 -201 290 -210 q 273 -185 279 -193 q 262 -169 267 -178 q 257 -149 257 -161 q 246 -134 254 -146 q 235 -119 238 -122 q 226 -103 228 -110 q 222 -85 225 -96 q 220 -76 222 -82 q 217 -67 218 -69 q 209 -55 214 -60 q 201 -43 204 -50 q 197 -26 199 -35 q 190 -8 196 -17 q 189 18 190 -1 q 188 44 188 38 q 185 58 186 51 q 178 71 185 65 l 178 129 l 189 142 l 189 261 q 190 269 189 263 q 193 279 192 276 q 196 289 193 281 q 202 306 199 297 q 208 322 206 314 q 211 332 211 329 q 212 348 211 335 q 214 364 213 361 q 216 372 214 365 q 219 382 218 378 q 233 409 225 396 q 246 438 242 422 q 247 449 246 439 q 249 461 249 458 q 254 473 251 469 q 264 483 257 476 q 267 489 265 486 q 269 493 269 492 q 272 506 269 496 q 275 519 274 517 q 294 556 282 539 q 317 589 306 572 q 324 607 322 599 q 331 625 326 615 q 342 634 332 628 q 364 647 351 640 q 388 658 376 653 q 404 665 400 664 q 431 677 414 668 q 454 686 447 686 l 626 686 q 646 676 635 682 q 664 665 657 669 q 681 662 668 663 q 694 653 694 661 l 694 651 l 526 483 l 524 478 l 439 390 q 433 378 433 385 l 433 375 q 444 365 436 372 q 454 356 451 358 q 465 349 460 349 q 475 351 468 349 q 490 358 482 354 q 504 366 497 363 q 513 371 511 369 l 556 371 q 592 385 574 385 l 592 381 q 587 363 592 374 q 575 342 582 353 q 561 321 568 331 q 550 306 554 311 q 542 288 544 297 q 533 269 539 278 q 519 249 525 257 q 508 233 513 240 q 502 215 504 225 q 500 189 500 206 l 500 176 l 521 156 l 526 156 l 644 274 q 645 289 644 276 q 647 306 646 301 q 649 317 647 308 q 653 329 650 325 q 666 344 656 332 q 679 358 676 356 q 687 381 676 371 q 703 399 697 390 q 704 405 703 400 q 706 411 706 410 q 724 438 713 425 q 738 467 735 451 q 740 480 739 469 q 740 493 740 490 q 745 499 742 494 q 750 504 749 503 l 750 507 q 742 525 750 518 q 726 539 733 532 q 721 540 725 539 q 714 540 717 540 q 677 529 694 540 q 640 518 660 518 q 634 519 638 518 q 629 519 631 519 l 711 601 l 735 581 l 856 700 l 856 750 q 847 759 856 751 q 835 771 839 767 q 831 772 833 771 q 829 774 829 774 q 822 778 826 775 q 817 782 818 781 q 805 793 814 785 q 793 803 796 801 q 781 808 792 804 q 767 813 769 811 q 746 824 757 817 q 724 832 735 832 l 550 832 q 525 824 539 832 q 500 813 511 815 q 489 809 497 810 q 478 806 481 808 q 431 776 454 790 q 383 744 407 763 q 381 743 382 744 q 378 742 379 742 l 260 625 q 255 615 258 619 q 249 607 251 610 q 238 596 246 604 q 222 579 231 588 q 206 563 214 571 q 196 551 199 554 q 171 503 185 526 q 143 457 157 481 q 133 428 136 443 q 122 399 129 414 q 116 390 122 397 q 108 382 110 383 q 103 364 103 372 q 100 346 103 357 q 83 307 94 325 q 67 267 71 289 q 66 251 67 264 q 64 235 65 238 q 61 224 64 232 q 56 208 58 217 q 50 192 53 200 q 47 182 47 183 l 42 165 l 42 50 l 32 39 l 32 -37 q 34 -41 32 -37 q 38 -46 36 -44 q 42 -53 42 -50 l 42 -111 q 51 -130 53 -121 q 56 -151 49 -139 q 64 -162 57 -154 q 74 -172 71 -169 q 76 -181 74 -178 q 78 -197 76 -185 q 79 -214 79 -210 l 111 -251 q 117 -275 111 -264 q 131 -297 124 -286 q 144 -316 138 -307 q 149 -333 150 -325 l 182 -365 q 196 -383 182 -369 q 226 -410 210 -396 q 256 -435 242 -424 q 272 -447 269 -446 q 278 -453 274 -449 q 286 -460 283 -457 q 303 -474 290 -462 q 319 -489 315 -486 q 342 -496 331 -493 q 363 -506 353 -499 q 376 -517 365 -508 q 389 -526 386 -525 q 406 -532 397 -532 q 421 -539 414 -532 q 464 -546 440 -540 q 504 -561 488 -551 q 509 -565 506 -562 q 513 -567 513 -567 l 576 -567 z "},"D":{"ha":904,"x_min":19,"x_max":872,"o":"m 204 -339 q 224 -352 215 -342 q 240 -368 232 -362 q 246 -370 240 -369 q 253 -371 251 -371 q 264 -379 256 -374 q 276 -389 272 -385 l 442 -389 l 447 -386 q 490 -370 468 -374 q 532 -351 513 -367 q 540 -346 535 -351 q 549 -339 546 -340 q 560 -335 551 -337 q 571 -331 568 -332 q 581 -324 574 -331 q 589 -315 588 -317 q 594 -312 590 -314 q 599 -310 597 -310 l 719 -182 l 722 -178 l 774 -117 q 783 -100 776 -107 q 793 -85 789 -93 q 799 -69 797 -78 q 806 -53 801 -60 q 820 -32 813 -43 q 831 -10 828 -21 q 836 14 833 0 q 842 42 839 28 q 851 67 846 56 q 863 86 856 79 l 863 140 q 867 147 863 142 q 872 156 871 153 l 872 326 q 869 335 872 329 q 863 343 865 340 l 863 449 l 854 465 q 853 494 854 483 q 844 519 851 506 q 844 549 843 532 q 833 576 844 565 l 828 610 q 819 628 824 615 q 810 656 814 642 q 804 683 807 669 q 801 706 801 697 q 800 711 801 708 q 799 715 799 714 q 788 733 792 726 q 780 745 783 739 q 774 759 776 751 q 765 779 771 767 q 750 808 760 797 q 728 833 740 819 q 724 837 726 835 q 719 839 721 839 l 631 839 q 629 838 631 839 q 626 836 628 836 q 615 827 624 833 q 603 818 606 821 l 565 818 l 490 740 l 490 772 l 521 807 l 496 833 l 493 833 q 481 829 486 833 q 468 819 475 825 l 372 722 q 331 705 357 706 q 285 701 306 704 q 249 697 265 699 q 211 694 232 694 l 179 694 q 172 696 176 694 q 164 699 167 697 q 160 700 163 699 q 158 701 158 701 q 150 709 156 704 q 144 715 144 714 l 144 760 l 158 760 l 193 726 l 296 836 l 296 849 q 289 857 296 850 q 276 867 282 864 q 271 872 276 868 q 264 878 265 876 q 256 883 261 879 q 247 890 250 888 l 204 890 l 171 863 q 156 855 164 863 q 144 844 147 847 l 29 722 q 19 694 29 708 l 19 618 q 28 606 19 615 q 42 593 38 597 q 67 574 57 579 q 96 561 76 568 l 129 561 q 185 565 157 561 q 242 572 214 569 q 250 574 244 572 q 257 575 256 575 q 286 587 275 581 q 313 600 297 593 l 363 649 l 363 482 l 371 465 l 371 235 q 366 227 369 233 q 363 218 363 221 l 363 -61 l 272 -157 l 293 -178 l 372 -178 l 385 -169 l 453 -169 l 556 -58 l 535 -36 l 492 -36 l 497 -28 l 497 18 l 490 28 l 490 300 l 497 310 l 497 554 q 494 563 497 557 q 490 572 492 569 l 490 688 l 526 688 q 540 698 532 697 q 556 706 549 699 l 626 706 q 635 696 631 706 q 644 674 640 686 q 652 649 649 661 q 658 635 656 638 q 666 622 660 632 q 674 610 672 613 q 677 597 676 607 q 676 582 678 586 q 686 567 688 575 q 688 549 685 558 q 692 542 688 546 q 696 536 696 538 l 696 522 q 699 517 697 521 q 703 513 701 514 q 704 511 703 513 q 706 508 706 510 q 706 494 706 506 q 707 481 707 483 l 717 469 l 717 429 q 728 403 726 419 q 728 376 729 388 l 736 358 l 736 244 l 744 235 l 744 74 q 735 39 736 58 q 735 4 735 19 q 718 -43 724 -19 q 706 -92 713 -67 l 699 -99 q 695 -105 699 -100 q 690 -112 692 -110 q 680 -133 686 -119 q 667 -160 674 -146 q 654 -187 661 -175 q 639 -203 647 -199 q 633 -205 638 -204 q 626 -206 628 -206 q 618 -215 625 -207 q 610 -224 611 -222 q 606 -224 608 -224 q 600 -225 603 -225 q 594 -226 599 -225 q 589 -228 590 -228 q 583 -232 588 -229 q 578 -236 579 -235 q 547 -243 567 -240 q 518 -257 528 -246 l 368 -257 q 359 -250 365 -256 q 350 -244 353 -244 q 344 -241 349 -243 q 338 -239 339 -239 q 322 -224 328 -232 q 304 -214 317 -217 l 247 -151 q 215 -83 235 -115 q 196 -11 196 -51 q 197 -3 196 -8 q 197 1 197 1 l 304 118 l 282 142 l 228 89 l 217 85 l 176 43 l 171 42 l 69 -64 l 69 -85 q 76 -140 69 -119 q 96 -192 83 -160 q 97 -196 97 -192 q 107 -209 101 -203 q 115 -225 113 -215 q 119 -236 117 -228 q 122 -246 121 -244 q 140 -266 129 -256 q 157 -289 151 -276 l 204 -339 z "},"E":{"ha":1092,"x_min":25,"x_max":2044,"o":"m 1308 -575 q 1333 -585 1315 -585 l 1418 -585 l 1429 -575 l 1465 -575 q 1472 -569 1467 -574 q 1479 -564 1476 -564 l 1647 -564 q 1666 -553 1654 -554 q 1688 -540 1678 -553 l 1728 -540 q 1734 -537 1728 -540 q 1743 -532 1740 -535 q 1749 -526 1744 -531 q 1756 -518 1754 -521 l 1796 -518 q 1822 -497 1811 -503 q 1853 -485 1833 -492 q 1872 -473 1864 -481 q 1889 -461 1881 -465 l 1996 -351 q 2010 -333 1997 -349 q 2029 -308 2022 -317 q 2040 -294 2035 -303 q 2044 -278 2044 -286 l 2044 -172 q 2040 -166 2042 -169 q 2038 -157 2038 -162 l 1983 -101 l 1961 -92 q 1940 -90 1958 -90 q 1913 -89 1922 -89 q 1894 -89 1906 -89 q 1874 -90 1885 -89 q 1855 -91 1864 -90 q 1844 -92 1846 -92 q 1819 -94 1836 -92 q 1785 -100 1803 -97 q 1753 -106 1768 -103 q 1733 -110 1738 -108 l 1725 -112 l 1618 -226 q 1617 -229 1617 -226 q 1620 -236 1617 -232 q 1626 -243 1624 -240 q 1614 -256 1624 -246 q 1601 -269 1604 -267 q 1600 -272 1601 -269 q 1599 -275 1599 -274 q 1585 -297 1594 -283 q 1575 -314 1576 -311 q 1568 -323 1574 -317 q 1561 -331 1563 -329 q 1560 -333 1561 -331 q 1560 -339 1560 -336 q 1560 -342 1560 -340 q 1561 -344 1561 -344 l 1581 -364 l 1583 -364 l 1693 -253 q 1698 -243 1694 -244 q 1708 -239 1701 -242 q 1736 -234 1718 -237 q 1756 -231 1754 -231 l 1871 -231 q 1894 -244 1879 -231 q 1910 -269 1910 -258 l 1910 -357 q 1906 -358 1908 -357 q 1903 -360 1904 -360 q 1890 -370 1900 -362 q 1878 -381 1881 -378 l 1838 -381 l 1815 -401 l 1771 -401 q 1762 -411 1767 -408 q 1751 -415 1757 -414 q 1741 -418 1746 -417 q 1731 -425 1736 -419 l 1569 -425 q 1563 -427 1568 -425 q 1554 -432 1557 -429 q 1526 -437 1540 -439 q 1503 -446 1513 -435 l 1422 -446 q 1413 -442 1419 -446 q 1407 -436 1407 -437 l 1360 -436 l 1347 -425 l 1231 -425 l 1211 -414 q 1185 -415 1200 -417 q 1158 -401 1169 -414 l 1086 -401 q 1066 -390 1079 -389 q 1043 -386 1053 -390 q 1026 -378 1035 -383 q 1010 -371 1018 -374 q 994 -368 1000 -367 q 982 -360 989 -369 q 926 -344 954 -361 q 922 -341 926 -344 q 917 -336 918 -337 q 887 -328 900 -331 q 861 -312 874 -326 l 821 -312 q 802 -298 814 -306 q 779 -282 790 -290 q 738 -276 760 -282 q 700 -258 717 -271 l 661 -253 q 647 -245 654 -249 q 635 -235 640 -242 l 597 -235 q 583 -225 590 -224 q 565 -224 576 -226 q 559 -219 564 -222 q 553 -214 554 -215 q 534 -206 549 -212 q 503 -192 519 -200 q 474 -175 488 -183 q 458 -160 461 -167 l 390 -132 q 392 -130 390 -132 q 393 -126 393 -128 q 394 -110 393 -124 q 396 -93 394 -96 q 400 -86 396 -92 q 404 -79 404 -81 q 411 -49 408 -64 q 426 -24 414 -35 l 426 11 q 437 25 438 18 q 439 43 436 32 q 443 51 442 51 q 446 60 446 51 l 446 192 l 428 211 q 422 213 428 213 q 409 210 414 213 q 396 206 404 208 l 396 208 q 398 215 396 210 q 403 228 400 221 q 410 242 407 236 q 414 251 413 249 q 415 263 414 254 q 417 275 415 272 q 431 304 422 292 q 439 336 439 317 q 447 342 439 336 q 466 354 456 347 q 485 367 476 361 q 494 372 493 372 q 502 374 496 372 q 510 375 508 375 q 515 379 511 375 q 519 383 519 383 q 533 387 526 386 q 547 392 540 388 q 551 374 546 382 q 567 358 557 365 q 587 347 576 351 q 606 343 597 343 l 700 343 q 688 336 692 342 q 683 324 685 331 q 678 312 681 318 q 669 303 676 306 q 658 293 665 296 q 650 283 650 290 q 640 268 643 278 q 644 251 638 258 q 663 267 653 261 q 685 278 674 274 l 689 278 q 689 285 690 281 q 694 289 688 290 q 701 300 694 296 q 708 313 707 304 q 726 356 726 333 l 838 474 l 838 479 l 819 499 l 818 499 q 810 497 817 499 q 798 492 804 494 q 785 486 792 489 q 778 482 779 483 l 694 482 q 685 490 690 482 q 672 508 679 499 q 658 525 665 517 q 642 533 650 533 q 633 530 636 533 q 625 525 631 526 q 614 523 624 524 q 601 522 604 522 q 597 518 600 521 q 592 514 593 515 q 580 512 589 514 q 568 508 571 510 q 549 493 556 504 q 531 479 542 482 l 461 408 l 461 489 l 468 501 l 468 542 q 474 549 469 544 q 478 557 478 554 q 478 558 478 557 q 479 560 479 558 q 472 576 479 571 q 458 589 464 582 l 454 589 q 442 585 447 589 q 431 576 436 581 q 421 566 426 571 q 407 561 415 561 l 407 564 q 424 590 415 574 q 438 621 433 606 q 438 631 438 622 q 439 642 439 640 q 442 648 439 643 q 446 654 446 653 q 448 674 449 664 q 458 692 447 683 q 463 725 458 711 q 478 756 467 739 l 478 819 q 473 833 478 826 q 465 842 468 839 q 474 843 467 842 q 485 844 482 844 q 497 849 488 846 q 510 853 507 851 q 531 854 515 853 q 554 856 547 856 q 575 865 563 865 q 599 871 588 865 q 604 875 601 872 q 608 878 607 878 l 661 878 q 670 882 664 878 q 678 888 676 886 l 747 888 q 755 894 750 890 q 763 897 760 897 l 833 897 q 851 889 840 890 q 871 888 861 888 l 914 847 q 931 841 917 846 q 949 833 944 836 q 964 824 956 831 q 979 817 972 817 l 982 817 l 1089 928 q 1099 948 1090 942 q 1106 965 1107 954 q 1113 976 1111 968 q 1121 982 1114 983 q 1123 988 1118 986 q 1131 992 1128 989 q 1131 1001 1128 997 q 1137 1007 1133 1004 q 1143 1013 1140 1010 q 1146 1022 1146 1017 q 1153 1028 1149 1029 q 1160 1033 1158 1026 q 1165 1042 1167 1038 q 1171 1047 1172 1042 q 1175 1053 1178 1043 q 1181 1057 1182 1050 q 1181 1068 1179 1064 q 1162 1065 1168 1074 q 1146 1053 1156 1056 q 1140 1047 1149 1044 q 1132 1039 1136 1043 q 1121 1038 1128 1035 q 1114 1028 1114 1035 q 1106 1022 1114 1021 q 1089 1012 1096 1019 q 1072 1001 1082 1004 q 1064 999 1067 1003 q 1057 997 1061 996 q 1047 992 1054 990 q 1038 986 1040 993 q 1026 986 1032 986 q 1025 979 1021 986 q 1018 982 1021 979 l 976 1026 l 938 1026 q 931 1033 936 1029 q 921 1038 926 1038 l 853 1038 q 842 1034 850 1038 q 831 1026 833 1031 l 765 1026 q 758 1023 763 1026 q 750 1017 753 1019 l 697 1017 q 690 1013 697 1017 q 681 1008 683 1010 q 658 1001 669 1003 q 638 994 647 1000 q 585 990 618 996 q 533 972 551 983 q 501 969 519 972 q 467 967 482 967 l 465 967 l 449 982 l 444 982 q 432 971 442 979 q 419 960 422 963 q 412 953 417 957 q 407 949 407 949 l 354 949 q 344 940 350 942 q 333 937 339 938 q 320 935 326 936 q 310 928 314 933 q 279 925 296 926 q 251 917 263 924 l 207 917 l 221 929 q 203 943 213 936 q 199 963 193 950 q 208 972 204 965 q 219 976 213 978 q 225 983 222 979 q 232 986 228 988 q 242 992 235 993 q 253 997 250 990 q 269 1001 260 1000 q 288 1001 279 1001 l 288 1006 l 286 1000 l 286 1006 q 278 1015 286 1007 q 267 1025 271 1022 q 260 1027 265 1026 q 253 1028 254 1028 q 245 1033 251 1029 q 238 1038 239 1036 l 199 1038 q 181 1028 190 1029 q 164 1021 171 1026 q 160 1019 163 1021 q 157 1018 158 1018 l 28 885 q 25 867 25 882 q 25 849 25 851 l 25 836 q 29 825 25 833 q 36 814 33 817 q 53 797 44 801 q 70 791 63 793 q 85 787 78 789 q 97 778 92 785 l 168 778 q 193 788 175 788 q 222 789 213 788 q 272 810 249 792 l 310 810 q 294 778 306 790 q 275 751 283 767 q 274 743 275 750 q 272 735 274 736 q 260 721 267 726 q 253 704 253 715 l 253 703 l 278 676 l 279 675 q 297 680 288 675 q 315 690 306 685 q 331 699 324 694 q 346 704 339 704 l 346 676 q 332 644 335 663 q 324 610 329 625 q 313 585 321 599 q 304 560 306 571 q 303 547 304 557 q 301 533 303 536 q 290 507 299 519 q 275 482 281 494 q 272 468 271 474 q 269 453 272 463 q 263 442 267 446 q 260 428 260 438 q 260 425 260 426 q 261 424 261 424 l 279 404 l 282 404 q 308 415 296 404 q 332 425 321 425 q 333 420 332 424 q 335 414 335 417 q 331 408 333 413 q 325 401 328 403 l 325 308 q 317 294 321 304 q 310 271 314 283 q 305 246 307 258 q 301 228 303 233 q 294 209 299 218 q 286 192 289 200 q 282 179 282 183 q 279 167 282 176 q 270 147 278 157 q 261 126 263 138 q 259 113 260 124 q 258 99 258 101 q 247 80 256 88 q 239 58 239 72 q 240 54 239 57 q 240 51 240 51 l 258 33 q 258 32 258 32 q 260 32 260 32 q 286 44 275 32 q 313 57 297 57 l 313 -32 q 299 -64 306 -40 q 285 -113 293 -87 q 270 -159 278 -139 q 253 -179 263 -179 l 207 -179 l 97 -294 l 118 -317 l 165 -317 q 174 -313 168 -317 q 182 -308 179 -310 q 211 -298 199 -303 q 238 -285 224 -293 l 239 -285 l 240 -285 q 246 -288 242 -285 q 251 -292 250 -292 l 253 -292 q 269 -282 263 -292 q 282 -275 275 -272 l 332 -293 q 351 -303 336 -297 q 382 -316 365 -310 q 414 -327 399 -322 q 435 -333 429 -332 q 484 -358 458 -342 q 536 -376 510 -375 q 566 -390 543 -385 q 599 -399 589 -394 q 626 -408 613 -401 q 651 -418 639 -415 q 665 -420 654 -419 q 678 -422 675 -421 q 702 -433 689 -425 q 726 -449 715 -442 q 743 -452 733 -453 q 760 -454 753 -451 q 783 -464 772 -457 q 808 -474 794 -471 q 815 -474 810 -474 q 821 -476 821 -475 q 842 -487 832 -479 q 864 -497 851 -494 q 875 -498 865 -497 q 888 -499 885 -499 q 903 -507 894 -501 q 918 -515 911 -512 q 947 -524 933 -521 q 975 -532 961 -526 q 980 -534 976 -532 q 985 -536 983 -536 q 990 -539 986 -537 q 993 -540 993 -540 l 1067 -540 q 1092 -553 1079 -551 q 1119 -556 1104 -554 l 1139 -564 l 1256 -564 l 1265 -575 l 1308 -575 z "},"F":{"ha":717,"x_min":15,"x_max":1542,"o":"m 283 -169 l 283 -174 q 290 -183 283 -174 q 299 -197 296 -193 q 303 -199 300 -197 q 306 -201 306 -201 l 431 -201 l 518 -87 l 518 -83 q 515 -75 518 -78 l 515 439 q 538 449 528 440 q 558 460 547 457 q 567 462 561 461 q 576 464 574 463 q 593 476 583 465 q 606 493 603 488 q 640 530 619 510 q 675 562 661 550 q 690 575 689 574 l 690 581 l 675 592 l 671 592 q 653 582 665 589 q 635 572 642 575 q 612 566 624 568 q 589 557 600 564 q 578 579 589 567 q 554 592 567 592 q 530 588 543 592 q 510 581 517 583 l 515 951 q 514 956 515 953 q 513 961 513 960 q 510 965 511 961 q 507 971 508 969 q 508 980 507 974 q 508 989 508 986 l 546 989 q 574 1007 558 1006 q 604 1013 589 1008 q 611 1018 606 1013 q 617 1024 617 1024 q 634 1025 629 1026 q 646 1035 639 1024 l 706 1035 l 1029 1065 l 1292 1043 q 1311 1035 1300 1036 q 1333 1033 1322 1033 q 1349 1025 1340 1026 q 1364 1015 1357 1024 l 1392 1011 q 1417 982 1404 996 q 1431 942 1431 968 l 1431 935 q 1426 924 1431 932 q 1421 915 1422 917 l 1421 910 l 1436 890 l 1440 890 q 1447 890 1443 890 q 1453 893 1451 890 l 1542 1007 l 1542 1024 q 1526 1088 1542 1060 q 1492 1138 1511 1117 q 1484 1146 1490 1139 q 1476 1154 1478 1153 q 1460 1159 1468 1158 q 1445 1160 1453 1160 q 1431 1165 1438 1161 q 1415 1178 1424 1168 l 1383 1178 l 1376 1189 l 1040 1204 l 775 1178 l 717 1178 q 697 1166 713 1171 q 663 1157 681 1161 q 629 1147 644 1153 q 610 1133 614 1142 l 574 1133 l 564 1122 l 522 1122 q 515 1117 521 1121 q 500 1106 508 1113 q 490 1100 492 1100 q 456 1095 472 1099 q 426 1076 439 1092 q 381 1061 399 1075 q 339 1039 363 1047 q 335 1037 338 1038 q 333 1036 333 1036 q 322 1026 322 1029 q 313 1019 322 1024 q 272 1015 290 1019 q 235 1003 254 1010 q 224 999 228 1001 q 211 996 219 996 q 201 997 206 996 q 193 1006 197 997 l 171 1006 q 150 1019 161 1019 q 141 1031 147 1022 q 133 1042 135 1039 q 128 1049 131 1043 q 126 1056 126 1056 l 126 1096 l 171 1154 l 153 1178 l 150 1178 q 136 1174 143 1178 q 124 1167 129 1169 l 21 1031 l 15 1013 l 15 947 q 22 939 15 947 q 31 924 28 931 q 47 903 35 918 q 64 883 60 888 q 77 873 72 879 q 92 865 82 867 q 111 864 100 863 q 129 854 122 865 l 160 854 q 175 864 165 865 q 193 869 185 863 q 196 872 193 871 q 199 874 199 874 l 243 874 q 253 885 246 876 q 264 897 261 894 q 281 901 272 900 q 294 908 289 903 q 300 913 294 908 q 310 918 306 917 q 324 920 317 919 q 335 933 331 921 l 358 933 q 378 944 365 944 l 353 910 q 349 886 356 897 q 335 868 342 875 l 335 865 q 338 851 335 857 q 342 838 342 846 l 340 511 l 272 511 l 181 396 l 199 372 l 290 372 q 300 381 292 375 q 319 394 308 388 q 338 406 329 400 q 350 413 347 411 l 350 331 l 342 311 l 342 33 q 333 4 333 19 q 333 -31 333 -11 q 331 -36 331 -33 q 327 -46 329 -40 q 325 -51 325 -51 l 325 -115 l 283 -169 z "},"G":{"ha":1129,"x_min":24,"x_max":2057,"o":"m 364 -18 q 385 -31 371 -32 q 410 -39 399 -29 l 478 -39 q 488 -36 481 -39 q 497 -31 494 -33 l 543 -31 q 574 -10 558 -15 q 604 7 589 -6 q 608 10 606 8 q 611 13 610 11 q 639 14 626 8 q 662 28 651 19 q 683 47 672 38 q 707 60 694 57 q 711 61 708 60 q 715 63 714 63 q 731 73 724 67 q 747 83 738 79 l 810 144 l 810 135 q 806 116 810 124 q 803 97 803 108 q 807 85 803 90 l 753 28 q 750 21 750 25 q 750 17 750 18 l 750 13 l 771 -7 l 940 -7 l 1040 101 l 1040 106 q 1033 115 1040 108 q 1022 125 1026 122 q 1012 127 1019 126 q 1001 128 1004 128 l 1004 132 l 1004 351 q 1002 360 1004 356 q 999 368 1000 365 q 997 385 999 372 q 996 400 996 397 q 994 414 994 407 q 988 425 994 421 l 988 467 l 978 481 l 978 515 l 1088 633 q 1094 648 1089 643 q 1099 664 1099 653 q 1099 668 1099 665 q 1097 672 1099 672 l 1079 693 l 1000 617 q 989 612 997 614 q 978 608 981 610 q 976 606 978 607 q 972 604 974 606 l 904 604 q 891 612 901 604 q 867 629 881 619 q 842 648 854 639 q 828 660 831 657 q 799 683 813 669 q 767 697 786 697 q 740 692 751 697 q 718 681 728 688 q 699 666 708 674 q 676 653 689 658 l 549 515 l 549 469 l 569 450 l 672 558 l 672 567 l 688 567 q 758 508 721 539 q 776 499 768 501 q 792 486 785 496 l 760 451 l 760 447 q 767 419 760 435 q 781 396 774 404 l 781 356 q 792 336 792 349 q 801 313 793 324 l 801 258 l 810 249 l 810 207 q 801 201 810 206 q 783 192 793 197 q 763 182 772 186 q 750 176 753 178 l 719 146 l 689 146 q 672 134 682 138 q 653 127 663 131 q 635 119 644 124 q 619 104 626 115 l 576 104 q 569 99 575 103 q 558 94 563 94 l 500 94 q 492 99 499 96 q 478 105 486 101 q 464 111 471 108 q 454 114 457 114 q 439 116 451 115 q 425 117 426 117 q 413 124 422 118 q 401 132 404 131 q 381 144 392 139 q 360 160 369 150 q 341 179 356 164 q 324 200 326 194 l 371 249 l 371 390 q 372 397 371 392 q 374 406 372 403 q 376 410 374 407 q 379 415 379 414 q 381 424 381 417 q 382 433 381 432 q 385 443 382 436 q 389 451 389 450 q 390 474 389 457 q 392 497 390 492 q 394 509 392 501 q 399 526 396 517 q 404 542 401 535 q 410 550 407 549 q 415 582 407 568 q 432 611 422 596 q 446 627 438 619 q 454 646 454 635 l 454 649 l 436 667 l 394 667 q 379 652 385 657 q 363 644 374 647 q 362 647 363 644 q 361 650 361 649 q 372 694 361 669 q 389 733 383 718 q 390 738 389 733 q 392 744 392 743 q 397 753 394 749 q 399 764 399 757 q 401 786 401 776 q 410 808 401 797 q 413 843 408 826 q 424 875 417 860 q 439 906 431 890 q 454 935 447 921 l 524 1008 l 524 1010 q 517 1026 524 1019 q 503 1039 510 1032 q 499 1040 501 1039 q 496 1040 497 1040 q 492 1040 494 1040 q 489 1039 489 1039 q 483 1035 488 1039 q 478 1031 479 1031 q 464 1027 475 1029 q 451 1024 453 1025 q 442 1015 450 1022 q 433 1008 435 1008 q 428 1006 432 1007 q 422 1004 424 1004 q 406 989 414 997 q 388 978 399 981 l 363 951 q 362 956 363 953 q 361 960 361 958 q 364 974 361 969 q 369 985 367 978 q 371 996 369 988 q 372 1006 372 1004 q 383 1028 378 1022 q 399 1051 389 1033 q 401 1056 400 1051 q 401 1063 401 1061 q 406 1067 403 1064 q 411 1074 408 1071 l 411 1101 l 449 1143 l 479 1143 q 495 1154 482 1146 q 524 1172 508 1163 q 554 1188 539 1181 q 576 1194 569 1194 q 598 1196 582 1194 q 619 1197 614 1197 l 629 1207 l 676 1207 q 692 1215 682 1215 l 936 1231 l 1065 1225 l 1217 1207 q 1222 1203 1218 1206 q 1226 1200 1225 1201 q 1230 1197 1228 1199 q 1232 1196 1232 1196 l 1308 1196 q 1317 1190 1310 1193 q 1334 1185 1325 1188 q 1352 1179 1343 1182 q 1365 1176 1361 1176 q 1385 1174 1368 1175 q 1406 1174 1403 1174 q 1428 1166 1415 1172 q 1451 1157 1442 1160 q 1469 1153 1463 1154 q 1485 1143 1476 1151 l 1528 1143 q 1538 1137 1531 1140 q 1556 1130 1546 1133 q 1574 1124 1565 1126 q 1586 1122 1582 1122 l 1797 1122 q 1858 1144 1831 1133 q 1885 1158 1874 1149 q 1910 1176 1897 1168 q 1917 1181 1913 1178 q 1921 1183 1921 1183 l 2024 1290 q 2028 1297 2025 1292 q 2028 1304 2028 1299 q 2031 1310 2029 1310 q 2047 1353 2038 1335 q 2057 1401 2057 1372 q 2052 1428 2057 1415 q 2046 1454 2047 1442 q 2026 1496 2035 1478 q 1999 1529 2017 1514 q 1985 1542 1996 1533 q 1961 1558 1974 1550 q 1938 1574 1949 1567 q 1925 1581 1928 1581 l 1922 1581 l 1901 1560 l 1899 1560 q 1892 1566 1897 1561 q 1883 1572 1886 1571 l 1879 1572 q 1846 1562 1860 1572 q 1817 1546 1832 1551 l 1700 1425 q 1695 1407 1697 1421 q 1693 1388 1693 1393 l 1693 1385 l 1711 1367 l 1722 1367 l 1794 1440 q 1799 1441 1796 1440 q 1801 1443 1801 1442 q 1813 1452 1804 1444 q 1824 1463 1821 1460 l 1826 1463 q 1863 1432 1846 1444 q 1894 1405 1881 1419 q 1915 1371 1907 1390 q 1928 1321 1924 1351 q 1928 1316 1928 1319 q 1929 1310 1929 1313 q 1926 1285 1929 1297 q 1913 1265 1924 1272 q 1894 1259 1907 1263 q 1879 1256 1882 1256 l 1671 1256 q 1659 1258 1664 1256 q 1646 1263 1654 1261 q 1609 1272 1624 1268 q 1571 1278 1594 1276 q 1559 1283 1569 1279 q 1535 1292 1549 1288 q 1510 1299 1522 1296 q 1490 1306 1497 1303 q 1469 1307 1485 1306 q 1449 1308 1454 1308 q 1445 1309 1449 1308 q 1440 1310 1442 1310 q 1438 1315 1440 1313 q 1433 1318 1435 1317 q 1416 1320 1429 1319 q 1397 1329 1403 1321 l 1315 1329 l 1300 1342 l 1178 1349 l 1011 1371 l 778 1349 q 767 1346 775 1349 q 756 1342 758 1343 l 710 1342 l 697 1331 q 677 1329 692 1331 q 660 1328 663 1328 q 651 1327 657 1328 q 646 1326 646 1326 q 625 1315 635 1322 q 604 1306 615 1308 q 600 1304 603 1306 q 597 1303 597 1303 q 576 1288 586 1296 q 557 1278 567 1281 q 546 1276 554 1276 q 535 1275 538 1275 q 531 1274 533 1275 q 528 1272 528 1272 q 495 1248 515 1263 q 457 1231 475 1233 q 433 1210 449 1224 q 404 1197 418 1196 l 372 1167 q 342 1150 356 1164 q 314 1129 329 1136 l 100 907 q 77 869 85 890 q 53 832 69 847 l 53 794 l 33 771 q 34 740 33 757 q 24 711 35 722 l 24 546 q 26 534 24 543 q 32 522 29 525 l 32 428 q 46 397 43 419 q 54 360 49 374 q 58 354 54 358 q 63 350 61 350 q 63 338 63 347 q 64 326 64 329 q 66 318 64 324 q 69 310 68 313 q 89 272 78 290 q 111 233 100 253 q 127 201 119 218 q 146 168 135 183 q 156 158 149 165 q 171 142 163 150 q 186 127 179 135 q 196 117 193 119 l 201 103 l 294 7 q 317 -4 301 4 q 336 -18 332 -12 l 364 -18 m 189 444 q 178 460 181 450 q 174 481 175 469 q 169 502 172 492 q 158 519 167 513 l 158 617 q 152 624 156 619 q 149 633 149 629 l 149 792 q 158 819 156 804 q 160 847 160 835 q 171 864 164 854 q 179 883 178 874 q 180 897 179 886 q 182 910 181 907 q 190 919 183 913 q 196 929 196 926 q 198 935 196 929 q 201 943 200 942 q 214 968 204 954 q 233 985 224 982 l 285 1031 q 297 1037 292 1032 q 306 1042 301 1042 l 307 1042 q 298 1031 304 1039 q 289 1019 292 1022 q 288 1016 289 1019 q 286 1011 288 1013 q 285 1001 286 1010 q 285 990 285 993 q 273 969 281 981 q 258 946 265 957 q 242 899 247 922 q 233 847 238 875 q 224 823 232 835 q 215 800 215 811 l 215 794 l 233 776 l 236 776 l 239 776 q 243 778 240 778 q 247 781 246 779 l 310 843 q 319 849 315 844 q 328 854 322 854 q 316 819 325 836 q 300 788 307 803 q 292 767 297 782 q 286 749 288 751 q 280 712 282 731 q 275 675 278 693 q 270 667 274 674 q 267 660 267 661 q 266 653 267 658 q 264 646 265 647 q 252 616 260 631 q 239 586 244 601 q 238 579 239 585 q 236 571 238 574 q 231 538 233 556 q 224 503 228 519 q 221 501 222 503 q 218 497 219 499 l 218 494 l 218 492 l 236 472 l 257 472 l 304 519 q 297 509 303 517 q 289 500 292 501 q 286 492 289 494 q 278 458 283 472 q 269 425 274 443 q 267 417 268 424 q 267 408 267 411 q 266 387 267 403 q 264 367 265 371 q 253 339 257 353 q 247 310 250 325 q 238 325 246 311 q 219 356 229 339 q 202 388 210 374 q 194 406 194 403 q 190 424 190 415 q 189 444 190 432 z "},"H":{"ha":1024,"x_min":14,"x_max":1010,"o":"m 867 -490 q 893 -501 876 -499 q 922 -503 910 -503 q 934 -499 925 -503 q 943 -490 943 -496 q 942 -489 943 -489 q 942 -487 942 -489 q 929 -478 938 -482 q 915 -471 921 -474 q 904 -458 910 -467 q 896 -444 899 -450 q 884 -422 892 -437 q 875 -403 876 -406 q 873 -393 874 -401 q 872 -383 872 -385 q 869 -375 871 -381 q 865 -368 867 -369 l 865 31 q 860 42 860 36 q 862 51 860 47 q 864 60 864 54 q 862 68 864 64 q 860 76 860 72 q 862 84 860 81 q 864 90 864 88 l 863 92 q 860 99 863 93 q 857 107 858 106 l 857 108 l 857 110 q 860 117 858 111 q 863 124 863 122 l 864 125 q 862 136 864 132 q 860 147 860 140 q 862 158 860 154 q 864 169 864 163 q 862 176 864 172 q 860 182 860 179 q 862 190 860 186 q 864 196 864 193 l 863 197 q 860 204 863 199 q 857 211 858 210 l 857 214 q 860 224 857 219 q 864 235 864 228 q 862 244 864 240 q 860 253 860 249 q 868 271 860 264 q 888 282 876 278 q 909 289 899 286 q 925 294 919 292 q 938 304 928 296 q 951 314 949 313 q 981 333 967 325 q 1010 353 996 340 l 993 353 q 977 352 985 353 q 963 344 969 351 l 907 344 q 892 337 900 338 q 875 336 885 336 q 868 337 872 336 q 863 338 864 338 l 857 343 l 857 742 q 874 791 868 765 q 901 836 881 817 l 901 839 q 899 844 901 844 l 828 844 q 819 842 825 842 l 817 842 q 810 843 813 842 q 803 844 807 844 l 801 844 q 794 841 800 843 q 788 839 789 839 l 661 839 q 641 844 654 843 q 618 844 628 844 l 608 844 l 603 839 l 603 838 q 613 824 603 828 q 626 813 622 819 q 638 792 631 806 q 644 776 644 778 l 644 660 l 654 646 l 654 440 q 658 429 658 432 q 657 422 658 425 q 656 415 656 418 l 656 414 q 658 406 656 411 q 661 399 660 401 l 661 274 q 656 261 661 267 q 642 251 650 256 q 627 243 635 247 q 617 238 619 239 q 610 231 615 238 q 603 224 604 225 q 542 186 575 204 q 479 153 510 168 l 474 153 q 467 154 471 153 q 463 160 463 156 q 464 167 463 164 q 465 174 465 171 q 465 180 465 178 q 461 185 464 182 l 461 346 q 456 358 456 353 q 458 365 456 361 q 460 371 460 368 q 458 372 460 372 q 456 381 458 375 q 453 388 454 386 l 453 389 q 454 395 453 392 q 456 403 456 399 l 456 406 q 453 414 456 411 l 453 715 q 456 723 454 718 q 458 731 458 728 q 475 752 464 744 q 486 767 486 760 q 481 776 486 771 q 472 781 476 781 l 471 781 q 467 778 469 779 q 463 775 464 776 l 169 775 q 164 768 164 775 q 163 767 163 768 q 163 767 163 767 q 178 751 163 760 q 199 739 193 743 q 212 723 206 732 q 224 707 218 714 l 224 581 l 232 567 l 232 369 q 238 354 239 363 q 239 338 236 346 l 239 124 l 233 118 l 232 118 l 231 118 q 206 127 222 122 q 181 139 190 132 q 157 153 175 142 q 119 176 139 164 q 83 202 99 189 q 67 222 67 215 q 78 234 67 226 q 93 244 90 242 q 117 258 99 247 q 143 271 136 268 q 149 277 146 274 q 151 283 151 281 l 151 285 q 146 290 151 290 l 144 292 l 143 290 q 135 288 142 290 q 128 285 129 285 q 101 282 117 282 q 75 279 86 282 q 62 273 72 278 q 49 268 51 268 q 26 262 38 264 q 14 243 14 260 q 22 222 14 238 q 41 190 31 207 q 63 157 51 172 q 78 136 74 142 q 86 128 81 133 q 93 121 92 122 l 169 83 q 188 76 175 82 q 214 63 200 71 q 238 49 228 56 q 249 38 249 42 l 249 36 q 245 28 247 35 q 242 21 243 22 l 242 19 q 244 3 242 13 q 249 -14 246 -7 l 249 -201 q 247 -207 247 -203 q 246 -212 246 -211 q 247 -219 246 -214 q 249 -225 249 -224 l 249 -231 q 210 -333 249 -286 q 194 -347 204 -340 q 176 -358 185 -353 q 160 -368 167 -364 q 154 -375 154 -372 q 168 -389 154 -389 q 182 -387 175 -389 q 199 -385 189 -385 q 217 -388 210 -385 q 236 -392 225 -392 q 245 -390 242 -392 q 254 -389 249 -389 q 265 -393 261 -389 l 444 -393 l 458 -401 l 508 -401 q 515 -406 511 -403 q 521 -410 518 -408 l 522 -410 l 524 -410 q 527 -406 525 -408 q 529 -403 529 -404 l 529 -401 l 529 -400 q 514 -388 525 -393 q 497 -379 503 -383 q 483 -361 489 -374 q 469 -342 476 -349 l 469 -14 q 465 -3 465 -8 q 467 7 465 3 q 468 15 468 11 q 467 24 468 21 q 465 33 465 28 q 467 47 465 42 q 468 63 469 51 q 478 69 475 67 q 485 72 482 71 q 493 72 489 72 q 506 74 497 72 q 532 83 519 78 q 558 92 544 89 l 635 129 q 644 137 638 132 q 654 142 650 142 l 656 142 q 660 138 657 140 q 663 136 663 136 l 663 44 l 669 31 l 669 -262 l 663 -278 l 663 -342 q 651 -375 651 -357 q 640 -410 651 -394 l 600 -450 q 588 -457 597 -453 q 579 -468 579 -461 q 589 -483 579 -476 q 606 -489 599 -489 q 616 -487 613 -489 q 626 -482 619 -486 l 769 -482 l 785 -490 l 867 -490 z "},"I":{"ha":863,"x_min":29,"x_max":811,"o":"m 133 -197 q 148 -204 139 -197 q 167 -220 157 -211 q 188 -237 178 -229 q 207 -247 199 -246 q 215 -249 208 -249 q 222 -250 221 -250 q 233 -259 224 -251 q 243 -268 242 -267 q 253 -274 244 -269 q 265 -279 263 -278 q 289 -285 276 -286 q 311 -294 301 -283 l 429 -294 l 440 -292 q 472 -268 458 -276 q 504 -250 485 -260 q 509 -249 506 -250 q 514 -247 513 -247 q 538 -228 526 -235 q 561 -210 550 -221 l 671 -93 q 692 -65 682 -81 q 713 -36 701 -50 q 713 -19 713 -33 q 715 -1 714 -6 q 719 6 715 0 q 722 13 722 11 q 724 25 724 15 q 726 36 725 35 q 730 44 726 39 q 735 51 733 50 q 735 78 735 68 q 746 99 736 88 l 746 189 q 759 212 760 196 q 768 239 758 228 l 768 318 l 779 329 l 779 538 q 783 547 779 540 q 790 554 788 553 l 790 622 q 794 631 790 625 q 801 640 799 638 l 801 1014 q 806 1029 801 1022 q 811 1044 811 1036 q 803 1056 811 1051 q 799 1071 796 1061 l 778 1093 l 742 1058 l 621 1058 q 590 1069 608 1068 q 558 1071 572 1071 q 524 1092 542 1083 q 488 1111 507 1101 q 483 1113 486 1113 q 479 1114 479 1114 l 400 1114 q 381 1104 390 1107 q 361 1096 371 1101 q 354 1094 360 1096 q 347 1090 349 1092 l 207 942 q 206 938 207 940 q 204 936 204 936 q 192 919 203 933 q 178 903 181 906 q 162 860 163 883 q 161 814 161 838 l 161 771 q 162 767 161 769 q 163 763 163 764 q 167 752 164 760 q 172 736 169 744 q 177 721 175 728 q 181 713 179 714 q 190 701 183 708 q 200 693 197 693 l 204 693 q 285 749 238 731 l 393 865 l 393 871 l 375 892 l 361 892 q 334 873 346 881 q 308 853 322 865 l 307 853 l 306 853 q 305 855 306 854 q 304 857 304 856 l 299 868 l 299 953 q 305 963 299 958 q 314 968 311 968 l 388 968 q 394 965 389 968 q 407 959 400 963 q 421 951 414 956 q 432 944 428 947 q 443 933 435 942 q 454 922 451 925 l 510 922 q 518 917 513 922 q 526 911 524 913 l 556 911 q 549 893 554 903 q 537 874 543 883 q 526 858 531 865 q 521 847 521 850 l 521 532 l 511 517 l 511 371 q 517 363 514 368 q 519 353 519 357 l 519 256 q 515 248 518 254 q 511 239 511 242 l 511 124 q 503 113 507 121 q 500 101 500 104 l 500 -49 q 494 -56 497 -51 q 490 -62 490 -60 l 408 -149 l 407 -149 l 406 -149 q 399 -144 403 -147 q 393 -139 396 -140 q 378 -139 390 -140 q 364 -136 367 -137 q 338 -120 349 -132 q 311 -104 326 -108 q 305 -103 310 -104 q 299 -101 300 -101 q 282 -90 292 -97 q 265 -78 272 -83 q 244 -58 254 -69 q 222 -43 233 -47 q 182 0 200 -21 q 164 53 164 21 q 165 62 164 56 q 165 68 165 68 l 254 165 l 232 189 l 224 189 q 197 178 207 189 q 172 163 188 168 l 57 39 l 51 22 q 50 16 51 21 q 49 10 49 11 q 41 -7 44 -1 q 35 -18 38 -12 q 31 -31 32 -24 q 29 -51 29 -37 q 49 -110 29 -79 q 89 -160 69 -142 q 95 -163 90 -161 q 101 -165 100 -165 l 133 -197 z "},"J":{"ha":835,"x_min":14,"x_max":800,"o":"m 197 -646 q 222 -674 211 -664 q 247 -696 233 -683 q 266 -703 257 -701 q 282 -714 275 -704 l 297 -714 q 308 -714 304 -714 q 319 -711 313 -714 l 326 -706 q 340 -703 332 -703 q 356 -700 347 -704 q 358 -698 357 -700 q 361 -696 360 -696 q 375 -690 368 -693 q 389 -685 382 -687 q 399 -681 390 -683 q 407 -679 407 -679 q 416 -672 410 -678 q 424 -664 422 -665 q 431 -662 424 -662 q 440 -661 439 -661 l 446 -658 q 469 -637 457 -650 q 494 -621 481 -625 q 506 -619 499 -619 q 518 -617 513 -619 q 549 -594 533 -606 q 581 -572 564 -583 q 584 -569 582 -572 q 588 -564 586 -565 q 599 -552 592 -560 q 614 -540 607 -544 l 701 -433 q 703 -432 701 -433 q 704 -429 704 -431 q 724 -395 711 -417 q 747 -361 736 -374 l 747 -331 q 761 -312 756 -324 q 774 -290 767 -300 l 774 -153 q 764 -136 767 -144 q 758 -121 761 -128 l 758 -74 l 747 -65 l 747 -37 q 739 -21 739 -29 q 729 -3 739 -12 l 729 57 l 721 67 l 721 183 l 729 193 l 729 265 l 739 278 l 739 318 l 747 329 l 747 714 q 757 733 757 722 q 764 753 757 744 l 764 839 l 768 847 q 771 851 769 849 q 774 853 772 853 q 776 874 776 864 q 782 890 775 883 l 782 1021 l 793 1032 l 793 1090 q 796 1100 793 1093 q 800 1107 799 1107 l 800 1192 l 783 1208 q 783 1209 783 1208 q 781 1210 782 1210 q 771 1208 778 1210 q 761 1201 764 1207 l 728 1201 l 717 1192 q 698 1191 710 1192 q 681 1181 686 1190 l 607 1181 q 597 1176 604 1181 q 588 1169 590 1172 l 547 1169 l 538 1158 q 517 1158 532 1158 q 497 1157 503 1158 q 490 1156 494 1157 q 483 1154 485 1154 q 473 1146 478 1151 q 461 1138 468 1140 q 452 1135 457 1136 q 440 1132 447 1135 q 424 1123 433 1128 q 407 1111 415 1118 q 398 1106 404 1107 q 389 1103 392 1106 q 380 1092 388 1100 q 371 1082 372 1083 q 365 1079 371 1081 q 360 1078 360 1078 q 342 1060 349 1071 q 324 1046 335 1050 l 235 942 q 228 929 231 935 q 225 914 225 924 l 199 881 q 197 866 199 875 q 194 847 196 857 q 189 828 192 836 q 182 815 186 819 l 182 654 q 183 651 182 653 q 183 647 183 649 q 190 628 189 636 q 194 610 192 619 q 226 548 208 578 q 269 499 244 518 q 301 475 285 486 q 332 444 318 464 l 336 444 l 424 553 l 424 561 l 476 622 l 458 647 l 456 647 q 447 640 453 647 q 438 631 440 633 q 421 613 435 626 q 403 596 407 599 q 385 601 396 596 q 369 610 375 607 q 347 627 361 614 q 329 651 333 640 q 328 657 328 653 q 328 664 328 663 q 319 674 326 665 q 311 685 313 683 q 308 694 311 688 q 304 704 306 701 q 302 720 303 708 q 301 736 301 732 l 294 746 l 294 897 q 302 919 303 906 q 311 939 301 932 q 326 948 318 944 q 342 954 335 951 q 364 962 353 960 q 379 972 375 964 l 525 1028 q 544 1037 526 1032 q 585 1045 563 1042 q 626 1051 607 1049 q 647 1054 644 1054 q 640 1046 647 1054 q 623 1028 632 1038 q 606 1010 614 1018 q 600 1001 599 1001 q 595 988 597 999 q 593 975 593 978 q 597 955 593 964 q 600 935 600 946 q 596 918 600 924 q 592 906 592 913 l 592 699 q 588 694 590 699 q 585 685 585 689 l 585 622 l 574 608 l 574 435 q 567 424 569 432 q 564 414 564 417 l 564 325 l 557 317 l 557 -165 q 565 -181 563 -172 q 574 -196 567 -189 l 574 -240 q 586 -264 586 -254 q 593 -290 586 -274 q 597 -297 593 -292 q 600 -303 600 -301 q 601 -315 600 -306 q 601 -326 601 -324 q 610 -342 604 -335 q 617 -357 615 -349 q 617 -368 617 -360 q 619 -378 618 -376 q 626 -389 621 -381 q 635 -400 632 -397 l 635 -440 q 624 -452 633 -442 q 601 -475 614 -462 q 585 -489 589 -487 q 572 -490 582 -489 q 560 -492 563 -492 q 537 -509 549 -501 q 514 -528 525 -517 q 500 -528 510 -526 q 488 -531 490 -529 q 478 -540 485 -532 q 471 -549 472 -549 q 463 -551 469 -550 q 454 -551 456 -551 q 449 -556 453 -553 q 443 -561 444 -560 q 428 -562 436 -564 q 414 -574 419 -561 l 392 -574 l 381 -583 l 360 -583 q 352 -578 357 -581 q 344 -572 347 -575 q 354 -562 347 -567 q 364 -554 361 -557 l 465 -433 l 465 -429 l 451 -411 l 446 -411 q 413 -440 429 -431 q 372 -460 396 -449 q 369 -463 372 -461 q 365 -467 367 -465 l 329 -467 l 315 -503 l 300 -497 l 269 -481 q 263 -463 267 -467 q 251 -447 258 -460 q 245 -431 247 -440 q 239 -414 243 -421 q 228 -400 232 -403 q 222 -386 225 -397 q 222 -376 222 -385 q 221 -364 221 -367 q 207 -339 217 -351 q 190 -314 197 -326 q 184 -301 188 -310 q 176 -281 181 -292 q 168 -262 172 -271 q 163 -249 164 -253 q 160 -232 160 -239 q 158 -210 161 -225 q 150 -187 156 -199 q 143 -165 144 -176 q 142 -140 143 -160 q 140 -114 140 -119 l 125 -74 l 125 108 q 133 129 132 118 q 135 151 133 140 q 160 175 142 164 q 192 183 179 186 q 219 201 203 196 q 251 204 236 206 q 256 207 253 206 q 260 210 258 208 l 263 213 l 317 213 l 324 204 q 325 181 324 193 q 332 160 326 168 l 332 89 q 329 85 329 89 q 326 74 328 81 q 325 67 325 67 l 325 -15 q 315 -40 314 -22 q 317 -65 317 -57 l 317 -90 q 327 -106 322 -97 q 342 -114 332 -114 l 343 -114 l 358 -97 q 367 -101 360 -101 q 370 -101 368 -101 q 372 -100 372 -100 q 389 -87 381 -92 q 406 -72 397 -82 l 499 36 q 501 44 499 38 q 504 54 503 51 l 504 57 l 504 58 l 488 78 l 483 78 q 456 49 468 61 q 428 22 443 38 l 428 35 q 428 50 428 46 q 436 61 429 54 l 436 154 q 439 163 436 157 q 443 171 442 169 l 443 246 q 440 254 443 251 q 438 280 438 265 q 433 306 439 294 q 426 314 433 306 q 417 325 419 322 q 408 335 414 328 q 401 344 403 343 l 371 344 q 331 342 347 344 q 294 335 315 339 l 289 332 q 273 324 282 328 q 257 317 264 319 q 247 315 254 315 q 235 311 239 314 q 214 294 219 299 q 192 283 208 290 q 187 283 190 283 q 182 282 183 282 l 154 249 l 146 244 l 47 128 q 36 105 39 117 q 29 82 33 93 q 26 74 28 79 q 22 67 24 68 q 20 48 19 57 q 14 32 21 39 l 14 -162 q 17 -168 14 -168 q 22 -185 18 -172 q 29 -204 26 -199 q 30 -227 29 -208 q 32 -251 31 -246 q 33 -260 32 -254 q 33 -268 33 -267 q 41 -283 36 -276 q 47 -300 46 -290 q 48 -313 47 -303 q 49 -326 49 -324 q 51 -335 49 -329 q 53 -342 53 -342 q 76 -395 61 -371 q 103 -444 90 -419 q 110 -467 108 -454 q 115 -492 111 -479 l 132 -508 q 137 -525 135 -515 q 143 -543 139 -535 q 149 -551 144 -544 q 156 -561 154 -558 q 158 -568 157 -562 q 158 -576 158 -574 q 160 -581 160 -578 q 161 -583 161 -583 q 181 -612 169 -596 q 197 -646 192 -628 z "},"K":{"ha":883,"x_min":-67,"x_max":1854,"o":"m 1161 -792 q 1167 -781 1160 -783 q 1182 -777 1174 -778 q 1199 -776 1190 -776 q 1210 -771 1207 -775 q 1321 -740 1272 -761 q 1408 -689 1369 -719 q 1477 -616 1446 -658 q 1536 -519 1508 -574 q 1542 -492 1542 -506 q 1541 -466 1543 -479 q 1537 -440 1539 -453 q 1536 -412 1535 -426 q 1533 -422 1539 -419 q 1525 -428 1528 -424 q 1515 -433 1518 -425 q 1504 -439 1511 -442 q 1460 -481 1483 -462 q 1418 -514 1438 -499 q 1425 -520 1422 -514 q 1429 -535 1428 -526 q 1433 -549 1431 -543 q 1440 -556 1436 -556 q 1436 -563 1440 -558 q 1428 -573 1432 -568 q 1423 -581 1425 -578 q 1424 -583 1421 -583 q 1352 -644 1392 -625 q 1268 -668 1313 -662 q 1175 -673 1224 -674 q 1075 -674 1126 -672 q 1039 -652 1056 -658 q 1007 -631 1022 -646 q 974 -612 989 -618 q 943 -592 960 -607 l 922 -565 q 901 -552 910 -562 q 884 -528 892 -542 q 869 -503 876 -515 q 854 -482 863 -490 q 853 -464 850 -471 q 844 -451 856 -457 q 844 -428 844 -435 q 842 -415 843 -421 q 838 -397 840 -408 q 831 -360 835 -385 q 828 -354 831 -358 q 822 -349 825 -350 l 822 -192 q 820 -182 822 -189 q 815 -172 818 -175 l 815 -97 q 812 -90 815 -94 q 807 -85 808 -86 l 807 -40 q 803 -35 806 -37 q 800 -31 801 -33 q 799 -17 800 -28 q 799 -4 799 -7 q 795 2 797 -1 q 793 7 793 6 l 790 38 q 783 56 781 43 q 776 79 785 69 q 774 113 778 96 q 764 145 769 129 q 754 176 758 161 q 753 208 750 192 q 737 226 744 217 q 718 252 729 236 q 692 292 707 268 q 653 353 676 315 q 639 363 642 356 l 614 363 q 604 372 611 367 q 593 379 597 376 q 583 379 592 379 q 576 381 576 379 q 569 389 575 382 q 563 397 564 396 q 551 400 556 400 q 542 406 547 400 l 486 406 q 481 403 485 406 q 474 400 476 401 q 471 399 472 400 q 469 399 469 399 q 477 417 478 408 q 483 436 476 426 l 508 467 q 515 481 510 474 q 524 492 519 489 q 524 499 524 493 q 525 504 525 504 q 538 528 529 514 q 554 549 547 542 q 558 567 557 556 q 564 586 560 579 q 573 599 565 589 q 583 611 581 608 q 592 629 585 622 q 600 649 600 636 l 631 683 q 653 699 635 683 q 692 732 671 714 q 731 765 713 750 q 754 782 750 781 q 769 789 761 783 q 784 801 776 794 q 799 811 792 807 q 814 814 807 815 q 898 842 857 832 q 985 861 939 851 q 1014 867 1000 858 q 1043 872 1028 876 q 1183 898 1110 890 q 1329 912 1256 906 q 1476 928 1403 918 q 1615 961 1549 939 q 1740 1024 1682 983 q 1842 1129 1797 1064 q 1843 1144 1840 1138 q 1849 1158 1846 1151 q 1853 1172 1851 1164 q 1851 1188 1854 1179 q 1844 1239 1847 1222 q 1838 1260 1842 1256 q 1826 1261 1833 1265 q 1806 1250 1818 1257 q 1792 1239 1803 1246 q 1767 1224 1781 1232 q 1742 1210 1754 1217 q 1729 1199 1731 1203 q 1746 1192 1739 1199 q 1761 1183 1753 1186 q 1761 1166 1758 1176 q 1756 1156 1764 1156 l 1756 1151 q 1701 1106 1726 1124 q 1649 1076 1675 1089 q 1593 1052 1622 1063 q 1528 1028 1564 1042 q 1360 1011 1424 1018 q 1253 999 1296 1004 q 1179 990 1211 994 q 1108 979 1147 985 l 1111 972 q 969 941 1032 956 q 850 905 906 926 q 742 849 794 883 q 632 757 690 815 q 627 755 631 757 q 621 753 624 753 l 544 660 l 542 651 l 496 596 l 496 586 q 458 524 472 560 q 422 461 444 489 q 415 442 424 449 q 406 424 406 436 q 397 413 403 421 q 383 395 390 404 q 368 377 375 386 q 358 365 361 368 q 349 352 351 357 q 338 336 347 347 q 325 335 335 335 q 314 333 317 335 q 301 331 304 333 q 280 313 292 328 q 257 299 268 299 l 256 299 q 271 326 260 314 q 283 353 282 338 l 339 422 q 344 430 342 425 q 349 438 346 435 l 371 469 q 398 526 383 499 q 432 576 413 553 q 433 583 432 579 q 436 589 435 588 l 436 592 l 436 594 l 422 611 l 421 611 q 397 606 408 611 q 373 594 385 601 q 350 581 361 588 q 329 569 339 574 q 317 565 322 567 q 310 563 313 563 l 306 563 l 333 599 q 337 607 333 600 q 340 617 340 614 q 353 647 347 628 q 363 682 360 665 q 363 688 363 683 q 365 693 364 693 q 372 719 369 710 q 381 749 375 729 l 381 757 q 389 769 385 764 q 396 779 393 774 q 415 833 408 807 q 426 872 425 851 q 440 907 428 892 q 441 928 440 918 q 449 946 442 939 l 449 971 l 435 988 l 432 988 q 418 982 425 988 q 403 969 411 976 q 388 956 396 963 q 371 950 379 950 q 356 951 361 949 q 347 958 351 954 q 339 968 343 963 q 329 978 335 974 q 313 980 318 983 q 301 988 307 976 l 257 988 q 251 991 254 988 q 247 997 247 994 l 165 1007 q 162 1005 165 1007 q 156 1001 158 1003 q 112 978 142 988 q 61 958 82 969 q 47 942 54 951 q 31 931 40 933 l -53 831 q -56 826 -54 831 q -58 819 -57 822 q -64 807 -61 815 q -67 799 -67 799 l -67 742 q -60 724 -67 732 q -50 708 -53 717 l 1 651 l 6 651 l 83 742 l 44 790 q 38 804 42 797 q 29 818 33 811 l 29 860 l 31 861 q 49 873 42 868 q 71 876 57 878 q 86 885 72 879 q 104 892 100 892 l 181 883 q 188 878 183 881 q 194 876 192 876 q 213 874 199 875 q 231 874 228 872 q 249 865 240 864 q 267 851 258 865 l 267 850 l 267 849 q 258 837 264 843 q 253 824 253 831 l 253 761 l 246 756 l 246 671 l 239 660 l 239 629 q 233 624 236 628 q 229 617 229 619 l 229 567 q 220 546 222 557 q 214 522 218 535 q 196 493 210 506 q 182 461 182 481 l 182 457 q 197 442 189 444 q 215 440 204 440 q 224 443 221 440 q 231 447 226 446 q 241 449 233 447 q 251 450 249 450 q 268 454 257 454 l 271 454 q 266 441 268 449 q 261 426 264 433 q 256 422 258 425 q 253 418 254 419 q 253 408 253 417 q 251 399 253 400 q 241 381 249 389 q 228 364 233 374 q 227 360 228 363 q 226 357 226 357 q 218 346 224 354 q 210 336 213 338 q 194 295 207 317 q 171 261 182 274 q 167 249 169 254 q 163 233 164 243 l 144 208 q 144 207 144 208 q 143 203 143 206 l 143 200 l 143 197 l 160 178 q 162 177 160 178 q 167 176 164 176 q 179 179 171 176 q 197 186 188 182 q 213 194 206 190 q 224 203 221 199 l 247 203 q 240 189 242 196 q 236 174 239 182 q 230 158 233 167 q 224 143 226 149 q 221 130 222 140 q 221 117 219 119 l 215 107 l 215 78 q 200 47 203 65 q 200 32 200 44 q 199 18 200 21 q 192 4 197 15 q 188 -8 188 -7 q 185 -25 185 -17 q 183 -43 186 -33 q 178 -54 182 -50 q 174 -64 175 -58 q 169 -76 171 -68 q 168 -86 168 -85 q 153 -122 165 -101 q 140 -156 140 -143 l 140 -158 q 149 -172 144 -165 q 161 -178 154 -178 l 163 -178 q 185 -164 174 -172 q 207 -149 196 -156 q 213 -143 207 -149 q 221 -136 219 -137 q 226 -133 225 -132 q 235 -135 228 -135 q 236 -140 235 -137 q 236 -146 238 -143 q 228 -167 233 -151 q 222 -189 222 -182 l 222 -235 q 214 -254 214 -242 q 207 -278 214 -268 l 207 -351 q 203 -366 204 -356 q 200 -387 201 -376 q 195 -403 199 -397 q 186 -407 192 -410 q 177 -417 183 -410 q 168 -426 171 -424 q 156 -431 164 -432 q 144 -433 149 -429 q 135 -442 142 -436 q 125 -450 128 -447 l 92 -450 l 14 -544 l 29 -562 l 67 -562 l 86 -544 l 125 -540 l 143 -524 q 157 -532 149 -526 q 163 -549 165 -537 l 179 -568 l 219 -519 l 333 -519 l 413 -424 l 399 -406 l 271 -406 q 281 -362 274 -383 q 294 -322 288 -342 q 295 -319 294 -322 q 296 -314 296 -315 l 321 -282 q 323 -276 321 -282 q 325 -268 325 -271 q 333 -236 328 -253 q 339 -204 338 -219 q 340 -190 340 -201 q 340 -175 340 -179 q 347 -160 346 -168 q 350 -144 349 -151 q 354 -128 351 -136 q 364 -114 357 -121 l 364 -81 q 381 -49 371 -71 q 393 -11 390 -26 q 395 -6 394 -10 q 396 -1 396 -3 q 408 17 401 7 q 415 39 415 28 l 415 40 l 403 56 q 388 61 392 56 l 376 61 q 368 61 374 61 q 361 58 364 61 l 294 -19 q 271 -32 286 -19 q 286 -15 279 -25 q 292 10 293 -4 l 317 43 q 318 58 317 46 q 319 75 319 71 q 326 105 321 94 q 339 131 332 115 q 342 138 340 132 q 344 143 343 143 q 350 151 346 146 q 356 158 354 156 l 356 197 q 370 224 365 210 q 381 254 375 239 l 381 256 l 410 256 q 429 249 419 249 q 451 249 439 250 q 470 238 460 239 q 489 229 481 236 l 504 214 q 508 212 506 213 q 511 210 511 211 q 515 208 513 210 q 519 206 517 207 q 535 188 526 199 q 544 178 544 178 l 544 165 q 560 148 550 160 q 574 129 571 136 q 574 124 574 128 q 575 118 575 119 q 578 112 576 117 q 581 104 579 107 q 585 99 582 104 q 589 93 589 94 q 590 84 589 90 q 592 78 590 78 q 594 72 592 76 q 596 68 596 68 q 603 46 601 57 q 613 24 606 35 q 619 15 614 22 q 628 4 625 7 l 628 -47 l 635 -62 l 635 -229 q 639 -235 636 -231 q 642 -243 642 -240 l 642 -343 q 647 -350 643 -344 q 650 -358 650 -356 l 650 -417 q 657 -429 657 -422 q 660 -446 657 -437 q 695 -522 678 -482 q 740 -593 713 -562 q 746 -610 739 -603 q 763 -624 753 -618 q 785 -635 774 -631 q 800 -643 796 -639 q 819 -658 811 -650 q 839 -669 826 -667 l 863 -694 q 888 -712 878 -697 q 914 -731 899 -726 q 918 -731 915 -731 q 922 -732 921 -732 q 954 -751 933 -739 q 982 -769 975 -762 q 991 -776 985 -771 q 999 -783 997 -782 q 1015 -783 1007 -785 q 1032 -781 1024 -782 q 1047 -782 1040 -781 q 1060 -792 1054 -783 l 1103 -804 l 1161 -792 z "},"L":{"ha":514,"x_min":14,"x_max":1496,"o":"m 951 -1033 l 963 -1043 l 1113 -1043 l 1122 -1033 l 1178 -1033 q 1186 -1023 1181 -1031 q 1194 -1012 1192 -1015 q 1197 -1010 1194 -1011 q 1199 -1010 1199 -1010 q 1212 -1008 1201 -1008 q 1225 -1007 1222 -1007 q 1248 -992 1238 -1004 q 1269 -974 1258 -981 q 1276 -973 1271 -974 q 1283 -971 1282 -972 q 1291 -962 1285 -969 q 1299 -954 1297 -956 q 1304 -951 1299 -951 q 1318 -934 1307 -947 q 1333 -917 1329 -921 l 1343 -917 l 1454 -774 q 1463 -748 1456 -760 q 1476 -725 1471 -736 q 1486 -712 1479 -722 q 1496 -699 1493 -701 l 1496 -585 q 1471 -548 1483 -569 q 1443 -511 1458 -526 q 1426 -497 1436 -503 q 1407 -482 1417 -492 l 1250 -482 q 1229 -497 1239 -482 q 1211 -518 1219 -511 q 1203 -523 1208 -519 q 1199 -526 1199 -526 l 1072 -690 q 1067 -707 1067 -696 q 1067 -711 1067 -710 q 1068 -712 1068 -712 l 1086 -737 l 1172 -631 l 1325 -631 q 1339 -647 1331 -639 q 1356 -657 1347 -656 l 1379 -690 l 1379 -779 q 1371 -790 1376 -782 q 1364 -801 1365 -799 q 1360 -815 1361 -808 q 1354 -824 1360 -821 q 1335 -831 1347 -828 q 1317 -842 1324 -835 q 1308 -851 1315 -843 q 1299 -860 1301 -858 q 1288 -860 1297 -860 q 1276 -861 1278 -861 q 1260 -870 1268 -864 q 1246 -883 1251 -876 l 1194 -883 l 1185 -896 l 1042 -896 l 1033 -883 l 939 -883 q 935 -882 938 -883 q 931 -879 933 -881 q 928 -876 931 -879 q 924 -874 925 -874 q 906 -871 914 -871 q 892 -860 899 -871 l 847 -860 q 838 -849 844 -853 q 823 -844 831 -846 q 808 -840 815 -842 q 794 -835 800 -837 q 782 -825 789 -832 q 771 -814 775 -818 l 747 -814 l 736 -801 q 692 -787 714 -803 q 687 -783 690 -786 q 682 -779 683 -781 q 672 -778 679 -779 q 664 -776 665 -778 q 648 -765 656 -774 q 631 -754 640 -757 q 615 -753 628 -754 q 600 -751 603 -753 q 592 -747 599 -751 q 582 -740 585 -743 q 572 -730 579 -739 q 564 -719 565 -721 q 554 -717 561 -717 q 544 -715 547 -717 q 522 -694 533 -710 q 500 -671 511 -679 q 490 -670 497 -671 q 481 -668 483 -669 q 469 -658 479 -667 q 458 -647 460 -650 q 444 -640 456 -646 q 429 -631 432 -633 q 414 -614 422 -624 q 394 -601 406 -604 q 381 -599 392 -600 q 368 -599 371 -597 l 358 -586 l 306 -586 q 288 -575 297 -579 q 271 -562 278 -571 l 324 -490 l 324 -351 q 327 -342 324 -347 q 331 -335 331 -337 l 331 -257 l 340 -242 l 340 121 l 350 132 l 350 282 q 354 291 350 285 q 360 299 358 297 l 360 729 l 368 742 l 368 810 l 378 821 l 378 860 q 388 879 388 867 l 388 888 l 369 908 l 360 908 q 344 908 351 908 q 331 897 336 907 l 272 897 q 257 888 265 897 q 246 872 249 879 l 175 872 q 160 860 168 864 q 146 850 153 857 l 106 850 l 14 729 l 14 651 l 32 628 l 82 690 l 88 690 q 112 669 99 675 q 140 664 125 664 l 140 588 l 135 574 l 135 525 l 140 513 l 140 463 q 140 460 140 463 q 139 457 139 458 q 135 446 138 453 q 133 438 133 439 l 133 338 q 124 311 124 329 l 124 -122 q 115 -139 117 -129 q 113 -159 114 -149 q 111 -180 113 -169 q 104 -199 110 -190 l 104 -343 q 99 -354 101 -346 q 97 -365 97 -362 l 97 -604 q 101 -611 99 -606 q 106 -618 104 -617 q 106 -619 106 -618 q 107 -621 107 -619 q 106 -621 107 -621 q 106 -622 106 -621 l 31 -722 l 49 -746 l 50 -746 l 53 -746 q 65 -742 56 -746 q 76 -737 75 -737 q 91 -735 79 -736 q 106 -735 103 -735 q 120 -724 113 -724 q 138 -722 128 -725 q 143 -716 144 -719 q 150 -712 142 -712 l 192 -712 q 210 -724 200 -719 q 229 -736 219 -729 l 276 -736 l 288 -747 l 317 -747 q 372 -793 342 -775 q 428 -837 401 -811 q 438 -843 432 -843 q 447 -847 444 -843 q 456 -856 450 -850 q 463 -861 461 -861 q 469 -865 464 -862 q 476 -868 475 -867 q 497 -887 488 -876 q 522 -901 507 -897 q 538 -902 525 -901 q 551 -904 550 -903 q 558 -907 553 -904 q 565 -912 563 -910 q 569 -916 567 -914 q 572 -918 572 -918 q 612 -936 592 -929 q 651 -951 632 -943 q 657 -957 657 -951 q 660 -958 658 -957 q 664 -960 663 -960 q 676 -961 667 -960 q 689 -962 686 -962 q 713 -981 700 -974 q 736 -993 725 -987 q 754 -998 747 -999 q 771 -1008 761 -997 l 811 -1008 q 828 -1019 818 -1019 q 847 -1025 839 -1019 q 856 -1031 850 -1028 q 863 -1033 863 -1033 l 951 -1033 z "},"M":{"ha":1276,"x_min":25,"x_max":1460,"o":"m 1110 -531 q 1117 -537 1113 -531 q 1128 -551 1122 -544 q 1140 -565 1135 -558 q 1151 -571 1146 -571 l 1154 -571 l 1169 -556 l 1175 -556 q 1187 -559 1182 -556 q 1199 -562 1192 -562 l 1269 -562 q 1281 -557 1276 -557 q 1292 -553 1285 -557 q 1304 -541 1299 -549 q 1319 -532 1310 -533 l 1404 -428 q 1415 -407 1406 -417 q 1428 -390 1424 -397 q 1430 -385 1429 -390 q 1432 -379 1431 -381 q 1441 -367 1435 -376 q 1450 -356 1447 -358 q 1451 -350 1451 -354 q 1453 -344 1451 -347 q 1455 -342 1453 -344 q 1457 -337 1457 -339 q 1459 -315 1460 -328 q 1458 -292 1458 -301 l 1458 -262 q 1453 -256 1457 -261 q 1447 -244 1450 -250 l 1418 -210 l 1364 -210 l 1276 -315 l 1292 -336 l 1342 -336 q 1351 -358 1344 -350 l 1351 -408 q 1345 -422 1351 -411 q 1336 -433 1339 -433 l 1271 -433 q 1265 -431 1271 -433 q 1254 -427 1260 -429 q 1244 -422 1249 -425 q 1239 -419 1239 -419 q 1228 -408 1236 -417 q 1221 -396 1221 -399 q 1206 -391 1211 -396 q 1196 -379 1200 -386 q 1183 -364 1192 -372 q 1175 -356 1175 -356 l 1175 -307 q 1172 -298 1175 -304 q 1168 -290 1168 -292 l 1168 -157 l 1175 -149 l 1175 -54 l 1183 -46 l 1183 -17 l 1192 -4 l 1192 49 l 1200 60 l 1200 111 q 1204 117 1203 114 q 1208 124 1206 121 q 1210 147 1210 139 q 1219 167 1210 156 l 1219 264 q 1222 272 1219 268 q 1226 279 1224 276 l 1226 439 l 1236 451 l 1236 607 l 1243 618 l 1243 951 l 1251 961 l 1251 1061 l 1260 1072 l 1260 1171 q 1259 1174 1260 1171 q 1258 1178 1258 1176 q 1251 1194 1254 1185 q 1246 1211 1249 1203 q 1235 1225 1243 1214 q 1225 1240 1228 1236 q 1222 1246 1224 1242 q 1221 1250 1221 1250 q 1213 1262 1218 1256 q 1206 1268 1207 1268 l 1131 1268 q 1109 1257 1119 1268 q 1090 1240 1099 1246 q 1067 1232 1081 1233 q 1043 1224 1054 1231 q 1039 1221 1042 1224 q 1036 1218 1036 1218 q 1025 1217 1035 1217 q 1014 1217 1017 1217 q 1001 1209 1007 1214 q 989 1201 996 1204 l 908 1111 q 903 1107 906 1110 q 897 1103 900 1104 l 856 1058 q 852 1069 853 1061 q 849 1079 851 1076 l 849 1150 q 847 1153 849 1150 q 844 1157 846 1156 q 839 1174 840 1165 q 833 1190 838 1183 q 827 1198 832 1192 q 822 1206 822 1204 q 820 1213 822 1208 q 818 1218 818 1217 l 796 1247 q 776 1254 782 1249 q 761 1260 769 1260 q 743 1250 751 1260 q 690 1237 708 1247 q 649 1199 672 1226 q 623 1186 633 1196 q 600 1171 613 1176 l 532 1092 l 522 1092 q 514 1082 519 1089 q 502 1068 508 1075 q 490 1055 496 1061 q 483 1047 485 1049 q 458 1028 474 1032 l 458 1126 q 451 1147 458 1140 q 442 1165 444 1154 q 442 1176 442 1168 q 440 1188 442 1185 q 434 1197 439 1190 q 426 1206 429 1204 q 421 1206 425 1206 q 415 1207 417 1207 q 378 1190 392 1207 q 365 1179 368 1185 q 353 1171 361 1174 l 321 1136 l 319 1136 l 318 1136 q 315 1139 317 1138 q 313 1142 313 1140 l 308 1142 l 307 1142 l 264 1117 q 249 1114 254 1115 q 241 1110 244 1113 q 233 1103 238 1107 q 222 1094 229 1099 q 214 1091 222 1094 q 203 1086 206 1088 q 184 1071 196 1081 q 165 1053 172 1061 q 138 1035 151 1042 q 111 1021 125 1028 l 25 918 l 25 914 l 40 894 l 42 894 q 66 903 51 894 q 95 923 81 911 q 123 946 110 935 q 144 964 136 957 q 151 966 146 965 q 156 967 156 967 l 171 982 q 174 983 172 982 q 178 985 175 985 q 187 986 179 985 q 196 988 194 988 q 210 996 199 990 q 225 1004 222 1001 q 227 1003 226 1004 q 228 1003 228 1003 q 230 999 229 1001 q 231 997 231 997 l 231 504 l 239 488 l 239 428 l 247 418 l 247 -176 l 239 -186 l 239 -240 q 238 -242 239 -240 q 233 -244 236 -244 l 228 -247 q 219 -249 225 -249 q 210 -250 213 -250 l 124 -353 l 124 -358 l 140 -376 l 146 -376 q 185 -362 167 -376 q 222 -340 203 -347 l 260 -296 q 285 -290 267 -297 q 308 -276 304 -283 l 335 -276 q 343 -282 339 -282 l 346 -282 q 349 -281 347 -282 q 351 -279 350 -279 q 357 -282 353 -279 q 363 -285 361 -285 l 378 -285 l 386 -285 l 475 -182 l 475 -176 q 468 -167 475 -174 q 458 -157 461 -160 q 449 -156 457 -156 q 438 -156 440 -156 q 435 -151 435 -156 l 435 -150 l 435 -149 q 438 -143 435 -147 q 442 -137 440 -139 l 442 46 l 451 58 l 451 793 l 458 804 l 458 957 q 465 964 458 957 q 476 974 472 971 q 478 974 476 974 q 479 976 479 975 q 485 981 482 978 q 489 985 488 983 q 500 997 492 988 q 517 1015 508 1006 q 532 1034 525 1025 q 542 1047 539 1043 q 552 1047 544 1046 q 563 1050 560 1049 q 569 1056 564 1050 q 576 1064 575 1063 q 584 1067 578 1065 q 598 1072 590 1069 q 613 1076 606 1074 q 621 1078 619 1078 l 631 1078 q 637 1070 632 1076 q 642 1061 642 1064 q 649 1049 644 1058 q 654 1038 654 1040 l 654 918 q 660 910 657 914 q 663 899 663 906 q 658 889 663 892 q 654 879 654 886 l 654 26 q 648 19 651 25 q 644 11 644 14 l 644 -99 q 639 -106 642 -101 q 636 -114 636 -110 l 636 -210 q 629 -226 629 -215 q 629 -246 629 -239 l 629 -261 q 635 -268 635 -264 q 636 -278 636 -272 l 636 -285 l 618 -304 l 638 -325 q 641 -326 638 -325 q 647 -326 644 -326 q 672 -317 663 -326 q 692 -294 681 -307 l 799 -294 q 814 -285 806 -285 l 901 -182 l 901 -176 l 885 -157 l 879 -157 q 861 -167 869 -157 l 825 -167 l 829 -157 q 829 -143 829 -154 q 831 -129 829 -132 q 834 -122 831 -128 q 838 -114 838 -115 q 839 -99 839 -111 q 839 -85 839 -87 q 844 -78 840 -82 q 849 -74 847 -75 l 849 679 l 854 689 l 854 874 q 852 883 854 876 q 850 892 850 890 l 850 976 l 888 1024 q 903 1037 897 1026 q 918 1047 908 1047 l 939 1065 q 951 1070 946 1065 q 963 1081 957 1075 q 976 1092 969 1088 q 990 1097 982 1097 q 997 1094 993 1097 q 1003 1089 1000 1090 q 1013 1088 1006 1089 q 1022 1086 1019 1088 q 1023 1078 1022 1083 q 1025 1069 1024 1072 q 1033 1058 1026 1067 q 1040 1050 1039 1050 q 1042 1031 1044 1038 q 1050 1018 1039 1025 l 1050 988 l 1058 976 l 1058 631 l 1050 622 l 1050 538 l 1042 513 l 1042 381 q 1038 372 1040 379 q 1031 354 1035 364 q 1026 336 1028 344 q 1024 326 1024 328 l 1024 232 q 1019 224 1022 229 q 1015 217 1015 219 l 1015 24 q 1010 13 1011 21 q 1008 3 1008 6 l 1008 -89 q 1015 -97 1014 -92 q 1015 -107 1015 -101 q 1012 -122 1015 -117 q 1008 -133 1008 -126 l 1008 -287 l 1015 -296 l 1015 -333 q 1022 -349 1022 -340 q 1025 -368 1022 -357 q 1039 -402 1029 -386 q 1058 -431 1049 -418 q 1063 -445 1061 -437 q 1068 -458 1064 -453 q 1076 -469 1069 -461 q 1083 -479 1083 -476 q 1086 -490 1085 -482 q 1086 -501 1088 -499 l 1110 -531 m 738 -143 l 738 -146 q 736 -151 738 -150 l 736 -150 l 736 -149 q 737 -145 736 -147 q 738 -143 738 -143 m 339 592 l 339 622 l 342 622 l 342 589 l 339 592 m 339 1065 q 343 1056 343 1061 l 343 1054 l 343 1053 q 339 1050 343 1050 l 339 1065 z "},"N":{"ha":1017,"x_min":11,"x_max":1643,"o":"m 1260 -1372 q 1276 -1383 1265 -1381 q 1301 -1388 1288 -1386 q 1326 -1394 1314 -1390 q 1344 -1406 1338 -1397 q 1334 -1412 1342 -1414 q 1322 -1418 1326 -1411 q 1310 -1423 1317 -1424 q 1300 -1429 1304 -1422 q 1285 -1437 1293 -1432 q 1268 -1440 1278 -1443 q 1256 -1446 1261 -1443 q 1247 -1456 1251 -1449 q 1242 -1462 1238 -1454 q 1253 -1467 1246 -1469 q 1258 -1472 1261 -1464 q 1262 -1480 1263 -1475 q 1268 -1482 1261 -1485 q 1276 -1482 1271 -1481 q 1279 -1478 1281 -1483 q 1283 -1473 1281 -1474 q 1289 -1472 1286 -1472 q 1295 -1472 1293 -1472 q 1296 -1467 1297 -1471 q 1340 -1440 1319 -1456 q 1381 -1406 1361 -1424 l 1424 -1389 l 1488 -1337 l 1643 -1225 l 1617 -1199 l 1533 -1249 l 1522 -1257 q 1506 -1262 1518 -1257 q 1478 -1274 1493 -1268 q 1451 -1285 1464 -1281 q 1435 -1290 1439 -1290 q 1261 -1274 1351 -1293 q 1094 -1210 1171 -1254 q 964 -1099 1018 -1167 q 899 -936 910 -1031 q 893 -907 896 -925 q 889 -878 890 -889 q 893 -845 886 -864 q 894 -814 900 -826 l 885 -282 l 890 -269 l 890 -83 l 883 -71 l 883 39 l 875 51 l 875 239 l 867 254 l 867 590 l 858 604 l 858 667 q 852 679 856 669 q 847 700 849 689 q 842 722 844 711 q 839 739 840 733 q 826 781 836 761 q 803 815 817 800 q 776 842 790 831 q 750 863 761 854 q 719 883 733 879 q 681 893 704 886 l 572 893 q 566 889 569 893 q 563 883 563 885 l 511 883 q 492 865 500 869 q 468 856 483 860 q 465 854 467 856 q 463 853 463 853 l 392 763 l 389 763 l 389 828 q 388 831 389 828 q 386 836 388 835 q 383 862 382 849 q 376 885 383 875 q 369 899 374 890 q 363 907 364 907 l 306 907 q 290 897 297 907 q 274 885 282 888 q 252 881 261 882 q 233 876 243 879 q 208 865 222 872 q 175 844 194 858 q 159 833 168 838 q 133 810 150 828 q 86 757 115 793 q 11 651 57 721 l 31 626 l 57 658 q 60 659 57 658 q 64 661 63 660 q 74 674 67 664 q 83 688 81 683 l 107 688 q 111 692 107 688 q 117 696 115 696 l 158 696 q 168 685 165 690 q 176 672 171 681 l 176 578 q 183 568 179 575 q 186 558 186 561 l 186 338 l 194 326 l 194 257 q 195 253 194 257 q 197 249 196 250 q 201 242 199 246 q 203 236 203 239 l 203 -54 l 211 -67 l 211 -319 q 210 -324 211 -321 q 208 -326 208 -326 l 204 -343 l 218 -628 l 226 -643 l 185 -703 l 203 -728 l 357 -728 q 379 -711 365 -715 l 469 -586 l 469 -579 l 454 -560 q 453 -558 454 -558 q 453 -558 453 -558 q 434 -568 442 -558 q 417 -578 426 -578 q 413 -577 415 -578 q 410 -576 411 -576 q 407 -572 410 -575 q 404 -565 404 -568 l 390 -382 q 392 -374 390 -379 q 396 -365 394 -368 q 397 -338 396 -354 q 407 -314 399 -322 l 407 -36 l 414 -24 l 414 414 q 411 424 414 418 q 407 433 408 431 l 407 661 q 399 679 399 668 q 404 690 399 686 q 413 697 410 694 l 447 697 q 457 717 442 708 q 499 728 472 725 q 558 727 525 731 q 618 713 590 724 q 664 684 646 703 q 681 638 682 665 l 681 542 q 685 533 681 539 q 689 524 689 526 l 689 -74 l 697 -90 l 697 -158 l 706 -178 l 706 -846 q 712 -855 708 -849 q 715 -864 715 -861 l 722 -953 q 733 -994 726 -964 q 754 -1066 739 -1025 q 795 -1153 769 -1107 q 865 -1240 821 -1199 q 972 -1314 908 -1282 q 1125 -1358 1035 -1346 q 1133 -1367 1128 -1362 q 1140 -1372 1139 -1372 l 1260 -1372 m 294 -574 l 294 -576 l 292 -576 l 294 -574 z "},"O":{"ha":904,"x_min":3,"x_max":867,"o":"m 150 -507 q 172 -517 165 -517 q 193 -525 178 -518 q 206 -535 201 -528 q 219 -546 210 -543 q 232 -548 222 -547 q 243 -549 242 -549 q 256 -560 250 -551 q 271 -569 263 -568 q 287 -573 276 -571 q 309 -578 297 -575 q 331 -584 321 -581 q 344 -590 340 -587 q 348 -592 346 -592 q 350 -593 350 -593 l 538 -593 q 553 -581 543 -586 q 569 -572 563 -575 q 581 -572 572 -572 q 590 -569 589 -571 q 610 -551 601 -562 q 631 -536 618 -540 q 647 -534 642 -533 q 658 -528 651 -535 l 794 -368 q 801 -349 794 -360 q 815 -326 807 -337 q 830 -305 822 -315 q 840 -287 838 -294 q 847 -268 846 -278 q 853 -247 849 -258 q 856 -242 854 -246 q 858 -239 858 -239 l 858 117 l 867 129 l 867 242 q 858 262 860 251 q 850 283 857 272 q 848 289 849 286 q 847 292 847 292 l 847 681 l 838 693 l 838 764 q 825 788 826 772 q 817 815 824 804 l 817 951 l 806 964 l 806 1026 q 793 1042 797 1033 q 787 1059 789 1050 q 783 1078 785 1068 q 775 1099 781 1088 q 759 1119 768 1110 q 743 1136 750 1128 q 731 1149 740 1139 q 719 1163 722 1160 q 698 1171 708 1172 q 676 1183 688 1169 l 631 1183 q 621 1190 628 1188 q 611 1193 614 1193 l 483 1193 q 477 1188 482 1192 q 469 1183 472 1183 l 374 1183 q 349 1169 364 1169 q 322 1168 333 1168 q 304 1160 311 1158 q 286 1157 297 1163 q 278 1148 285 1156 q 268 1139 271 1140 q 265 1138 268 1139 q 261 1136 263 1136 q 255 1135 260 1136 q 249 1133 250 1133 l 231 1115 q 222 1111 228 1113 q 213 1110 215 1110 l 107 983 q 92 962 96 972 q 78 940 88 951 q 72 931 76 938 q 61 918 67 925 q 50 905 56 911 q 43 896 44 899 q 35 874 39 886 q 26 849 31 861 q 15 826 21 836 q 3 810 8 815 l 3 803 q 4 792 3 796 q 6 783 6 789 q 3 768 6 774 l 3 557 q 13 529 13 546 q 13 497 13 513 l 22 485 l 22 318 q 26 309 22 315 q 31 301 31 303 l 31 171 q 41 147 40 161 q 43 119 42 133 l 53 108 l 53 25 l 64 13 l 64 -32 l 72 -49 l 72 -153 l 82 -169 l 82 -400 l 104 -424 l 204 -311 l 204 -331 l 107 -447 l 107 -451 q 110 -461 107 -457 q 117 -468 114 -465 q 133 -488 119 -474 q 150 -507 146 -503 m 431 -433 l 400 -433 l 390 -422 l 363 -422 q 338 -405 351 -407 q 311 -397 325 -403 q 306 -393 310 -397 q 301 -389 303 -389 q 291 -384 299 -387 q 276 -378 283 -381 q 262 -372 268 -375 q 256 -369 256 -369 l 256 -368 l 306 -278 q 323 -258 306 -276 q 360 -219 340 -240 q 398 -181 381 -199 q 417 -161 415 -162 l 390 -139 q 378 -146 389 -137 q 356 -165 368 -154 q 333 -183 344 -175 q 321 -189 322 -192 l 321 -135 l 310 -121 l 310 -14 q 306 -5 310 -11 q 300 4 301 1 l 300 85 q 297 96 300 88 q 290 108 294 104 l 290 251 q 287 263 290 254 q 281 275 283 271 l 281 358 q 276 365 278 361 q 271 372 274 369 q 270 400 271 390 q 260 421 269 410 l 260 461 l 250 474 l 250 554 q 248 561 250 554 q 243 571 246 568 q 240 606 239 586 q 229 638 240 626 l 229 957 q 244 953 236 954 q 251 964 253 953 q 264 963 258 965 q 268 953 269 960 q 278 932 281 942 q 283 928 282 932 q 283 918 283 924 q 283 908 283 913 q 283 899 282 903 l 283 894 q 277 888 275 896 q 274 878 279 881 q 268 872 276 869 q 270 865 265 867 q 274 857 275 863 l 278 857 q 285 851 276 849 q 300 851 294 854 q 306 858 306 854 q 311 867 306 864 q 315 884 317 874 q 326 899 314 894 q 326 938 329 917 q 315 974 324 958 q 291 999 307 990 q 251 1001 275 1007 q 246 996 254 993 q 235 988 240 990 q 225 979 229 986 q 206 974 214 982 q 189 961 199 965 l 150 917 l 150 929 q 153 955 150 946 q 163 970 157 964 q 176 982 168 976 q 193 994 183 988 q 200 1002 194 996 q 207 1008 206 1008 q 228 1015 215 1013 q 255 1019 242 1017 q 279 1024 268 1021 q 294 1033 290 1026 l 385 1033 q 391 1036 386 1033 q 400 1042 396 1039 q 406 1044 406 1042 l 526 1044 q 535 1040 531 1044 q 542 1033 539 1036 l 590 1033 q 603 1022 594 1024 q 619 1021 613 1019 q 628 1006 622 1011 q 639 995 633 1000 q 650 985 644 990 q 658 972 656 981 q 660 963 660 971 q 660 951 660 954 q 662 943 661 949 q 663 938 663 938 q 672 927 665 935 q 681 917 678 919 l 681 860 l 690 844 l 690 715 q 698 685 697 701 q 710 661 699 668 l 710 589 q 714 580 710 586 q 721 571 718 574 l 721 194 q 723 187 721 193 q 728 176 725 181 q 731 158 731 167 q 739 142 732 149 l 739 38 l 731 25 l 731 -331 q 718 -357 718 -339 q 708 -389 718 -376 q 696 -398 703 -396 q 682 -406 689 -400 q 673 -413 681 -407 q 663 -421 665 -419 q 638 -431 651 -428 q 613 -444 624 -433 l 440 -444 l 431 -433 z "},"P":{"ha":667,"x_min":14,"x_max":653,"o":"m 138 -685 q 149 -703 140 -696 l 153 -697 l 153 -621 l 163 -606 l 163 -515 l 171 -500 l 171 -383 l 179 -369 l 179 -281 q 182 -278 179 -278 q 188 -278 185 -278 q 199 -292 192 -278 q 213 -324 206 -307 q 227 -355 219 -340 q 242 -369 235 -369 q 247 -369 244 -369 q 250 -365 250 -368 l 250 79 q 253 83 250 82 q 257 83 256 83 q 269 66 261 83 q 287 28 278 49 q 305 -9 296 8 q 318 -26 314 -26 q 326 -19 325 -26 q 328 -6 328 -11 q 327 6 328 1 q 319 18 326 11 l 319 135 q 315 151 313 143 q 311 168 318 160 l 311 267 q 308 273 308 271 q 307 279 307 275 q 308 285 307 282 q 310 292 310 289 l 310 293 q 308 301 310 296 q 304 308 306 306 l 304 378 l 307 382 q 308 380 307 381 q 310 378 310 379 q 322 358 317 369 q 333 338 328 346 q 347 315 338 331 q 368 284 357 300 q 390 255 379 268 q 407 240 401 242 l 425 240 q 458 244 439 240 q 495 256 476 249 q 531 271 514 263 q 558 288 547 279 q 571 291 564 290 q 582 296 578 292 l 621 332 q 622 334 621 332 q 624 338 624 336 q 627 372 626 350 q 636 404 628 394 l 636 469 q 641 485 643 476 q 646 501 639 494 l 646 592 l 653 607 l 653 742 q 642 761 653 746 q 617 794 631 776 q 589 828 603 811 q 571 853 575 844 l 518 908 q 514 916 517 911 q 510 924 511 921 q 501 932 508 925 q 488 947 494 939 q 474 961 481 954 q 465 971 467 968 q 460 978 458 978 q 453 985 461 978 l 439 985 q 391 976 415 985 q 344 958 367 967 q 324 948 331 953 q 307 943 318 943 q 299 944 304 943 q 293 950 293 944 l 293 1032 l 286 1038 l 213 1038 q 206 1034 211 1036 q 199 1032 201 1032 l 197 1032 l 196 1032 q 188 1034 193 1032 q 181 1038 183 1036 l 22 1038 q 19 1031 19 1038 l 19 1026 q 20 1007 19 1019 q 22 986 21 994 q 22 976 22 978 l 31 961 l 31 906 l 39 892 l 39 836 q 45 821 43 832 q 49 797 47 810 q 53 772 51 785 q 56 750 54 758 q 56 742 56 749 q 56 727 56 735 q 58 713 57 719 q 58 704 58 706 q 61 696 58 701 q 64 689 64 690 q 65 663 67 678 q 74 636 64 647 l 74 581 l 83 565 l 83 510 l 92 496 l 92 440 q 98 422 97 433 q 99 403 99 410 q 92 396 99 396 q 56 409 71 396 q 21 422 42 422 l 19 422 q 17 420 18 422 q 14 417 15 418 l 14 406 l 14 396 q 17 389 14 394 q 19 382 19 383 q 26 336 24 358 q 32 290 28 314 q 35 283 32 289 q 38 276 38 278 q 41 251 40 264 q 43 226 42 239 q 49 202 46 214 q 56 179 53 190 q 56 171 56 178 q 56 156 56 164 q 58 141 57 149 q 58 132 58 133 q 61 125 58 131 q 64 118 64 119 q 64 108 64 115 q 65 94 64 101 q 66 79 65 86 q 67 71 67 72 q 69 63 67 68 q 74 56 72 58 l 74 0 q 81 -11 81 -7 q 82 -22 82 -15 q 82 -31 82 -28 q 75 -35 82 -35 l 72 -35 l 32 3 l 29 4 q 22 0 24 4 l 22 -12 l 22 -26 q 25 -33 22 -28 q 29 -40 28 -39 q 30 -60 29 -43 q 32 -79 31 -76 q 39 -103 35 -90 q 46 -129 43 -117 q 54 -186 51 -157 q 64 -243 57 -215 q 66 -262 67 -257 q 74 -278 65 -267 l 74 -333 q 88 -381 86 -350 q 93 -431 90 -412 q 101 -460 96 -446 q 108 -489 106 -474 q 118 -560 114 -525 q 128 -632 122 -596 q 131 -640 128 -633 q 133 -647 133 -646 q 136 -666 135 -651 q 138 -685 138 -681 m 354 379 q 357 388 354 386 l 369 388 q 402 383 388 388 q 436 378 417 378 q 445 372 440 376 q 450 363 450 368 q 436 335 450 350 q 415 314 422 321 l 414 314 l 413 314 q 409 315 411 314 q 407 317 407 317 l 360 364 q 354 379 354 368 m 299 446 q 300 452 299 449 q 301 458 301 456 l 301 461 q 298 468 300 463 q 296 475 296 474 q 294 475 294 475 q 294 476 294 476 q 294 476 294 476 q 296 478 294 478 q 298 485 296 479 q 301 493 300 492 l 301 494 l 301 496 q 298 503 300 497 q 296 510 296 508 q 294 510 294 510 q 294 511 294 511 q 296 513 294 513 q 298 521 296 515 q 301 528 300 526 l 301 529 l 301 531 q 298 538 300 533 q 296 546 296 543 l 296 592 q 297 597 296 593 q 299 601 297 600 l 299 604 l 299 607 q 296 615 296 610 l 296 874 q 309 885 296 879 q 340 896 322 892 q 373 903 357 900 q 394 906 389 906 l 410 906 q 421 891 417 901 q 427 867 425 881 q 431 842 429 854 q 433 821 432 829 q 435 793 433 814 q 436 765 436 772 l 443 750 l 443 651 l 450 636 l 450 440 l 444 435 q 440 433 444 433 q 436 433 438 433 q 419 437 426 433 q 403 440 413 440 q 383 432 393 440 l 328 432 q 320 429 325 432 q 313 425 315 426 l 311 425 q 302 433 306 425 q 299 446 299 442 z "},"Q":{"ha":1103,"x_min":-283,"x_max":1096,"o":"m 454 -225 l 474 -243 q 479 -245 474 -244 q 488 -246 485 -246 l 524 -246 l 547 -246 l 568 -228 q 575 -226 569 -226 q 583 -225 581 -225 q 609 -224 589 -225 q 636 -222 629 -222 l 683 -181 q 685 -180 683 -181 q 688 -178 686 -179 q 697 -177 690 -178 q 706 -176 703 -176 l 729 -154 l 753 -154 l 790 -122 q 794 -126 792 -124 q 799 -129 797 -128 q 801 -131 800 -129 q 804 -132 803 -132 l 822 -150 l 836 -153 l 982 -256 q 990 -250 983 -256 q 999 -242 996 -244 q 1026 -214 1010 -231 q 1058 -182 1043 -197 q 1085 -155 1074 -167 q 1096 -143 1096 -143 l 1096 -139 l 1078 -121 l 1054 -139 l 921 -36 q 911 -22 918 -29 q 897 -12 904 -15 l 897 6 l 942 57 q 942 63 942 57 q 943 71 943 68 q 945 85 944 74 q 946 99 946 96 l 967 125 q 972 153 963 140 q 992 174 981 165 l 992 243 l 1035 288 l 1038 301 l 1038 546 q 1056 571 1053 560 q 1060 601 1060 582 l 1060 618 q 1046 635 1054 629 q 1038 656 1038 642 l 1038 757 l 994 804 q 994 810 994 804 q 993 821 993 817 q 991 835 992 824 q 990 850 990 847 q 978 863 983 858 q 967 874 972 867 q 956 887 964 876 q 946 900 949 897 q 946 910 947 903 q 943 921 944 918 q 937 927 943 921 q 928 936 931 933 q 922 939 925 939 q 921 944 921 939 l 878 990 q 867 1016 875 1008 q 849 1028 858 1024 q 833 1039 839 1033 q 828 1060 826 1044 l 788 1103 l 746 1103 l 719 1125 q 708 1126 717 1125 q 697 1128 700 1126 q 688 1136 694 1129 q 678 1144 681 1143 q 671 1149 674 1149 q 649 1153 657 1151 q 626 1160 640 1154 q 617 1165 625 1161 q 601 1173 610 1168 q 585 1181 593 1178 q 576 1186 578 1185 q 566 1190 569 1189 q 557 1196 563 1190 l 461 1196 q 442 1206 451 1203 q 422 1217 432 1210 q 398 1217 417 1217 q 374 1218 379 1218 l 256 1218 l 138 1218 q 92 1210 114 1215 q 47 1196 69 1204 l -49 1196 q -101 1164 -75 1179 q -153 1131 -128 1149 q -172 1118 -160 1125 q -190 1104 -183 1111 l -283 1011 l -283 1007 l -267 990 l -265 990 q -249 998 -258 990 q -235 1008 -240 1006 q -193 1037 -214 1024 q -150 1063 -172 1050 q -136 1072 -147 1065 q -122 1081 -125 1078 l -29 1081 q 15 1095 -10 1088 q 61 1103 40 1103 l 296 1103 l 343 1100 q 358 1094 350 1097 q 371 1086 367 1092 q 357 1079 367 1079 q 343 1079 347 1079 l 206 939 q 203 927 204 935 q 199 915 201 919 l 154 869 q 141 833 157 849 q 113 804 125 817 q 106 778 107 793 q 106 753 106 764 l 64 708 l 58 657 l 38 633 l 38 311 l 60 285 l 60 194 q 67 187 60 193 q 78 178 74 181 q 90 162 85 172 q 107 150 96 151 l 107 96 q 114 90 107 96 q 124 81 121 83 q 131 78 126 78 l 131 26 l 147 10 q 164 -2 151 7 q 178 -18 176 -11 l 219 -64 q 222 -74 221 -68 q 224 -83 222 -79 q 260 -119 243 -100 q 294 -157 278 -139 q 303 -167 297 -160 q 310 -174 310 -174 q 319 -175 313 -175 q 329 -176 328 -175 q 334 -177 331 -176 q 339 -178 338 -178 q 347 -187 340 -181 q 357 -197 354 -194 q 369 -210 361 -201 q 381 -221 376 -218 q 389 -222 381 -221 q 401 -222 397 -222 q 428 -224 408 -224 q 454 -225 449 -225 m 478 -107 q 469 -94 478 -99 q 454 -83 461 -89 q 444 -72 451 -81 q 433 -61 436 -64 l 408 -61 l 453 -12 l 453 -8 l 436 8 q 422 20 429 14 q 411 33 414 26 q 408 47 410 36 q 406 60 407 57 q 399 73 403 68 q 388 85 394 78 l 388 129 l 410 153 l 410 201 l 456 247 l 456 292 l 478 318 l 478 328 q 477 358 478 343 q 460 381 476 372 l 457 381 l 454 381 q 444 380 451 381 q 433 378 436 379 q 414 360 426 367 q 388 354 401 353 q 365 333 376 343 q 340 315 353 324 l 340 319 l 361 343 q 362 358 361 347 q 363 381 363 368 q 363 403 363 393 q 364 418 364 414 q 365 426 364 421 q 367 432 365 431 l 386 453 l 386 522 l 432 574 l 432 597 l 456 621 l 456 639 l 501 688 l 482 707 l 475 707 q 465 707 472 707 q 457 704 460 707 q 447 694 454 701 q 436 685 439 688 l 388 681 l 367 663 q 353 660 364 660 q 340 660 343 660 l 340 697 q 342 706 340 700 q 343 711 343 711 l 363 732 l 363 783 l 385 807 q 390 833 386 821 q 401 858 394 846 q 406 865 404 863 q 408 874 408 868 l 408 876 l 392 893 l 388 893 l 294 800 q 250 729 276 758 q 247 693 247 714 q 244 660 246 672 q 229 642 235 650 q 224 621 224 633 l 224 476 l 243 457 l 317 529 q 317 528 317 529 q 318 526 318 528 q 310 510 318 517 q 296 497 301 503 l 296 478 l 269 450 l 269 381 q 253 363 258 369 q 247 340 249 356 q 247 313 247 333 q 244 285 246 292 l 226 264 q 222 236 226 249 q 214 256 225 247 q 196 271 203 264 l 176 290 l 176 367 l 154 392 l 154 688 l 175 711 q 176 738 175 718 q 178 764 176 758 q 178 772 178 767 q 181 781 179 778 q 199 800 185 785 q 217 821 213 815 q 219 824 218 821 q 222 828 221 826 q 223 844 222 831 q 224 860 224 857 q 226 868 225 863 q 226 874 226 874 l 336 988 q 347 998 338 990 q 360 1008 356 1006 q 374 1013 367 1014 q 389 1015 382 1011 q 400 1024 392 1018 q 411 1033 408 1031 l 501 1033 l 522 1053 l 525 1054 q 547 1046 536 1054 q 568 1035 557 1038 q 581 1033 571 1033 q 592 1032 590 1033 q 601 1025 594 1032 q 611 1015 608 1018 q 623 1009 618 1010 q 639 1008 628 1008 l 664 988 l 704 988 l 711 979 q 714 956 707 965 q 731 940 721 947 q 751 924 742 932 q 764 907 761 917 q 780 890 768 903 q 794 874 792 878 q 801 867 797 871 q 804 863 804 863 q 806 851 804 860 q 808 842 807 843 q 817 832 810 839 q 828 822 825 825 l 829 818 q 840 806 832 815 q 850 793 847 796 q 856 769 849 779 q 874 753 863 760 l 878 722 l 921 676 l 921 578 q 928 556 921 567 q 943 539 936 546 l 943 524 q 944 509 943 521 q 942 494 944 497 l 921 474 l 921 218 l 875 171 l 875 154 l 856 171 l 788 171 q 761 162 774 171 q 736 147 749 153 l 643 54 l 643 50 l 660 33 l 661 33 q 686 44 675 33 q 711 54 697 54 l 760 54 q 760 40 760 51 q 757 29 760 31 l 739 8 q 738 -1 739 7 q 736 -12 736 -8 q 735 -39 736 -19 q 733 -64 735 -58 l 692 -106 q 652 -109 668 -107 q 619 -129 636 -111 l 571 -129 q 570 -127 571 -129 q 568 -125 569 -125 q 559 -114 565 -121 q 553 -107 553 -107 l 478 -107 m 247 126 q 247 146 247 131 q 244 167 246 161 l 244 169 l 244 171 l 289 215 q 299 216 292 215 q 308 218 306 217 q 312 219 310 218 q 315 219 314 219 l 339 240 q 348 242 342 240 q 357 243 354 243 q 361 246 361 243 q 349 229 357 236 q 339 213 342 222 l 299 171 q 296 162 297 169 q 294 150 294 154 q 292 124 293 143 q 292 99 292 106 l 285 92 q 279 97 283 93 q 274 101 275 100 q 260 113 265 107 q 247 126 256 119 z "},"R":{"ha":919,"x_min":-156,"x_max":1576,"o":"m 1035 -689 q 1076 -696 1057 -689 q 1115 -712 1096 -703 q 1124 -715 1118 -714 q 1129 -717 1129 -717 l 1288 -717 q 1315 -701 1299 -706 q 1344 -699 1331 -697 q 1365 -685 1358 -686 q 1388 -679 1372 -685 q 1412 -672 1394 -678 q 1435 -662 1429 -665 q 1483 -626 1458 -640 l 1576 -533 l 1576 -528 l 1561 -511 l 1558 -511 q 1544 -517 1551 -511 q 1532 -525 1538 -522 q 1518 -537 1529 -528 q 1504 -549 1507 -547 q 1487 -556 1501 -551 q 1465 -562 1472 -561 q 1451 -565 1458 -565 q 1439 -568 1446 -565 q 1428 -575 1438 -569 q 1417 -582 1418 -581 q 1406 -583 1414 -582 q 1396 -583 1397 -583 q 1386 -586 1390 -586 l 1404 -565 l 1386 -547 q 1385 -547 1386 -547 q 1383 -546 1385 -546 q 1376 -549 1379 -546 q 1369 -554 1372 -551 l 1300 -554 q 1285 -547 1294 -554 q 1274 -536 1276 -539 l 1200 -536 q 1178 -526 1189 -528 q 1156 -518 1167 -525 l 1121 -518 l 1111 -508 l 1078 -508 q 1066 -494 1075 -503 q 1049 -489 1057 -486 l 994 -435 q 984 -431 989 -436 q 975 -418 979 -425 q 967 -403 971 -411 q 963 -393 964 -396 q 955 -383 961 -390 q 949 -374 949 -376 q 945 -362 946 -368 q 940 -351 944 -357 q 934 -342 938 -347 q 929 -332 931 -336 q 927 -321 926 -325 q 925 -310 928 -317 q 917 -297 922 -303 q 911 -286 913 -292 q 909 -275 910 -283 q 906 -262 908 -267 q 899 -253 904 -261 q 892 -244 893 -246 q 889 -229 889 -236 q 883 -218 889 -224 q 883 -206 883 -214 q 881 -187 882 -197 q 881 -168 881 -176 q 881 -156 881 -160 q 872 -135 881 -140 l 872 -49 q 864 -30 872 -44 q 854 -8 856 -15 q 847 26 851 10 q 840 61 843 43 l 836 68 q 835 87 836 72 q 833 106 835 101 q 828 128 832 113 q 817 147 824 143 l 817 185 q 807 195 814 188 q 799 208 800 203 q 798 218 799 210 q 797 229 797 226 q 791 236 796 231 q 785 243 786 242 q 776 265 778 253 q 767 288 775 276 q 759 295 765 289 q 753 304 753 301 q 750 309 751 304 q 747 315 749 314 q 726 342 738 331 q 703 367 715 353 q 685 386 696 374 q 675 399 675 399 l 675 401 l 753 481 q 757 489 754 485 q 761 497 760 493 l 789 525 l 789 563 q 799 582 800 569 q 806 604 797 594 l 806 903 q 789 938 793 914 q 774 976 785 961 q 758 993 768 983 q 746 1014 747 1003 q 728 1032 742 1018 q 710 1049 714 1046 q 703 1055 708 1051 q 694 1061 699 1058 q 687 1067 692 1063 q 676 1077 682 1072 q 666 1087 671 1082 q 660 1093 661 1092 q 653 1099 657 1096 q 647 1103 649 1103 q 638 1103 646 1103 q 629 1104 631 1104 q 619 1110 622 1107 q 608 1113 615 1113 q 593 1111 601 1113 q 581 1104 585 1110 l 531 1104 q 517 1098 531 1104 q 501 1090 503 1092 q 447 1061 474 1076 q 393 1031 419 1046 q 391 1028 393 1029 q 389 1028 389 1028 q 383 1027 388 1028 q 378 1025 378 1026 q 369 1019 375 1024 q 361 1011 363 1014 l 361 1015 q 368 1031 361 1018 q 378 1047 375 1044 l 378 1086 l 358 1104 l 342 1090 q 334 1092 338 1090 q 325 1093 331 1093 q 306 1088 317 1093 q 289 1076 296 1082 l 254 1076 q 207 1056 229 1069 q 163 1029 185 1043 q 117 1003 140 1015 q 69 985 94 990 q 51 979 61 978 q 32 974 40 981 q 10 969 21 974 q -11 968 0 965 q -83 958 -47 960 q -156 958 -119 957 q -155 949 -154 954 q -156 939 -156 944 q -153 932 -156 935 q -144 932 -151 929 q -110 927 -128 926 q -76 930 -93 928 q -41 933 -58 932 q -6 932 -24 935 q 55 932 25 931 q 113 942 85 933 q 126 942 118 944 q 133 947 135 939 l 132 953 l 132 897 q 124 879 124 890 q 117 863 124 869 q 106 820 115 843 q 89 779 96 797 q 79 746 82 763 q 63 714 76 729 l 63 708 q 69 702 63 708 q 79 693 75 696 q 88 690 82 690 q 96 690 93 690 l 104 690 q 109 694 106 690 q 114 697 113 697 q 125 698 117 697 q 135 700 133 699 q 155 709 146 703 q 175 715 164 715 q 201 717 185 717 q 217 718 217 718 l 228 725 q 225 715 228 722 q 219 700 222 708 q 214 685 217 692 q 210 676 211 678 q 205 670 208 675 q 200 665 201 665 q 194 651 196 658 q 189 636 192 644 q 181 624 186 629 q 172 614 175 619 q 169 601 171 611 q 168 590 168 592 q 149 565 161 578 q 133 539 136 551 q 131 531 132 536 q 131 522 131 525 q 108 498 121 514 q 89 471 96 482 q 86 464 88 469 q 83 457 85 458 q 74 446 79 450 q 69 433 69 442 l 69 432 l 90 411 q 93 410 92 411 q 96 410 94 410 q 99 410 97 410 q 103 411 101 411 q 108 414 104 411 q 111 418 111 417 q 135 423 119 421 q 158 429 151 425 q 169 438 161 431 q 179 446 176 444 q 193 448 182 447 q 207 449 204 449 q 197 417 197 435 q 196 385 196 400 q 188 367 189 376 q 178 350 188 357 l 178 319 q 169 308 175 315 q 161 294 163 301 q 159 281 160 292 q 158 267 158 269 q 147 244 149 257 q 140 219 144 231 q 131 201 136 210 q 124 182 126 193 q 108 156 119 168 q 97 126 97 143 l 97 124 q 107 113 100 121 q 121 106 114 106 q 131 111 125 106 l 161 111 l 169 119 q 174 120 171 119 q 176 122 176 121 q 188 131 179 124 q 197 138 196 138 q 208 140 200 139 q 217 140 215 140 q 222 144 218 140 q 226 147 225 147 q 232 146 226 146 q 227 132 232 142 q 219 119 222 122 q 217 105 218 117 q 214 89 215 93 l 210 81 q 208 76 208 79 q 207 74 207 74 q 206 59 207 71 q 206 44 206 47 q 203 42 204 44 q 203 40 203 40 q 200 34 201 39 q 197 29 199 29 q 191 15 196 25 q 180 -8 186 4 q 168 -31 174 -21 q 161 -46 163 -42 q 154 -69 163 -60 q 142 -90 146 -78 q 141 -97 142 -92 q 140 -104 140 -103 q 131 -122 138 -114 q 121 -139 125 -131 q 78 -212 101 -178 q 35 -286 54 -247 q 22 -308 29 -296 q 14 -331 14 -319 l 14 -332 l 31 -349 l 35 -349 l 128 -256 q 147 -217 138 -236 q 168 -179 157 -197 q 177 -165 169 -176 q 193 -140 185 -153 q 209 -117 201 -128 q 218 -107 217 -107 q 222 -108 221 -107 q 226 -108 224 -108 l 228 -108 l 326 -11 q 340 13 338 0 q 350 38 343 25 q 357 51 350 40 q 365 64 364 61 q 367 66 367 64 q 368 68 368 68 q 378 97 371 75 q 389 126 386 119 q 403 158 400 140 q 407 192 407 175 q 420 215 415 204 q 428 238 425 226 q 437 260 432 250 q 451 282 442 271 l 451 322 l 436 339 l 433 339 q 403 328 418 339 q 375 311 389 317 l 342 281 q 335 283 339 283 q 321 276 326 283 q 307 267 315 269 q 291 260 299 264 q 275 254 283 257 q 267 252 272 254 q 261 250 261 250 q 244 238 254 246 q 226 229 235 229 l 224 229 q 242 267 244 243 l 296 322 q 300 330 297 325 q 306 336 303 335 q 312 344 307 338 q 322 356 317 350 q 333 368 328 363 q 340 376 338 374 q 353 424 339 404 q 378 467 368 443 q 383 484 381 476 q 392 501 386 492 q 399 512 394 506 q 406 522 403 518 q 407 540 408 532 q 415 553 406 547 l 415 581 q 419 585 417 582 q 424 590 422 589 l 424 592 q 418 607 424 601 q 406 618 413 613 l 396 618 q 358 601 374 618 q 333 599 343 600 q 310 593 322 599 q 305 591 308 592 q 300 590 301 590 l 272 564 q 234 550 250 563 q 203 538 218 538 l 203 542 l 219 560 q 232 560 225 557 q 242 567 239 564 l 344 669 q 357 688 347 678 q 371 701 367 697 q 385 725 379 713 q 399 749 390 738 q 401 752 399 750 q 403 756 403 754 q 408 769 407 763 q 414 783 410 776 q 424 794 417 786 q 433 804 431 801 q 434 817 433 807 q 436 831 435 828 q 440 840 436 836 q 443 850 443 843 q 443 856 443 853 q 440 863 443 860 q 431 873 438 867 q 424 879 425 879 l 413 879 q 396 865 406 869 q 376 859 386 861 q 356 854 365 857 q 338 843 346 851 l 300 843 l 292 835 q 298 847 294 842 q 303 858 301 851 q 308 885 306 875 q 314 903 310 896 q 326 916 318 910 q 350 931 335 922 q 361 936 351 932 q 372 942 371 940 q 401 961 388 950 q 431 976 415 972 q 445 964 438 969 q 450 947 453 958 q 465 904 469 932 q 470 895 469 900 q 472 885 471 890 q 474 874 472 879 q 482 867 475 869 q 488 769 490 818 q 476 672 485 719 q 458 581 468 624 q 439 503 447 538 q 439 517 438 510 q 450 525 440 524 q 469 560 460 544 q 488 594 479 575 q 497 610 499 600 q 503 626 496 619 q 533 708 522 665 q 547 796 544 751 q 543 884 549 840 q 525 968 538 928 q 479 974 494 972 q 459 978 464 976 q 455 981 454 979 q 458 988 456 983 l 508 988 q 526 996 514 996 q 538 990 535 996 l 568 986 l 631 925 l 636 911 l 661 886 q 667 872 663 882 q 675 851 671 861 q 683 831 679 840 q 689 821 688 822 l 689 532 q 684 516 685 525 q 681 499 683 507 q 676 494 679 499 q 674 488 674 489 q 672 479 672 485 q 671 471 671 474 q 668 470 669 471 q 667 469 667 469 q 662 465 665 468 q 657 463 658 463 q 640 460 647 460 q 626 453 633 461 l 583 453 q 583 453 583 453 q 582 456 582 454 q 587 460 583 456 q 592 467 590 465 q 592 474 592 468 q 594 481 593 479 q 602 499 597 490 q 610 518 607 507 q 612 526 611 519 q 613 535 613 532 q 617 546 615 542 q 619 558 619 550 l 619 560 l 603 576 l 599 576 l 506 483 q 497 467 501 472 q 493 450 493 463 l 421 376 l 421 371 q 428 363 421 369 q 438 354 435 357 q 447 353 439 354 q 457 353 454 353 l 465 346 q 476 344 468 344 q 486 343 485 344 q 491 340 488 343 q 496 336 494 336 q 506 334 499 335 q 517 333 514 333 l 450 264 l 450 260 q 456 251 450 257 q 465 243 463 246 q 473 241 468 242 q 479 240 478 240 q 478 233 478 238 l 478 232 q 506 210 490 217 q 538 194 521 203 q 542 192 539 193 q 544 189 544 190 q 560 174 549 186 q 575 160 572 163 q 589 133 578 146 q 606 110 600 121 q 607 100 607 108 q 608 92 607 93 q 622 67 611 81 q 640 47 633 54 q 644 32 643 39 q 653 19 644 25 l 653 -11 q 669 -42 667 -22 q 674 -76 672 -61 l 690 -94 l 690 -128 l 700 -136 l 700 -193 q 716 -231 713 -208 q 719 -272 719 -253 q 728 -294 728 -282 q 729 -318 729 -307 q 738 -331 732 -322 q 746 -344 744 -339 q 747 -356 746 -346 q 747 -369 747 -367 q 751 -376 749 -371 q 754 -383 754 -382 q 756 -400 756 -387 q 757 -417 757 -412 q 770 -433 763 -424 q 782 -446 778 -442 q 797 -484 783 -460 q 819 -518 810 -508 q 831 -531 824 -524 q 846 -546 839 -539 q 858 -558 853 -553 q 864 -562 864 -562 l 876 -568 l 919 -612 q 935 -617 933 -614 q 949 -628 938 -621 q 953 -631 949 -629 q 960 -633 958 -632 q 972 -644 963 -635 q 985 -656 982 -654 q 1010 -672 997 -667 q 1035 -689 1024 -676 m 289 688 q 292 685 292 688 q 289 683 292 683 q 286 685 286 683 q 289 688 286 688 z "},"S":{"ha":1168,"x_min":3,"x_max":1140,"o":"m 3 -68 q 9 -86 10 -79 q 13 -108 8 -93 q 20 -124 15 -115 q 28 -140 25 -133 q 33 -160 32 -150 q 42 -178 35 -169 q 48 -185 43 -179 q 54 -192 53 -190 q 55 -196 54 -192 q 57 -201 56 -200 q 96 -247 71 -231 q 101 -251 97 -249 q 106 -254 104 -253 q 117 -265 107 -257 q 128 -275 126 -274 q 134 -278 129 -276 q 140 -281 139 -279 q 167 -301 154 -290 q 193 -322 179 -311 q 222 -336 207 -331 q 251 -344 236 -342 q 279 -356 265 -349 q 306 -371 293 -364 q 328 -378 317 -376 q 351 -382 340 -379 q 367 -390 357 -385 q 382 -399 378 -396 l 636 -399 l 644 -390 l 729 -390 q 744 -381 735 -382 q 761 -375 754 -379 q 765 -374 763 -375 q 768 -374 768 -374 q 785 -372 772 -372 q 801 -371 797 -371 q 806 -367 801 -369 q 813 -364 810 -364 q 822 -363 814 -364 q 831 -361 829 -362 q 835 -358 832 -361 q 840 -354 839 -356 q 845 -353 842 -354 q 850 -351 849 -353 q 893 -324 874 -340 q 936 -294 913 -307 q 940 -292 938 -293 q 943 -289 943 -290 l 1036 -196 l 1040 -185 q 1063 -160 1051 -174 q 1082 -131 1075 -146 q 1086 -119 1085 -124 q 1092 -108 1088 -114 q 1101 -97 1093 -106 q 1111 -85 1108 -87 q 1115 -76 1111 -83 q 1119 -65 1118 -69 q 1128 -40 1126 -53 q 1140 -17 1129 -28 l 1140 86 l 1125 132 q 1121 139 1124 133 q 1118 146 1118 144 q 1111 161 1115 150 q 1103 184 1107 172 q 1094 207 1099 196 q 1089 222 1090 218 q 1088 226 1089 224 q 1085 229 1086 229 q 1083 235 1085 231 q 1081 242 1081 240 q 1013 314 1051 283 q 1003 322 1011 315 q 994 329 996 329 q 985 331 993 331 q 975 332 978 332 q 960 339 969 335 q 946 349 950 343 l 932 349 q 916 348 925 349 q 901 340 907 347 l 839 340 q 831 337 836 340 q 824 332 825 333 l 692 332 q 685 333 685 332 q 678 339 685 336 q 669 340 676 339 q 658 342 661 340 q 655 345 658 342 q 650 349 651 349 q 644 349 649 349 q 638 351 639 350 q 627 356 632 353 q 617 363 622 360 l 582 397 q 574 412 575 403 q 574 431 574 421 q 573 449 574 440 q 565 463 572 457 l 565 514 q 568 521 565 517 q 572 528 571 525 q 574 556 572 539 q 588 581 576 574 q 591 584 589 582 q 594 586 593 586 l 651 586 l 667 578 l 701 578 q 715 568 707 569 q 729 560 722 567 l 744 544 l 750 544 l 808 600 q 815 594 811 597 q 822 590 818 590 l 824 590 l 917 683 l 917 821 q 910 838 917 831 q 896 851 903 846 l 888 851 q 865 847 871 851 q 846 838 860 843 l 747 739 l 747 735 l 764 718 l 765 718 q 783 726 776 718 q 801 735 790 735 l 801 683 q 782 694 790 683 l 744 694 q 738 699 743 696 q 729 703 732 703 l 668 703 q 652 694 665 700 q 636 686 639 688 q 630 684 635 685 q 624 683 625 683 q 610 674 615 681 q 594 667 604 667 l 501 574 q 499 572 500 574 q 499 569 499 569 q 485 553 496 565 q 472 538 475 540 q 467 514 467 526 q 461 490 467 501 q 460 487 461 489 q 458 483 458 485 q 458 469 458 481 q 457 456 457 458 l 454 451 q 451 443 453 449 q 450 438 450 438 l 450 376 q 453 371 451 374 q 457 365 456 368 q 457 349 456 361 q 458 332 458 336 q 467 316 461 322 q 475 301 472 310 l 519 257 q 544 244 532 253 q 568 228 557 235 q 583 224 575 224 q 601 221 593 224 q 610 216 604 218 q 615 214 615 214 l 731 214 q 729 207 729 211 l 729 204 q 736 196 731 201 q 744 188 742 190 q 752 187 746 188 q 760 186 758 186 q 777 174 769 183 q 792 160 785 165 q 815 145 803 151 q 836 128 828 139 q 853 99 844 115 q 868 69 863 83 q 878 42 872 60 q 885 22 885 24 l 885 -65 l 867 -118 l 885 -136 l 889 -136 l 982 -43 q 992 -20 985 -40 q 1001 11 999 0 q 1003 35 1003 17 q 1003 60 1004 54 q 1008 54 1006 58 q 1010 49 1010 50 q 1019 25 1014 40 q 1025 8 1025 10 l 1025 -89 q 1012 -112 1014 -100 q 1006 -136 1010 -124 q 994 -158 1001 -150 q 978 -178 986 -167 q 972 -189 974 -183 q 968 -201 971 -194 q 957 -215 965 -208 q 946 -224 949 -221 q 935 -228 940 -228 q 925 -231 929 -228 q 914 -238 922 -232 q 903 -244 906 -244 q 889 -249 900 -247 q 875 -250 878 -250 q 863 -256 872 -254 q 841 -260 853 -258 q 818 -265 829 -262 q 801 -274 807 -268 l 717 -274 q 710 -278 715 -274 q 703 -282 704 -282 l 461 -282 q 447 -274 454 -275 q 433 -265 440 -272 q 399 -259 413 -268 q 365 -244 385 -250 q 362 -244 364 -244 q 358 -243 360 -243 q 347 -235 353 -240 q 333 -229 340 -231 q 324 -227 332 -228 q 315 -226 317 -226 q 306 -223 314 -226 q 296 -217 299 -219 q 280 -205 286 -211 q 264 -192 274 -199 q 251 -186 261 -190 q 240 -181 242 -182 q 232 -173 239 -179 q 224 -165 225 -167 q 218 -164 222 -165 q 213 -161 214 -162 q 174 -122 194 -149 q 147 -75 154 -96 q 142 -57 144 -67 q 136 -37 140 -47 q 132 -33 135 -37 q 128 -29 129 -29 q 126 -8 125 -17 q 119 11 126 0 l 119 139 q 131 135 125 138 q 143 132 136 132 l 144 132 l 238 225 l 225 225 q 255 226 239 225 q 284 225 271 226 q 308 219 297 224 q 321 203 318 215 l 326 203 q 324 190 329 194 q 321 176 318 185 q 312 173 314 179 q 311 161 310 167 q 303 161 308 160 q 300 156 297 163 q 294 150 303 147 q 290 145 292 147 q 289 139 288 143 q 278 128 275 142 q 270 128 275 126 q 268 124 265 129 q 259 119 263 124 q 256 107 256 114 q 258 96 256 101 q 268 92 261 90 q 282 92 275 92 q 289 101 290 92 q 319 126 307 110 q 338 161 332 143 q 345 165 340 164 q 347 171 350 165 q 347 184 349 178 q 353 193 346 190 l 353 231 q 347 236 344 228 q 340 239 343 235 q 332 240 338 243 q 324 246 329 247 q 315 251 318 244 q 278 257 300 260 q 236 257 256 254 q 232 249 239 250 q 221 246 225 249 q 200 255 213 254 q 176 256 188 256 l 157 256 q 139 246 150 250 q 119 239 128 242 l 26 146 q 12 123 21 133 q 3 97 3 113 l 3 -68 z "},"T":{"ha":974,"x_min":-49,"x_max":1704,"o":"m 463 -399 q 463 -399 463 -399 q 464 -400 463 -400 l 479 -417 l 485 -417 l 515 -390 q 522 -381 518 -385 q 529 -369 526 -376 l 567 -325 q 567 -322 567 -324 q 568 -321 568 -321 q 578 -309 571 -318 q 588 -297 586 -300 q 592 -285 589 -294 q 596 -274 594 -276 q 606 -262 597 -271 q 615 -250 614 -253 q 619 -239 617 -249 q 624 -228 622 -229 q 635 -217 626 -225 q 646 -207 643 -208 q 654 -211 650 -211 l 657 -211 l 775 -92 q 778 -87 776 -92 q 782 -81 781 -83 q 784 -78 783 -79 q 785 -76 785 -76 l 829 -29 q 835 -10 831 -18 q 840 8 840 -3 l 868 40 q 883 69 869 56 q 904 94 897 83 q 905 99 904 94 q 906 106 906 104 q 908 110 907 107 q 908 113 908 113 q 915 121 910 115 q 922 129 919 126 l 922 133 l 906 150 l 904 150 l 901 150 l 897 147 q 892 150 894 147 l 879 150 q 858 148 865 150 q 839 139 850 146 q 810 127 828 132 q 782 122 793 122 q 804 163 788 146 q 832 199 821 179 q 839 217 838 208 q 847 232 840 225 q 848 246 847 235 q 850 260 849 257 q 858 270 851 263 q 867 281 865 278 q 869 293 868 283 q 868 306 869 303 q 878 322 878 313 q 886 340 878 333 l 886 432 l 894 442 q 895 448 894 442 q 896 457 896 454 q 895 470 896 461 q 894 481 894 479 q 891 492 894 483 q 888 501 888 500 l 888 504 q 892 513 888 510 q 897 521 897 515 l 897 522 l 881 539 l 875 539 q 854 530 864 539 q 833 518 844 521 l 799 485 q 792 488 796 488 l 790 488 l 767 467 l 767 504 q 780 528 778 515 q 785 557 782 542 q 788 563 785 560 q 794 571 789 565 q 803 578 800 576 l 803 653 l 811 664 l 811 851 l 826 844 l 926 844 l 936 836 l 992 836 q 1001 830 994 833 q 1011 826 1008 826 l 1097 826 q 1103 821 1100 824 q 1111 818 1107 818 l 1472 818 l 1481 826 l 1507 826 q 1519 836 1510 831 q 1535 844 1528 842 q 1544 845 1536 844 q 1553 846 1551 846 q 1563 854 1556 847 q 1572 863 1569 861 q 1587 870 1579 868 q 1603 874 1594 872 l 1696 967 q 1697 981 1696 969 q 1697 996 1697 993 q 1701 1007 1699 1001 q 1704 1019 1704 1013 l 1704 1025 q 1692 1040 1700 1031 q 1675 1058 1685 1049 q 1656 1075 1665 1068 q 1639 1082 1647 1082 l 1638 1082 q 1633 1078 1636 1081 q 1628 1075 1629 1075 l 1610 1090 l 1607 1090 q 1597 1088 1604 1090 q 1582 1083 1590 1086 q 1567 1078 1574 1081 q 1558 1075 1560 1076 q 1553 1072 1556 1072 l 1460 979 l 1460 974 l 1476 958 l 1478 958 q 1493 961 1483 958 q 1512 967 1503 964 q 1529 975 1521 971 q 1542 983 1538 979 q 1551 975 1544 981 q 1560 967 1557 969 q 1572 960 1564 964 q 1579 950 1579 957 l 1579 949 q 1574 944 1575 944 q 1554 942 1564 943 q 1538 935 1544 942 l 1193 935 l 1183 943 l 1088 943 q 1080 947 1085 943 q 1074 951 1075 950 l 1018 951 l 1006 961 l 904 961 l 890 971 l 819 971 l 808 981 l 671 981 l 657 989 l 513 989 q 494 1000 506 999 q 474 1008 482 1001 l 419 1008 q 401 1018 413 1018 q 385 1026 392 1018 l 307 1026 l 299 1036 l 244 1036 q 238 1040 243 1036 q 231 1044 232 1043 l 164 1044 q 156 1042 156 1044 q 149 1038 156 1039 q 138 1035 146 1036 q 128 1035 131 1035 q 115 1022 125 1031 q 99 1011 106 1014 q 74 987 92 1004 q 35 950 56 969 q -3 913 15 931 q -28 888 -21 894 q -40 874 -32 883 q -49 865 -49 865 l -49 769 l -10 728 q 4 710 -7 717 q 24 697 15 704 l 56 697 l 149 790 l 149 794 q 142 803 149 797 q 133 811 136 808 q 122 813 131 813 q 113 814 114 813 q 108 816 111 814 q 106 818 106 818 q 96 822 101 822 l 68 851 l 68 918 q 82 919 75 918 q 93 928 89 921 l 149 928 q 181 919 163 919 q 213 918 199 918 q 219 913 214 917 q 226 910 224 910 l 303 910 q 319 900 310 903 q 336 892 329 897 l 394 892 q 401 888 394 890 q 415 881 408 885 q 429 875 422 878 q 436 872 436 872 l 578 872 q 595 865 586 865 q 615 863 604 864 l 594 839 l 594 800 l 601 790 l 601 419 q 595 411 596 417 q 594 399 594 406 q 592 383 593 396 q 592 367 592 369 q 584 347 583 357 q 582 325 585 336 q 578 308 581 315 q 575 290 575 301 l 575 281 l 592 264 l 593 264 q 615 272 607 264 q 632 288 622 281 q 664 308 647 300 q 694 332 681 317 l 694 325 q 692 312 694 318 q 688 299 690 306 q 664 238 679 267 q 633 181 649 210 q 630 162 629 171 q 624 146 631 153 q 618 138 622 143 q 611 132 614 133 l 611 103 q 593 76 597 90 q 582 46 589 61 q 569 17 576 31 q 557 -11 561 4 l 554 -19 q 549 -28 551 -25 q 547 -36 547 -31 l 547 -39 q 558 -51 553 -46 q 574 -57 564 -57 l 575 -57 q 587 -47 578 -54 q 599 -36 596 -39 q 602 -34 600 -36 q 606 -32 604 -32 q 610 -31 607 -32 q 613 -29 613 -29 q 617 -26 614 -28 q 622 -22 621 -24 l 654 -18 l 667 -11 l 667 -18 l 667 -25 q 663 -30 665 -26 q 660 -33 660 -33 q 653 -58 656 -44 q 647 -83 651 -72 q 640 -97 644 -90 q 632 -111 635 -104 q 627 -125 629 -118 q 622 -139 625 -132 q 614 -151 619 -146 q 606 -162 608 -156 q 605 -167 606 -162 q 603 -171 604 -171 q 587 -194 597 -183 q 575 -218 576 -204 q 557 -239 568 -226 q 540 -264 546 -251 l 510 -297 q 506 -309 510 -300 q 501 -321 503 -318 q 492 -332 500 -322 q 482 -343 483 -342 q 477 -356 481 -346 q 474 -367 474 -365 q 469 -375 468 -375 q 476 -372 472 -375 q 482 -367 481 -368 q 478 -372 483 -365 q 469 -385 475 -379 q 463 -399 463 -392 z "},"U":{"ha":846,"x_min":15,"x_max":842,"o":"m 585 -81 q 593 -99 594 -87 q 599 -118 592 -111 q 608 -130 601 -121 q 618 -142 615 -139 q 625 -149 621 -144 q 632 -153 629 -153 l 669 -153 l 686 -132 l 718 -132 q 735 -122 726 -125 q 753 -110 744 -119 l 842 1 l 842 6 l 826 24 l 822 24 q 804 9 811 13 q 786 -3 797 6 l 760 -3 l 760 208 q 756 217 760 211 q 751 224 753 222 l 751 258 l 743 269 q 742 294 743 281 q 735 319 742 308 l 735 557 l 742 567 l 742 635 q 739 642 742 638 q 735 650 736 647 l 735 846 l 742 861 l 742 1015 q 750 1028 746 1019 q 751 1037 750 1031 q 751 1046 751 1043 q 745 1063 749 1053 q 754 1071 742 1072 q 763 1074 760 1068 q 771 1076 765 1079 l 771 1081 q 779 1081 774 1082 q 782 1086 785 1079 q 792 1093 785 1093 q 797 1103 800 1093 q 797 1126 794 1114 q 792 1146 800 1138 q 785 1140 793 1138 q 776 1135 778 1142 q 772 1130 774 1132 q 765 1129 769 1128 q 760 1124 768 1121 q 745 1110 753 1117 q 731 1097 738 1104 l 714 1097 l 674 1050 q 665 1056 669 1056 q 653 1052 658 1056 q 643 1047 649 1049 q 629 1047 640 1047 q 614 1046 618 1046 l 519 931 q 522 931 528 933 q 514 926 517 928 q 486 904 501 913 q 456 889 471 896 q 449 878 449 886 q 456 867 449 869 q 458 859 454 863 q 465 857 461 856 q 471 847 463 850 q 482 851 479 844 q 492 852 488 849 q 501 859 497 856 q 508 865 504 863 q 519 867 513 868 q 537 885 529 874 q 557 899 544 896 l 551 904 q 558 885 558 900 q 558 864 558 871 q 558 855 558 861 q 557 847 557 849 l 551 838 l 551 735 q 544 723 544 729 q 543 710 543 717 l 543 565 l 551 554 l 551 500 l 558 489 l 558 336 l 568 325 l 568 74 q 576 58 575 67 q 576 39 576 49 l 576 26 l 569 19 l 522 19 l 510 26 l 460 26 q 452 38 458 31 q 444 47 446 46 q 432 49 442 49 q 419 50 422 49 q 411 54 418 50 q 401 60 404 58 q 385 80 397 67 q 368 100 374 93 q 351 107 357 101 q 339 121 344 113 q 328 138 333 129 q 314 151 322 146 q 308 154 308 151 q 298 174 304 158 q 290 196 292 189 q 288 204 289 199 q 286 211 286 210 q 276 225 285 214 q 267 239 268 236 q 256 274 260 256 q 243 308 251 292 l 242 313 q 238 327 240 318 q 232 346 235 336 q 226 363 229 356 q 222 372 224 371 l 222 436 q 219 446 222 440 q 214 467 215 457 q 207 489 213 478 l 207 639 l 215 656 l 215 763 l 222 778 l 222 817 l 229 828 q 235 862 228 850 q 247 892 242 874 q 248 900 247 894 q 249 908 249 906 q 251 911 249 908 q 254 915 253 914 q 260 923 256 917 q 265 931 265 929 q 266 941 265 932 q 267 951 267 950 q 267 956 267 953 q 268 958 268 958 q 274 969 271 965 q 279 981 276 974 q 281 988 279 982 q 283 996 283 994 q 288 1004 285 999 q 294 1011 292 1010 l 294 1017 q 288 1024 294 1017 q 279 1035 282 1032 q 271 1044 276 1038 q 265 1050 265 1050 l 261 1050 q 240 1035 251 1035 q 217 1032 228 1036 q 183 1012 199 1025 q 151 985 167 999 q 136 978 143 978 q 122 967 129 978 l 19 843 q 15 832 15 838 q 25 801 15 813 q 33 790 28 797 q 38 782 38 782 l 43 782 l 135 894 q 154 902 147 900 q 174 904 161 904 q 168 885 174 897 q 160 865 163 874 q 160 857 160 864 q 158 850 160 851 q 150 839 157 847 q 143 828 143 831 q 141 819 142 825 q 140 811 140 813 q 133 790 138 800 q 126 769 129 781 q 126 758 126 768 q 124 746 125 749 q 121 741 124 744 q 117 736 118 738 l 117 694 q 114 689 115 692 q 111 685 113 686 q 110 679 111 682 q 108 676 108 676 l 108 572 q 103 563 107 569 q 100 554 100 557 l 100 401 q 108 379 107 392 q 110 357 110 367 l 117 346 l 117 276 q 121 270 118 274 q 124 263 124 267 q 126 253 125 261 q 126 243 126 244 q 129 238 126 242 q 132 232 132 233 q 148 192 139 215 q 160 149 157 168 l 181 117 q 181 114 181 117 q 182 110 182 111 q 184 99 183 108 q 185 89 185 90 q 193 77 186 86 q 201 65 200 68 q 202 58 201 64 q 203 51 203 53 q 217 35 208 44 q 235 21 226 25 q 253 -2 244 10 q 274 -22 263 -14 q 280 -26 275 -24 q 286 -29 285 -28 q 316 -58 301 -40 q 350 -81 331 -75 q 357 -81 351 -81 q 364 -83 363 -82 q 372 -90 365 -83 q 381 -99 378 -97 q 384 -99 381 -99 q 390 -100 388 -100 q 414 -102 397 -101 q 438 -103 431 -103 q 444 -108 439 -104 q 451 -111 449 -111 l 500 -111 l 513 -101 l 550 -101 q 567 -90 557 -92 q 585 -81 578 -87 z "},"V":{"ha":1043,"x_min":14,"x_max":1165,"o":"m 721 -419 l 721 -421 l 738 -437 l 742 -437 q 751 -429 744 -435 q 761 -421 758 -424 q 767 -420 763 -421 q 772 -419 771 -419 q 777 -417 775 -418 q 779 -417 779 -417 l 890 -308 q 910 -294 893 -304 q 945 -274 926 -285 q 980 -251 964 -262 q 996 -236 996 -240 q 1055 -226 1021 -235 q 1108 -214 1089 -217 q 1115 -212 1113 -215 q 1119 -204 1118 -208 q 1118 -197 1119 -200 q 1114 -193 1117 -193 q 1107 -184 1113 -185 q 1094 -184 1101 -183 q 1078 -187 1086 -185 q 1065 -187 1071 -189 q 1016 -197 1043 -190 q 972 -219 989 -204 q 970 -206 969 -219 q 968 -193 971 -193 l 975 -192 l 975 -79 l 967 -68 l 967 358 l 958 368 l 958 785 l 967 793 l 967 861 l 971 864 q 980 865 974 864 q 989 865 986 865 q 992 867 990 865 q 996 871 994 869 q 1009 872 999 871 q 1021 875 1019 874 q 1047 888 1036 881 q 1072 893 1057 896 l 1165 986 l 1165 992 l 1150 1007 q 1142 1008 1149 1008 q 1124 1006 1131 1008 q 1110 998 1121 1004 q 1096 992 1099 992 q 1078 988 1089 989 q 1061 981 1068 988 l 992 981 q 986 978 992 981 q 978 975 981 976 q 972 972 975 975 q 955 972 968 972 q 938 971 942 971 q 930 968 935 969 q 924 965 925 967 l 803 844 q 794 833 800 842 q 786 821 788 824 q 785 811 786 819 q 785 800 785 803 q 781 796 783 800 q 778 792 778 792 q 776 781 776 789 q 775 772 775 774 q 772 767 775 771 q 768 764 768 764 q 765 750 765 756 q 757 738 764 744 l 757 651 l 749 642 l 749 617 l 740 607 l 740 435 q 742 426 740 432 q 749 417 744 419 l 749 361 l 757 351 l 757 182 l 765 172 l 765 -31 q 758 -44 765 -37 l 758 -182 q 760 -189 758 -185 q 765 -196 763 -193 l 765 -221 q 742 -210 756 -219 q 714 -190 728 -200 q 688 -171 700 -179 q 669 -162 675 -162 l 638 -137 q 624 -132 631 -136 q 610 -125 618 -128 q 606 -124 608 -125 q 603 -124 603 -124 q 581 -106 593 -117 q 563 -89 569 -96 q 545 -81 551 -89 q 528 -69 539 -72 l 489 -35 l 483 -32 q 475 -24 482 -31 q 457 -8 468 -18 q 440 7 446 1 q 424 26 431 15 q 410 49 417 38 q 402 65 404 58 q 390 79 400 71 q 390 92 390 83 q 390 110 390 100 q 389 129 389 121 q 389 142 389 138 q 387 153 388 147 q 382 163 386 160 l 382 507 q 390 521 382 515 l 390 599 l 399 607 l 399 654 q 401 656 400 654 q 403 658 401 658 q 406 663 404 661 q 407 665 407 665 l 407 754 q 406 760 407 754 q 403 768 404 765 l 400 772 l 400 865 l 408 878 l 408 938 q 413 949 408 944 q 417 961 417 954 l 417 964 l 400 979 l 399 981 q 389 975 394 981 q 354 994 371 990 q 314 999 338 999 l 283 999 q 272 989 279 994 q 258 982 264 983 q 249 981 257 982 q 240 979 242 981 q 229 972 238 979 q 218 964 221 965 q 195 951 207 957 q 172 940 183 946 q 152 926 161 933 q 131 914 143 919 l 38 821 q 30 809 36 819 q 19 790 24 799 q 14 779 15 781 l 14 733 q 32 710 22 724 q 52 685 42 697 q 75 663 63 672 q 103 654 88 654 l 104 654 l 197 747 q 221 771 208 761 q 240 792 233 781 q 246 797 238 800 q 249 806 243 803 q 251 814 254 808 q 243 820 249 818 q 240 829 238 822 q 230 820 232 828 q 219 808 228 813 q 214 803 222 800 q 193 786 203 794 q 171 771 183 778 l 182 768 q 176 770 181 768 q 169 772 171 772 q 165 775 168 774 q 161 778 161 776 q 140 799 150 785 q 129 826 129 814 q 130 832 129 828 q 131 838 131 836 l 132 840 q 139 845 133 842 q 151 853 144 849 q 162 860 157 857 q 168 864 167 864 l 196 868 q 207 875 201 872 q 218 882 213 878 l 243 882 l 268 882 q 283 878 272 882 q 293 868 293 874 l 293 864 q 292 840 293 856 q 291 815 292 825 q 290 803 290 804 l 283 793 l 283 692 q 288 685 286 689 q 290 678 290 681 l 290 599 q 285 589 286 594 q 283 576 285 583 q 283 558 283 572 q 282 540 282 544 q 277 533 281 539 q 274 526 274 528 l 274 449 q 268 440 271 446 q 265 431 265 433 l 265 76 q 267 74 265 76 q 269 69 268 72 q 272 67 271 69 q 274 65 272 65 l 274 -3 q 290 -28 289 -17 q 303 -54 292 -39 q 338 -92 318 -75 q 376 -125 357 -108 q 389 -136 381 -128 q 407 -153 397 -144 q 425 -171 417 -162 q 438 -182 433 -179 l 456 -189 l 483 -217 q 488 -219 485 -218 q 490 -221 490 -221 q 497 -222 492 -221 q 503 -224 501 -222 q 510 -231 504 -225 q 519 -237 517 -236 q 541 -248 529 -244 q 563 -258 553 -251 q 574 -267 565 -260 q 586 -276 583 -275 q 592 -279 588 -278 q 599 -282 597 -281 q 608 -291 601 -285 q 621 -297 614 -297 q 631 -308 624 -300 q 642 -319 639 -317 q 646 -322 643 -319 q 649 -324 649 -324 q 655 -324 650 -324 q 661 -326 660 -325 q 671 -334 663 -328 q 682 -342 679 -340 q 701 -348 688 -346 q 726 -354 715 -350 q 740 -363 733 -357 q 754 -372 746 -369 l 731 -399 q 725 -408 729 -404 q 721 -419 721 -412 z "},"W":{"ha":1101,"x_min":-57,"x_max":1518,"o":"m 172 -67 q 239 -129 200 -104 q 263 -137 250 -136 q 288 -150 276 -139 l 456 -150 q 467 -142 460 -143 q 482 -140 475 -140 l 582 -24 l 582 -62 q 610 -105 594 -81 q 650 -132 626 -129 q 674 -133 656 -132 q 696 -133 692 -133 l 703 -140 l 790 -140 q 799 -132 793 -137 q 810 -125 804 -126 q 818 -122 814 -122 q 828 -119 824 -122 q 835 -111 835 -114 q 846 -108 836 -108 l 956 26 q 956 29 956 28 q 957 31 957 31 q 959 35 957 32 q 961 38 961 38 q 962 44 961 39 q 964 50 963 49 q 971 59 965 51 q 976 68 976 67 q 984 89 983 78 q 994 110 985 100 l 994 376 l 1001 383 l 1001 454 q 1006 462 1001 457 q 1010 468 1010 467 q 1010 492 1010 478 q 1017 515 1010 507 l 1017 685 l 1026 697 l 1026 794 q 1031 815 1026 803 q 1042 832 1036 826 l 1042 924 q 1044 931 1042 926 q 1050 938 1047 936 l 1050 1021 l 1053 1025 q 1056 1030 1054 1028 q 1057 1032 1057 1032 l 1057 1101 q 1055 1108 1057 1104 q 1051 1115 1053 1113 l 1051 1188 l 1057 1200 l 1057 1244 q 1060 1252 1057 1247 q 1063 1258 1063 1257 q 1077 1310 1064 1297 q 1118 1336 1090 1324 q 1122 1339 1122 1336 q 1142 1354 1133 1346 q 1163 1367 1151 1363 q 1192 1373 1178 1372 q 1219 1385 1206 1374 q 1256 1393 1239 1386 q 1293 1403 1274 1400 q 1338 1410 1315 1406 q 1383 1415 1361 1415 l 1399 1415 q 1406 1401 1404 1411 q 1410 1388 1407 1392 q 1413 1383 1410 1386 q 1415 1378 1415 1379 q 1413 1373 1415 1376 q 1410 1368 1410 1369 q 1407 1356 1408 1367 q 1404 1343 1406 1346 q 1402 1328 1404 1339 q 1398 1307 1400 1318 q 1394 1288 1396 1296 q 1392 1279 1393 1279 l 1338 1279 l 1367 1315 l 1350 1333 l 1349 1333 l 1346 1333 l 1339 1333 l 1242 1214 q 1235 1188 1235 1206 l 1235 1185 q 1242 1176 1238 1182 q 1249 1168 1246 1171 q 1251 1167 1249 1168 q 1256 1167 1254 1167 q 1260 1163 1257 1165 q 1265 1160 1264 1161 l 1346 1160 l 1389 1208 q 1396 1213 1393 1211 q 1403 1218 1399 1215 l 1481 1313 q 1487 1344 1481 1329 q 1496 1374 1493 1358 q 1497 1389 1496 1376 q 1500 1404 1499 1401 q 1503 1417 1500 1407 q 1506 1429 1506 1428 l 1506 1438 l 1506 1447 l 1500 1456 q 1503 1460 1500 1457 q 1506 1465 1506 1464 l 1506 1469 q 1503 1481 1506 1475 q 1500 1492 1500 1486 l 1501 1493 l 1518 1514 l 1501 1532 q 1490 1533 1500 1532 q 1475 1533 1479 1533 q 1397 1526 1435 1533 q 1321 1508 1358 1519 q 1297 1506 1310 1506 q 1275 1500 1286 1506 q 1263 1494 1271 1497 q 1253 1490 1256 1490 q 1239 1488 1250 1489 q 1225 1486 1228 1486 q 1206 1472 1215 1482 q 1185 1456 1196 1463 q 1174 1451 1179 1451 q 1163 1447 1169 1450 q 1149 1438 1156 1444 q 1138 1428 1143 1431 q 1119 1422 1131 1422 q 1101 1421 1108 1422 q 1087 1410 1099 1419 q 1068 1396 1075 1400 l 1043 1368 q 1040 1367 1042 1368 q 1038 1367 1039 1367 q 1025 1353 1035 1363 q 1014 1343 1015 1344 l 906 1211 q 894 1185 903 1196 q 881 1161 885 1175 q 880 1151 881 1160 q 879 1142 879 1143 q 876 1138 878 1142 q 874 1133 874 1133 q 863 1083 861 1111 l 856 1074 l 856 1021 q 855 1018 856 1021 q 853 1014 854 1015 q 851 1010 853 1013 q 849 1007 850 1007 q 848 999 849 1006 q 847 990 847 992 q 844 984 846 989 q 842 978 843 979 l 842 926 q 838 918 842 924 q 832 911 835 913 l 832 763 q 829 756 832 760 q 825 750 826 751 l 825 650 l 818 638 l 818 319 q 819 315 818 319 q 822 308 821 311 q 824 303 822 304 q 823 272 822 289 q 831 243 824 256 l 831 88 l 825 78 l 825 50 q 818 38 818 44 q 815 21 818 31 q 797 1 813 4 q 769 -12 781 -3 l 715 -12 q 702 -7 708 -12 q 693 6 696 -1 q 685 16 690 8 q 679 24 679 24 l 679 68 l 736 138 l 719 156 l 717 156 q 704 152 711 156 q 694 147 697 149 l 594 31 l 588 31 l 556 -7 l 556 -4 l 597 50 q 610 74 604 61 q 625 99 617 88 q 632 108 626 100 q 639 118 638 115 q 642 131 640 121 q 643 144 643 142 q 645 149 644 146 q 646 154 646 153 q 649 166 647 158 q 655 183 651 174 q 660 201 658 193 q 664 213 663 208 l 672 221 l 672 268 q 673 270 672 268 q 674 274 674 272 q 681 281 675 275 q 686 288 686 286 q 688 297 688 289 q 689 308 689 306 q 690 310 689 308 q 692 313 690 311 q 693 316 692 314 q 694 319 694 318 q 701 348 697 335 q 703 376 704 361 q 707 381 704 376 q 712 392 710 386 q 715 404 714 399 q 717 411 717 410 q 715 431 717 424 q 701 447 713 439 l 699 447 q 684 439 692 447 q 671 426 676 431 q 657 417 664 421 q 643 410 650 414 q 635 402 640 407 q 628 396 631 397 l 625 396 l 625 400 l 646 428 q 657 462 649 447 q 674 492 665 476 q 676 506 675 499 q 679 517 676 513 q 687 526 681 519 q 694 536 693 533 q 696 546 696 538 q 696 556 696 554 q 703 582 697 567 q 711 594 706 589 q 717 607 717 600 q 716 609 717 608 q 715 610 715 610 l 701 625 q 701 626 701 625 q 699 626 700 626 q 679 617 688 626 q 665 607 671 607 l 664 607 q 660 609 663 607 q 658 611 658 611 l 656 611 q 641 603 646 611 q 628 593 636 596 l 671 649 l 674 661 q 685 674 676 664 q 696 688 693 685 q 697 692 696 688 q 701 699 699 696 q 702 701 701 700 q 703 704 703 703 q 710 714 704 706 q 717 724 717 722 q 718 735 718 726 q 719 744 718 743 q 722 749 719 746 q 725 754 724 753 q 726 757 725 756 q 726 760 726 758 l 749 790 q 753 813 750 803 q 757 833 757 822 l 757 842 l 740 860 l 719 838 q 719 844 719 839 q 717 853 718 850 q 710 861 715 856 q 703 867 706 867 l 699 867 l 664 776 q 606 651 629 697 q 561 573 583 604 q 513 515 539 542 q 444 450 486 489 l 435 428 l 446 411 q 449 410 447 411 q 453 410 451 410 l 456 410 q 468 417 461 410 q 482 426 475 424 q 489 427 483 426 q 496 428 494 428 q 519 451 508 436 q 546 465 531 465 l 550 465 q 535 425 539 449 q 525 382 531 401 q 517 369 522 375 q 510 358 513 364 q 506 342 507 353 q 503 326 504 332 q 492 313 500 324 q 482 299 483 301 q 469 279 475 289 q 460 258 463 269 l 432 221 l 432 203 l 446 185 l 461 199 q 471 190 467 190 q 474 192 474 190 q 483 201 481 199 q 492 207 485 204 q 498 208 493 207 q 503 210 503 210 q 509 216 510 214 q 519 219 508 218 l 542 244 l 547 247 l 547 244 q 542 222 547 233 q 535 200 536 211 q 533 181 535 196 q 532 163 532 167 q 529 155 532 161 q 526 147 526 149 l 526 85 q 519 73 522 81 q 513 60 515 65 q 508 43 511 57 q 503 26 504 29 q 495 11 500 18 q 490 -4 490 4 l 490 -7 l 501 -19 l 501 -21 q 497 -27 499 -24 q 494 -31 494 -31 l 432 -31 q 419 -23 426 -21 q 403 -21 411 -25 q 396 -14 401 -21 q 388 -7 390 -7 q 383 -5 386 -6 q 379 -4 379 -4 q 375 -1 378 -4 q 347 28 356 14 q 331 67 338 43 q 327 69 329 67 q 325 74 325 72 q 324 93 322 85 q 318 110 325 101 l 314 142 l 310 149 l 310 515 l 315 524 q 316 549 315 535 q 325 571 317 564 l 325 697 q 331 717 325 700 q 339 736 336 735 l 339 860 q 342 868 339 863 q 349 876 346 874 l 349 1011 l 356 1021 l 356 1104 q 354 1106 356 1104 q 353 1111 353 1108 q 351 1115 353 1111 q 349 1119 350 1119 q 348 1135 349 1122 q 347 1150 347 1147 q 342 1163 346 1157 q 335 1174 338 1168 q 327 1184 333 1176 q 321 1192 321 1192 l 211 1192 l 196 1172 l 144 1172 q 142 1171 144 1172 q 138 1168 139 1169 q 135 1166 138 1168 q 132 1164 133 1164 q 122 1162 129 1164 q 113 1160 115 1160 q 96 1148 104 1156 q 79 1138 88 1140 q 74 1135 78 1138 q 68 1133 69 1133 q 57 1120 61 1126 q 43 1111 53 1114 l -57 993 l -57 957 l -42 940 l 38 1032 q 39 1033 38 1032 q 42 1035 40 1035 q 47 1038 43 1035 q 51 1042 50 1042 q 67 1044 58 1044 q 82 1051 76 1043 l 147 1051 q 151 1046 150 1051 q 153 1039 153 1040 l 153 865 q 150 859 153 864 q 147 853 147 854 l 147 765 l 139 754 l 139 713 q 133 701 136 708 q 131 692 131 694 l 131 558 l 124 547 l 124 315 q 121 310 124 314 q 118 303 118 306 l 118 236 l 124 217 l 124 108 l 131 99 l 131 43 q 143 19 140 33 q 151 -7 146 4 q 152 -11 151 -8 q 153 -14 153 -14 q 155 -24 154 -17 q 156 -33 156 -32 q 167 -49 160 -42 q 172 -67 174 -56 z "},"X":{"ha":915,"x_min":14,"x_max":1111,"o":"m 19 -467 l 33 -483 l 36 -483 q 54 -477 46 -483 q 69 -468 63 -471 q 75 -467 71 -468 q 81 -467 79 -467 q 83 -464 81 -465 q 88 -462 86 -462 q 91 -460 89 -461 q 93 -460 93 -460 l 129 -460 q 135 -453 131 -457 q 142 -450 139 -450 l 197 -450 l 274 -362 l 258 -344 l 239 -344 q 221 -333 233 -336 l 221 -331 l 221 -329 q 222 -305 221 -322 q 222 -282 222 -287 q 230 -262 232 -274 q 233 -242 228 -251 l 238 -229 l 238 -185 q 242 -177 239 -183 q 249 -163 246 -171 q 254 -149 251 -156 q 258 -139 257 -142 q 263 -115 261 -128 q 269 -92 264 -101 q 276 -85 271 -90 q 281 -79 281 -81 q 286 -67 283 -75 q 290 -54 289 -58 q 291 -47 290 -53 q 292 -40 292 -42 q 297 -33 292 -39 q 303 -25 301 -26 q 311 -8 308 -18 q 319 8 314 1 q 338 33 328 19 q 354 58 347 47 q 356 61 356 58 q 357 65 357 64 l 401 118 q 416 138 404 126 q 435 156 428 149 q 435 153 435 154 q 436 153 436 153 q 438 149 438 151 q 439 146 439 146 l 439 100 l 446 90 l 446 49 q 453 38 451 46 q 458 22 456 31 q 463 4 460 13 q 471 -8 465 -4 l 471 -40 q 483 -71 481 -51 q 486 -104 485 -90 q 494 -113 490 -108 q 499 -125 497 -118 q 499 -133 499 -126 q 500 -142 500 -140 q 507 -158 503 -149 q 515 -174 511 -168 q 519 -179 515 -175 q 522 -186 522 -183 q 523 -195 522 -189 q 524 -204 524 -201 q 535 -219 526 -210 q 544 -237 543 -229 q 545 -246 544 -239 q 546 -254 546 -253 q 553 -263 547 -257 q 561 -271 560 -269 q 565 -285 564 -278 q 571 -299 567 -293 q 575 -306 571 -300 q 582 -314 579 -311 q 591 -322 585 -315 q 599 -331 597 -329 q 616 -348 608 -339 q 631 -364 624 -357 q 640 -375 633 -367 q 649 -386 647 -383 q 654 -387 650 -386 q 660 -390 658 -389 q 670 -400 663 -392 q 681 -411 678 -408 q 697 -416 688 -415 q 711 -425 706 -417 l 746 -425 q 753 -431 749 -428 q 760 -433 758 -433 l 804 -433 l 811 -425 l 857 -425 q 860 -422 857 -425 q 867 -418 864 -419 q 903 -399 879 -406 l 931 -368 l 933 -367 l 975 -324 q 979 -323 976 -324 q 983 -322 982 -322 q 988 -321 985 -321 q 990 -321 990 -321 l 1017 -293 l 1017 -343 q 1012 -353 1017 -344 q 1004 -364 1007 -361 q 995 -378 1003 -368 q 983 -392 988 -389 l 983 -396 l 999 -411 l 1001 -411 l 1089 -314 q 1093 -309 1090 -312 q 1097 -303 1096 -306 q 1106 -286 1100 -296 q 1111 -276 1111 -276 l 1111 -189 l 1094 -169 l 1092 -169 q 1081 -172 1085 -169 q 1071 -176 1078 -175 l 1029 -221 q 1009 -235 1022 -228 q 988 -242 996 -242 l 978 -242 l 996 -218 l 981 -201 l 978 -201 q 970 -205 976 -201 q 956 -212 964 -208 q 942 -220 949 -217 q 933 -224 936 -224 q 910 -224 924 -224 q 885 -233 896 -225 l 824 -233 l 817 -225 l 792 -225 q 781 -219 786 -218 q 769 -214 776 -219 q 750 -197 763 -210 q 731 -182 738 -185 l 711 -158 q 696 -144 700 -160 q 689 -121 692 -128 q 674 -92 682 -106 q 658 -67 665 -78 q 656 -61 656 -64 q 653 -57 656 -61 q 651 -51 651 -53 q 646 -45 650 -50 q 642 -39 642 -40 q 641 -32 642 -37 q 640 -25 640 -26 q 638 -19 638 -25 q 632 -7 636 -17 q 626 6 628 3 q 624 19 626 8 q 622 33 622 31 q 619 41 622 35 q 613 54 615 47 q 606 67 610 61 q 603 76 603 74 q 602 83 603 78 q 601 89 601 88 l 596 97 q 590 122 592 108 q 582 146 589 136 q 581 174 582 157 q 574 203 581 192 l 574 228 q 597 236 589 228 l 660 236 q 662 238 660 238 q 664 240 664 239 q 673 242 665 240 q 689 245 681 243 q 705 249 697 247 q 714 250 713 250 q 751 263 731 254 q 790 271 772 271 l 867 356 l 867 360 l 853 375 l 847 375 q 811 367 832 375 q 776 356 790 360 q 767 353 775 356 q 751 350 760 351 q 736 347 743 349 q 728 346 729 346 q 724 344 726 344 q 719 342 721 343 l 661 342 q 638 333 650 333 q 615 326 626 332 l 576 326 l 571 335 l 588 354 l 610 354 q 634 366 614 363 q 664 372 654 369 q 676 382 669 375 q 689 389 682 389 l 728 389 l 806 476 l 790 494 l 753 494 q 736 487 743 494 q 721 479 729 479 l 719 479 l 769 536 l 771 540 l 807 582 q 824 608 810 594 q 839 636 839 622 l 861 661 q 872 692 863 678 q 885 722 881 707 q 897 748 888 736 q 908 774 906 760 q 911 779 908 779 q 919 795 914 788 q 929 810 925 803 l 929 839 q 938 850 932 842 q 944 861 943 858 q 945 867 944 863 q 946 874 946 872 q 949 878 947 875 q 953 883 951 882 q 953 892 953 886 q 954 901 954 899 q 957 906 954 903 q 960 908 960 908 q 963 921 963 915 q 967 932 963 926 q 967 958 967 943 q 975 981 967 974 l 975 1118 q 983 1135 982 1125 q 983 1156 985 1146 q 988 1161 985 1157 q 992 1168 992 1165 l 992 1233 q 994 1238 992 1233 q 999 1243 996 1242 q 1001 1249 999 1244 q 1004 1256 1004 1254 q 1006 1256 1006 1256 q 1006 1257 1006 1257 q 1006 1257 1006 1257 q 1004 1258 1006 1258 l 993 1274 l 982 1274 l 828 1101 q 828 1093 828 1100 q 826 1083 828 1086 q 824 1078 826 1082 q 821 1074 821 1075 q 822 1065 821 1068 q 824 1058 824 1061 q 822 1051 824 1054 q 821 1044 821 1049 l 821 1039 q 822 1034 821 1038 q 824 1031 824 1031 q 819 1026 819 1026 l 819 951 q 813 944 814 949 q 813 933 813 939 q 811 924 813 929 q 806 915 810 918 l 806 867 q 797 850 797 858 q 794 831 797 842 q 790 818 794 825 q 782 807 785 811 q 782 788 783 800 q 774 771 781 776 l 774 722 q 773 721 774 722 q 771 719 772 719 q 765 711 769 717 q 760 704 761 706 q 759 696 760 703 q 758 686 758 689 q 758 685 758 686 q 757 682 757 683 q 755 680 757 682 q 753 676 753 678 q 748 665 753 674 q 742 654 743 657 q 733 642 740 651 q 722 629 725 632 q 716 611 721 618 q 706 598 711 604 q 697 585 701 592 q 689 569 692 579 l 661 536 q 660 529 661 536 q 658 519 660 522 l 622 472 q 611 456 621 467 q 597 444 601 444 l 557 444 l 557 601 q 565 626 567 613 q 572 649 564 639 l 572 717 q 575 723 572 718 q 579 729 578 728 l 579 810 l 574 819 q 573 840 574 825 q 571 858 572 854 q 569 869 571 868 q 565 876 568 871 q 561 885 563 879 q 557 890 560 890 q 556 896 557 890 q 556 903 556 901 q 549 915 553 910 q 543 929 544 921 q 538 955 540 943 q 529 981 535 967 q 499 1009 514 999 q 469 1033 485 1019 q 461 1040 467 1036 q 456 1044 456 1044 l 372 1044 l 349 1021 q 327 1013 340 1018 q 300 999 314 1007 q 274 982 286 990 q 256 967 261 974 l 126 824 l 126 792 q 121 778 121 788 q 121 776 121 778 q 122 774 121 775 q 150 742 136 754 q 188 729 164 729 l 194 729 l 269 814 l 269 818 l 258 833 q 247 833 256 833 q 236 835 239 833 q 226 840 233 835 q 221 850 219 846 l 222 874 q 228 881 224 875 q 236 889 233 886 q 240 890 238 889 q 244 890 243 890 q 263 903 250 893 q 281 914 275 914 l 335 914 q 343 908 339 908 q 351 904 347 907 q 374 891 357 903 q 393 874 390 879 q 394 865 393 872 q 394 857 394 858 q 398 852 396 856 q 400 847 400 849 q 401 838 400 846 q 401 829 401 831 q 403 825 401 828 q 406 822 406 822 q 406 819 406 821 q 407 817 407 817 q 408 799 407 813 q 410 782 410 786 l 415 771 l 415 444 q 383 426 400 442 q 346 404 365 410 l 258 307 l 258 303 l 269 288 l 274 288 q 284 298 281 296 q 293 303 288 300 q 298 303 294 303 q 303 306 301 304 q 310 311 304 306 q 318 318 317 317 q 343 333 331 326 q 367 350 356 339 q 371 353 368 351 q 374 354 374 354 q 380 355 375 354 q 385 356 385 356 l 390 360 l 396 360 l 400 360 q 403 353 401 357 q 407 347 406 350 l 407 310 q 401 309 406 310 q 393 307 396 308 q 389 304 392 307 q 385 300 386 301 q 376 299 383 300 q 367 297 368 297 q 356 292 360 294 q 346 286 353 289 l 263 193 q 261 188 263 192 q 258 181 260 183 l 258 178 l 258 175 l 272 161 l 282 161 l 311 190 l 317 193 q 321 194 317 193 q 326 194 325 194 q 331 198 328 196 q 335 201 333 200 q 346 204 342 204 q 357 211 350 204 l 406 211 q 415 215 410 215 l 418 215 q 405 201 414 210 q 385 185 396 193 q 365 170 375 176 q 349 163 356 164 q 330 142 339 151 q 308 128 321 133 l 225 33 q 222 29 224 32 q 219 25 219 26 q 197 -1 214 18 q 174 -28 181 -21 q 160 -51 168 -43 q 146 -74 153 -60 q 140 -87 143 -79 q 135 -97 138 -94 q 124 -110 132 -100 q 113 -124 115 -121 q 100 -158 106 -140 q 83 -192 94 -176 q 78 -198 82 -193 q 75 -204 75 -203 q 69 -228 69 -215 q 64 -251 68 -240 q 60 -257 60 -251 q 59 -263 60 -258 q 58 -269 58 -268 q 51 -278 57 -271 q 44 -289 46 -286 q 44 -299 44 -290 q 43 -311 44 -308 q 35 -324 42 -314 q 28 -336 29 -333 l 28 -358 q 26 -362 28 -360 q 25 -367 25 -365 q 18 -383 22 -375 q 14 -403 14 -392 q 32 -449 14 -429 l 19 -467 z "},"Y":{"ha":861,"x_min":14,"x_max":875,"o":"m 290 -494 l 301 -503 l 378 -503 l 386 -494 l 571 -494 q 575 -493 571 -494 q 582 -490 579 -492 q 584 -490 582 -490 q 586 -487 586 -489 q 606 -487 596 -487 q 622 -483 615 -487 q 627 -481 624 -483 q 631 -479 631 -479 q 649 -477 642 -476 q 664 -471 657 -478 q 675 -470 667 -471 q 686 -468 683 -469 q 694 -467 689 -468 q 699 -467 699 -467 q 710 -458 706 -462 q 721 -451 714 -454 q 728 -451 722 -451 q 738 -447 735 -450 q 748 -439 740 -446 q 758 -431 756 -432 q 760 -428 758 -429 q 761 -428 761 -428 l 875 -310 l 875 -262 q 869 -249 875 -257 q 858 -231 864 -240 q 844 -213 851 -222 q 836 -199 838 -204 q 835 -194 836 -199 q 832 -187 833 -189 q 826 -179 831 -186 q 819 -171 821 -172 q 809 -142 813 -156 q 794 -117 806 -129 l 794 -56 l 786 -47 l 786 125 q 790 133 786 128 q 794 142 793 139 l 794 251 l 801 260 l 801 313 l 811 322 l 811 694 l 817 703 l 817 899 l 811 908 l 811 1136 l 818 1146 l 818 1197 q 835 1235 832 1217 q 846 1274 838 1254 q 853 1285 849 1279 q 858 1296 858 1290 l 858 1299 l 842 1317 l 789 1261 q 784 1265 788 1263 q 779 1269 781 1268 l 776 1269 l 774 1269 q 760 1258 765 1261 q 744 1253 756 1254 l 663 1165 q 622 1131 643 1144 q 578 1108 601 1118 q 570 1103 575 1101 q 563 1097 565 1104 q 558 1092 561 1093 q 551 1092 556 1092 q 547 1091 549 1092 q 546 1086 544 1090 q 551 1081 543 1078 q 557 1076 558 1083 q 562 1074 561 1078 q 563 1067 563 1071 q 565 1061 564 1064 q 572 1060 567 1058 q 582 1060 578 1060 q 589 1065 586 1060 q 601 1065 594 1065 q 610 1071 607 1064 q 619 1071 615 1071 q 626 1076 624 1071 l 633 1076 l 633 454 l 628 449 q 608 448 622 449 q 589 447 593 447 q 578 445 583 446 q 571 440 574 444 l 447 436 q 443 440 446 438 q 439 443 440 442 q 432 444 438 443 q 426 444 426 444 q 424 451 425 446 q 424 457 424 456 q 422 461 424 458 q 419 464 421 464 q 418 468 419 467 q 417 471 417 469 l 417 601 l 411 610 l 411 768 q 417 788 417 776 l 417 867 q 422 876 419 869 q 425 885 425 882 l 425 972 q 430 978 426 974 q 433 988 433 983 l 433 1026 q 440 1039 440 1029 l 440 1183 q 428 1203 433 1193 q 415 1222 422 1214 q 408 1233 413 1226 q 401 1239 403 1239 l 368 1243 q 336 1215 356 1229 q 299 1199 317 1200 q 283 1185 294 1196 q 268 1171 272 1174 q 260 1167 265 1168 q 251 1163 254 1165 l 163 1063 q 154 1047 154 1054 q 157 1040 154 1044 q 163 1033 160 1036 q 170 1025 165 1031 q 175 1019 175 1019 l 179 1019 l 219 1060 q 226 1061 219 1061 q 244 1052 239 1061 q 250 1031 250 1043 l 250 1017 q 248 1014 249 1015 q 247 1013 247 1013 q 244 1005 246 1010 q 243 1000 243 1000 l 243 843 l 250 835 l 250 454 q 244 446 246 451 q 243 435 243 440 l 243 365 q 249 353 251 358 q 251 336 246 347 q 267 317 256 326 q 293 301 279 308 q 322 288 307 293 q 344 279 336 282 q 351 278 347 279 q 357 278 356 278 l 429 278 q 440 284 436 282 q 449 293 443 286 l 528 293 q 551 310 535 301 q 578 319 568 319 l 633 378 l 633 285 q 629 279 632 283 q 626 272 626 275 l 626 144 q 619 128 619 139 q 617 110 618 118 q 612 101 614 107 q 610 96 610 96 l 610 50 l 604 42 l 604 -29 l 610 -44 l 610 -89 q 618 -97 613 -90 q 625 -107 624 -104 q 626 -117 626 -108 q 628 -128 626 -126 q 643 -153 631 -143 q 658 -178 656 -162 q 659 -186 658 -179 q 660 -194 660 -193 q 667 -203 661 -197 q 674 -212 672 -210 q 681 -226 681 -221 q 685 -240 681 -233 q 703 -258 693 -251 q 722 -275 714 -264 q 725 -281 725 -278 q 733 -289 726 -282 q 740 -297 739 -296 q 741 -303 740 -299 q 742 -310 742 -308 q 761 -325 749 -321 q 774 -342 774 -329 q 767 -353 774 -350 q 751 -357 760 -356 q 733 -360 742 -358 q 719 -365 724 -361 q 701 -366 711 -364 q 685 -376 692 -368 l 650 -376 q 644 -381 647 -378 q 638 -385 642 -385 l 565 -385 l 618 -324 l 604 -307 l 601 -307 q 585 -310 594 -307 q 568 -317 575 -314 q 563 -320 565 -318 q 556 -322 561 -322 l 393 -322 q 381 -318 392 -322 q 363 -311 369 -314 l 357 -306 l 271 -306 l 254 -287 l 218 -287 l 194 -312 l 168 -282 l 163 -267 l 140 -243 q 131 -224 136 -231 q 124 -210 126 -217 q 119 -196 121 -204 q 117 -172 117 -187 l 117 -151 q 119 -149 117 -150 q 121 -149 121 -149 q 130 -140 124 -147 q 138 -132 136 -133 q 150 -131 140 -132 q 163 -131 160 -131 q 168 -124 163 -129 q 175 -117 174 -118 q 177 -116 176 -117 q 179 -115 178 -115 q 210 -112 196 -118 q 238 -97 225 -107 l 319 -97 q 330 -93 326 -97 q 339 -89 333 -89 q 351 -92 346 -89 q 361 -97 356 -94 q 377 -108 368 -101 q 386 -115 386 -114 l 386 -122 l 306 -210 l 322 -228 l 326 -228 q 332 -223 328 -226 q 340 -215 336 -219 q 348 -208 344 -211 q 353 -203 351 -204 q 361 -199 357 -203 q 378 -183 365 -196 q 394 -165 392 -169 q 397 -164 394 -165 q 400 -162 399 -162 q 405 -158 401 -161 q 408 -156 408 -156 l 489 -68 q 490 -65 489 -68 q 490 -60 490 -62 q 468 -12 490 -28 q 425 14 446 3 q 421 17 424 14 q 417 21 418 21 l 410 21 q 398 20 403 21 q 389 13 393 19 l 306 13 q 290 4 301 10 q 274 -3 278 -1 q 260 -5 271 -4 q 247 -6 250 -6 q 244 -6 247 -6 q 242 -8 242 -7 q 231 -15 235 -11 q 219 -21 226 -18 q 210 -23 213 -24 q 200 -25 207 -22 q 178 -40 188 -32 q 157 -57 168 -49 q 141 -65 151 -64 q 125 -71 131 -67 l 22 -185 q 14 -201 19 -196 l 14 -233 q 16 -275 14 -261 q 33 -310 18 -289 q 38 -320 36 -314 q 42 -331 39 -326 q 56 -346 46 -337 q 68 -365 65 -354 l 114 -417 q 134 -432 119 -422 q 153 -443 149 -442 l 175 -468 q 211 -486 197 -471 l 232 -486 l 242 -494 l 290 -494 z "}}}
